<svg width="43" height="57" viewBox="0 0 43 57" fill="none" xmlns="http://www.w3.org/2000/svg">
<path d="M4.91406 21.1524C4.91406 30.3604 12.4052 37.8516 21.6133 37.8516C30.8214 37.8516 38.3125 30.3604 38.3125 21.1524C38.3125 11.9443 30.8214 4.45312 21.6133 4.45312C12.4052 4.45312 4.91406 11.9443 4.91406 21.1524ZM21.6133 6.67969C29.5937 6.67969 36.086 13.172 36.086 21.1524C36.086 29.1328 29.5937 35.625 21.6133 35.625C13.6329 35.625 7.14063 29.1328 7.14063 21.1524C7.14063 13.172 13.6329 6.67969 21.6133 6.67969Z" fill="#020202"/>
<path d="M11.3008 19.1676L15.616 23.4194L14.6232 29.395C14.5541 29.8112 14.7258 30.2304 15.0672 30.4783C15.4082 30.7262 15.86 30.7597 16.2344 30.5657L21.6108 27.7738L26.9867 30.5657C27.3581 30.7584 27.81 30.7284 28.1539 30.4783C28.4953 30.2304 28.6671 29.8112 28.5979 29.395L27.6051 23.4194L31.9204 19.1676C32.2209 18.8719 32.3283 18.4318 32.1979 18.0304C32.0674 17.6295 31.7217 17.3368 31.3046 17.2737L25.3159 16.3722L22.6062 10.9532C22.4179 10.5762 22.0322 10.3379 21.6108 10.3379C21.189 10.3379 20.8037 10.5762 20.6149 10.9532L17.9052 16.3722L11.9165 17.2737C11.4995 17.3364 11.1538 17.6295 11.0233 18.0304C10.8928 18.4318 11.0007 18.8719 11.3008 19.1676ZM18.8085 18.4879C19.1668 18.434 19.4764 18.2091 19.6386 17.8852L21.6108 13.9404L23.583 17.8852C23.7452 18.2091 24.0548 18.434 24.4131 18.4879L28.7719 19.1441L25.6308 22.2383C25.3729 22.4927 25.2546 22.8567 25.3138 23.2141L26.0365 27.5633L22.1235 25.5316C21.963 25.4481 21.7869 25.4063 21.6108 25.4063C21.4347 25.4063 21.2585 25.4481 21.0976 25.5316L17.1846 27.5633L17.9074 23.2141C17.967 22.8567 17.8487 22.4927 17.5904 22.2383L14.4497 19.1441L18.8085 18.4879Z" fill="#020202"/>
<path d="M22.7266 1.11328C22.7266 1.7282 22.2282 2.22657 21.6133 2.22657C20.9984 2.22657 20.5 1.7282 20.5 1.11328C20.5 0.498368 20.9984 0 21.6133 0C22.2282 0 22.7266 0.498368 22.7266 1.11328Z" fill="#020202"/>
<path d="M16.3665 0.656249C7.00147 3.04676 0.460938 11.4751 0.460938 21.1524C0.460938 27.1628 2.988 32.8262 7.42417 36.8371L0.71708 48.6574C0.501381 49.038 0.528343 49.5094 0.78579 49.8625C1.04324 50.216 1.48333 50.3861 1.91168 50.2969L9.52854 48.7153L12.2056 56.2591C12.3509 56.6696 12.7227 56.9571 13.1567 56.9958C13.5907 57.0345 14.0069 56.8157 14.2222 56.4369L21.6133 43.4428L29.004 56.4369C29.2032 56.787 29.5737 56.9997 29.9712 56.9997C30.0038 56.9997 30.0369 56.9984 30.0695 56.9958C30.5035 56.9571 30.8753 56.6692 31.021 56.2591L33.6977 48.7153L41.3145 50.2969C41.7424 50.3856 42.183 50.2156 42.4404 49.8625C42.6983 49.5094 42.7248 49.038 42.5091 48.6574L35.802 36.8371C40.2382 32.8262 42.7653 27.1628 42.7653 21.1524C42.7653 11.4751 36.2247 3.04676 26.8601 0.656249C26.2639 0.504043 25.6581 0.863685 25.5059 1.45947C25.3537 2.05525 25.7133 2.66146 26.3091 2.81367C34.6874 4.95239 40.5391 12.4936 40.5391 21.1524C40.5391 31.6908 31.9803 40.0782 21.6133 40.0782C11.2389 40.0782 2.6875 31.6838 2.6875 21.1524C2.6875 12.4936 8.53876 4.95239 16.9171 2.81367C17.5129 2.66146 17.8725 2.05525 17.7207 1.45947C17.5685 0.863685 16.9627 0.504043 16.3665 0.656249ZM13.4903 53.221L11.3024 47.0558C11.1163 46.5313 10.5718 46.2247 10.0269 46.3378L3.86776 47.6168L9.17586 38.2617C12.2709 40.5118 15.9356 41.8825 19.7464 42.2217L13.4903 53.221ZM33.1993 46.3378C32.6548 46.2247 32.1099 46.5313 31.9238 47.0558L29.7364 53.221L23.4798 42.2217C27.2911 41.8825 30.9553 40.5118 34.0508 38.2617L39.3589 47.6168L33.1993 46.3378Z" fill="#020202"/>
</svg>
