<svg width="16" height="16" viewBox="0 0 16 16" fill="none" xmlns="http://www.w3.org/2000/svg">
<path d="M3.06587 6.85609C3.26354 6.94075 3.45754 7.02442 3.66387 7.09575M4.14321 13.2411C3.43654 12.3831 3.55521 11.0844 2.68754 10.3274C2.30154 9.89109 2.35921 9.26342 2.46421 8.73342C2.52288 7.85875 1.74354 7.16409 1.71288 6.27742M6.25121 1.81775C6.18854 2.95609 4.69887 2.26442 4.47254 3.27742C4.75521 3.57342 5.13454 3.28309 5.37388 3.15475C6.58454 3.19809 6.00387 4.30209 5.13221 4.39109C4.54987 4.69942 3.82487 5.01275 3.51454 5.65275C3.31154 5.81975 3.34487 6.20109 2.96787 6.17675C2.82221 5.97009 2.86521 5.20475 2.49754 5.58342C1.68121 6.14542 2.64754 6.99075 2.66887 7.74242C4.07087 7.61575 4.76221 8.88842 5.77021 9.61342C6.30821 10.0454 7.40887 10.4591 6.56521 11.1954C6.12121 12.1084 4.82521 12.8561 5.34354 13.9538C5.33821 14.0038 5.40821 13.9941 5.38454 14.0511M14.1582 10.0551C13.4842 10.0051 13.3469 11.0968 13.4835 11.5831M8.43887 3.97809C8.49421 3.96475 8.55321 3.95209 8.59921 3.91675C8.68388 3.86575 8.67054 3.72342 8.66154 3.63342C8.62154 3.56475 8.58821 3.44409 8.50854 3.39542M14.0429 5.47442C13.7579 5.55409 13.0245 5.15775 13.3215 5.61375C13.3692 5.92275 13.6349 5.99509 13.7835 6.10009C13.8945 6.32309 13.9689 6.88709 13.6642 7.00109C13.4705 7.00809 12.4545 5.97342 12.7365 6.58109C12.7912 6.97542 13.0889 7.28975 13.3292 7.53775C13.4552 7.88775 14.0082 7.70409 14.0292 7.97242C13.8219 8.64842 13.3812 9.12475 13.1059 9.76309C13.1545 10.4801 13.1292 11.1998 12.7039 11.8098C10.7669 13.9398 10.2972 11.6578 10.9719 9.84909C11.2179 7.69342 8.97321 9.51342 8.21187 8.43142C7.52521 7.70742 8.12587 6.38575 8.82787 5.87075C9.08787 5.58642 9.53821 5.57442 9.89121 5.69242C10.6019 5.80775 11.6132 5.75242 12.2345 5.38942C12.1932 5.17042 11.8279 4.93809 11.5792 4.91542C11.5382 4.68575 12.1202 4.60542 11.7375 4.41175C11.3032 4.37409 11.3039 5.21042 10.8985 4.77075C10.8035 4.48109 10.1712 4.48209 10.5432 4.79175C10.5599 5.12709 10.5889 5.34909 10.3749 4.98842C9.80654 4.68509 9.27221 5.34842 8.75354 5.42775C8.25287 4.84775 9.50021 3.64209 10.0409 3.45642C10.3922 3.15875 9.54487 2.69542 9.74754 3.23975C9.60654 3.59342 8.85354 3.34575 9.19687 2.99975C9.28954 2.66542 9.55021 2.43542 9.83154 2.33409C10.1822 2.36975 10.3309 2.35242 10.3345 1.96475M7.01454 1.74275C6.98587 1.97109 7.10621 2.18809 7.08121 2.41642C7.08121 2.61909 6.57587 2.98142 6.87387 3.07509C7.18487 3.18009 7.41388 3.05909 7.60054 2.81275C7.93954 2.55175 8.24388 2.28342 8.18954 1.80275C8.14588 1.78709 8.08221 1.77509 8.09354 1.74675C7.77021 1.49475 7.37087 1.60475 7.01454 1.74275ZM14.5785 8.00009C14.5785 11.6334 11.6335 14.5784 8.00021 14.5784C4.36688 14.5784 1.42188 11.6334 1.42188 8.00009C1.42188 4.36675 4.36688 1.42175 8.00021 1.42175C11.6335 1.42175 14.5785 4.36675 14.5785 8.00009Z" stroke="black" stroke-width="0.5" stroke-linecap="round" stroke-linejoin="round"/>
</svg>
