<svg width="16" height="16" viewBox="0 0 16 16" fill="none" xmlns="http://www.w3.org/2000/svg">
<g clip-path="url(#clip0_419_7263)">
<path d="M10.2168 2.05676L7.17819 4.0072L7.48619 4.17586L10.1896 2.44054L14.7751 5.03792L12.1449 6.72614L12.2731 6.79626V7.01026L14.3332 5.68789L14.7655 5.93283L12.273 7.53267V7.89901L14.2928 6.60254L14.7655 6.87036L12.273 8.4702V8.83654L14.2928 7.54008L14.7655 7.80789L12.273 9.40773V9.77407L15.3991 7.76751L14.6232 7.32808L15.399 6.83004L14.6232 6.39054L15.399 5.89251L14.6635 5.47586L15.4085 4.99758L10.2168 2.05676ZM11.1877 3.45489C10.5303 3.78476 9.65456 3.84058 9.038 3.59186L7.83269 4.36551L11.7984 6.53645L12.9416 5.8027C12.4913 5.4472 12.5288 4.91676 13.0335 4.50051L11.1877 3.45489ZM7.10675 4.60939L4.89775 6.04982L9.13556 8.48939L9.17713 8.46282C9.25525 8.41251 9.36556 8.34126 9.49719 8.25617C9.76031 8.08607 10.1085 7.86054 10.4558 7.63554C10.9558 7.31148 11.2135 7.14429 11.4531 6.98886L7.10675 4.60939ZM10.7151 4.64595H10.7152C10.8151 4.64656 10.9068 4.66798 10.9752 4.70673C11.015 4.72928 11.0459 4.7571 11.0661 4.78859C11.0863 4.82009 11.0954 4.85464 11.0928 4.89028C11.0903 4.92593 11.0762 4.96196 11.0514 4.99632C11.0265 5.03068 10.9914 5.0627 10.948 5.09054C10.9046 5.11839 10.8538 5.14152 10.7985 5.15862C10.7432 5.17572 10.6844 5.18644 10.6256 5.19019C10.5668 5.19393 10.509 5.19062 10.4556 5.18044C10.4022 5.17026 10.3543 5.15341 10.3145 5.13086C10.2341 5.08531 10.1918 5.0193 10.1969 4.94733C10.202 4.87536 10.254 4.80334 10.3417 4.74711C10.3914 4.71516 10.4508 4.68947 10.5155 4.67196C10.5802 4.65444 10.6484 4.64555 10.7151 4.64595ZM3.88938 6.11829L0.595469 8.23251L1.331 8.64917L0.585938 9.12745L1.36181 9.56692L0.585938 10.065L1.36181 10.5044L0.585938 11.0025L5.77766 13.9433L8.91216 11.9313V11.565L5.80488 13.5595L1.21944 10.9621L1.66491 10.6762L5.77766 13.0058L8.91216 10.9938V10.6275L5.80488 12.622L1.21944 10.0246L1.66491 9.73867L5.77766 12.0683L8.91216 10.0563V9.69001L5.80488 11.6845L1.21944 9.08711L1.63413 8.82086L5.78725 11.1734L8.91216 9.16748V9.00967L8.74091 8.91111L5.81434 10.7895L1.22903 8.19217L4.19028 6.29142L3.88934 6.1182L3.88938 6.11829ZM4.52875 6.48642L3.0625 7.42751C3.51281 7.78295 3.47531 8.31339 2.97056 8.7297L4.81644 9.77532C5.47384 9.44542 6.34947 9.38964 6.96603 9.63832L8.40244 8.71632L4.52869 6.48639L4.52875 6.48642ZM11.7105 7.49236C11.4592 7.65539 11.2375 7.79929 10.7617 8.10761C10.4421 8.31478 10.1224 8.52179 9.80263 8.72864C9.67084 8.81379 9.56028 8.8852 9.48144 8.93589C9.47863 8.93776 9.47747 8.93839 9.47472 8.94017V11.6253L11.7106 10.1225L11.7105 7.49236ZM5.42959 8.03861C5.52955 8.03923 5.62118 8.06068 5.68959 8.09945C5.76999 8.14499 5.8123 8.21101 5.8072 8.28298C5.8021 8.35494 5.75002 8.42697 5.66241 8.4832C5.5748 8.53942 5.45885 8.57525 5.34006 8.58281C5.22127 8.59037 5.10937 8.56904 5.02897 8.52351C4.94857 8.47797 4.90627 8.41195 4.91137 8.33999C4.91646 8.26802 4.96855 8.196 5.05616 8.13976C5.10591 8.10782 5.16534 8.08214 5.23 8.06463C5.29467 8.04712 5.3629 8.03823 5.42959 8.03864V8.03861Z" fill="black"/>
<line x1="0.156174" y1="1.80478" x2="15.1562" y2="13.8048" stroke="black" stroke-width="0.5"/>
<line y1="-0.25" x2="19.2094" y2="-0.25" transform="matrix(-0.780869 0.624695 0.624695 0.780869 15 2)" stroke="black" stroke-width="0.5"/>
</g>
<defs>
<clipPath id="clip0_419_7263">
<rect width="16" height="16" fill="white"/>
</clipPath>
</defs>
</svg>
