<svg width="57" height="57" viewBox="0 0 57 57" fill="none" xmlns="http://www.w3.org/2000/svg">
<path d="M14.7891 44.9555H26.1445V46.6254H14.7891V44.9555Z" fill="black"/>
<path d="M57 22.1521H41.7926V5.151C41.7926 2.40343 39.6448 0.142241 36.9029 0.0031922L36.8819 0.00207892H5.37826L5.37815 0.00553009C2.43029 -0.12105 0 2.24222 0 5.15446V9.46965H1.66992V5.15446C1.66992 3.23304 3.23308 1.66977 5.1546 1.66977C7.07613 1.66977 8.6394 3.23304 8.6394 5.15446V15.7409H1.66992V11.1395H0V17.4108H8.64129V39.5888H0V51.8451C0 54.7583 2.43118 57.1206 5.37815 56.9941L5.37826 56.9975H36.8607V56.997H57V22.1521ZM1.66992 51.8453V41.2588H8.6394V51.8453C8.6394 53.7668 7.07613 55.3299 5.1546 55.3299C3.23308 55.3299 1.66992 53.7667 1.66992 51.8453ZM10.3112 51.8487C10.3112 50.6265 10.3092 6.81759 10.3092 5.67915H10.3112C10.3112 4.05654 10.066 2.88169 8.95946 1.672H36.8383C38.6816 1.77598 40.1227 3.30017 40.1227 5.151V22.1521H31.5851V28.8549H14.7887V30.5248H31.5851V34.2218H14.7887V35.8917H31.5851V39.5887H14.7887V41.2586H31.5851V44.9556H27.8141V46.6255H31.5851V55.3278H8.96236C9.80188 54.4092 10.3112 53.1868 10.3112 51.8487ZM55.3301 55.3272H33.255V23.8221H55.3301V55.3272Z" fill="black"/>
<path d="M46.5597 32.9107H36.6621V27.4997H51.925V32.9107H48.2297V34.5806H53.5949V25.8298H34.9922V34.5806H46.5597V32.9107Z" fill="black"/>
<path d="M35.9297 44.2184H42.6546V37.6562H35.9297V44.2184ZM37.5996 39.3262H40.9846V42.5486H37.5996V39.3262Z" fill="black"/>
<path d="M45.9297 44.2184H52.6547V37.6562H45.9297V44.2184ZM47.5996 39.3262H50.9848V42.5486H47.5996V39.3262Z" fill="black"/>
<path d="M35.9297 53.2204H42.6546V46.6581H35.9297V53.2204ZM37.5996 48.3281H40.9846V51.5505H37.5996V48.3281Z" fill="black"/>
<path d="M45.9297 53.2204H52.6547V46.6581H45.9297V53.2204ZM47.5996 48.3281H50.9848V51.5505H47.5996V48.3281Z" fill="black"/>
<path d="M25.129 21.5488C23.2724 21.5621 23.0436 21.3576 21.4142 20.2915L20.5 21.689C21.8693 22.5849 22.6141 23.1265 24.2996 23.2055V25.1418H25.9696V23.1428C30.0275 22.4178 31.2138 16.5225 26.8579 14.9828C25.5908 14.535 24.185 13.9904 23.3645 13.3469C22.964 13.0328 22.7922 12.429 22.9164 11.771C23.3227 9.61283 26.1483 9.66359 27.2703 10.6544L28.2177 11.5281L29.3498 10.3005C28.5399 9.55349 27.7348 8.6033 25.9696 8.36996V6.54974H24.2996V8.43397C22.5695 8.78955 21.55 10.0038 21.2753 11.4614C21.0355 12.7344 21.4411 13.9602 22.334 14.6606C23.1485 15.2994 24.2981 15.8489 26.3014 16.557C29.1378 17.5598 28.0091 21.5296 25.129 21.5488Z" fill="black"/>
</svg>
