<svg width="64" height="64" viewBox="0 0 64 64" fill="none" xmlns="http://www.w3.org/2000/svg">
<g clip-path="url(#clip0_654_3395)">
<path d="M56.0998 20.9195H51.4864V11.8409C51.4864 10.2862 50.8682 8.83725 49.8564 7.77787L46.8754 4.65863C44.3457 2.05213 44.0264 1.31575 42.5197 0.584375C41.8197 0.235 40.8973 0 39.9673 0H18.1933C14.9497 0 12.3118 2.63912 12.3118 5.8815V37.5988H11.0714C9.20017 37.5988 7.6783 39.1206 7.6783 40.9919C7.6783 41.9231 8.0553 42.7664 8.66355 43.3796C8.0553 43.9929 7.6783 44.8361 7.6783 45.7674C7.6783 46.1168 7.7273 46.3241 7.74492 46.4385C0.381674 47.1875 -2.55158 56.3013 2.8373 61.2477C4.4648 62.742 6.62505 63.589 8.96755 63.4935C9.74167 63.4935 25.6794 63.4873 25.6995 63.4873C27.5695 63.4873 29.0927 61.9654 29.0927 60.0941C29.0927 59.1629 28.7157 58.3196 28.1074 57.7064C28.6793 57.1295 29.0462 56.3516 29.0877 55.487H30.3608V56.1669C30.3608 60.4862 33.8745 64 38.1939 64H56.0998C60.4192 64 63.9329 60.4862 63.9329 56.1669V28.7526C63.9331 24.4333 60.4192 20.9195 56.0998 20.9195ZM48.0958 8.84737C48.0958 8.84737 48.097 8.84738 48.0983 8.84988C48.0996 8.84988 48.0995 8.84988 48.0995 8.84988C48.1008 8.85238 48.1033 8.85487 48.1045 8.85612L48.1058 8.85738C48.1083 8.86112 48.1108 8.86362 48.1133 8.86487C48.1146 8.86613 48.1158 8.86738 48.1171 8.86987C48.1183 8.87113 48.1195 8.87112 48.1195 8.87237C48.1208 8.87362 48.122 8.87363 48.1233 8.87613C48.1258 8.87738 48.127 8.87988 48.1283 8.88113H43.09V3.55525C47.0389 7.72888 47.9287 8.67013 48.0958 8.84737ZM11.0714 39.6095H25.6997C26.4613 39.6095 27.0821 40.2304 27.0821 40.9919C27.0821 41.7547 26.4612 42.3742 25.6997 42.3742H11.0714C10.3098 42.3742 9.68905 41.7547 9.68905 40.9919C9.68892 40.2303 10.3098 39.6095 11.0714 39.6095ZM11.0714 44.385H25.6997C26.4613 44.385 27.0821 45.0059 27.0821 45.7674C27.0821 46.5303 26.4612 47.1497 25.6997 47.1497H15.5955C15.1845 46.9613 14.7585 46.8079 14.3224 46.6898C13.6714 46.5125 12.9978 46.412 12.3117 46.3944C12.1144 46.3894 11.9171 46.3906 11.7198 46.3994H9.84355C9.7443 46.2096 9.68892 45.9948 9.68892 45.7673C9.68892 45.0059 10.3098 44.385 11.0714 44.385ZM27.0821 50.543C27.0821 51.3059 26.4612 51.9254 25.6997 51.9254H20.0733C19.6913 50.9086 19.1157 49.9724 18.3667 49.1606H25.6997C26.4612 49.1606 27.0821 49.7814 27.0821 50.543ZM6.18017 48.7384C5.56817 49.319 5.02392 50.0089 4.59667 50.7692H3.42542C4.1908 49.8204 5.14217 49.1455 6.18017 48.7384ZM2.35592 52.6543H3.82005C3.78742 52.795 3.62142 53.3366 3.54605 54.1611H1.99905C2.05942 53.6434 2.1788 53.1381 2.35592 52.6543ZM2.51805 57.6372C2.29567 57.132 2.13605 56.598 2.04555 56.0462H3.5813C3.85655 57.6071 3.87155 57.3381 3.94067 57.6372H2.51805ZM3.7723 59.5223C4.3893 59.521 4.74755 59.5247 4.83167 59.5197C5.20742 60.1129 5.6598 60.6621 6.18392 61.156C5.2728 60.7979 4.4623 60.2513 3.7723 59.5223ZM12.3507 61.6097C8.6723 61.7681 5.55805 58.9191 5.40217 55.2319C5.14955 49.3618 12.1608 45.9811 16.5757 50.034C20.9279 54.0291 18.2787 61.3659 12.3507 61.6097ZM25.6997 61.4765H17.5851C18.4836 60.7161 19.2213 59.7749 19.7453 58.7118H25.6997C26.4613 58.7118 27.0821 59.3326 27.0821 60.0941C27.0821 60.8569 26.4612 61.4765 25.6997 61.4765ZM27.0708 55.487C26.9878 56.1706 26.4047 56.701 25.6997 56.701H20.439C20.6213 55.8289 20.6728 54.8887 20.5609 53.9362H25.6997C26.5467 53.9361 27.1788 54.694 27.0708 55.487ZM30.3608 53.4761H28.546C28.4192 53.2789 28.272 53.0966 28.1074 52.9308C29.4207 51.6061 29.4219 49.4798 28.1074 48.1553C28.7157 47.542 29.0927 46.6988 29.0927 45.7675C29.0927 44.8363 28.7157 43.993 28.1074 43.3797C30.2212 41.2484 28.7107 37.5989 25.6995 37.5989H14.3224V5.8815C14.3224 3.74762 16.0592 2.01075 18.1932 2.01075H41.0794V9.88663C41.0794 10.4421 41.5293 10.892 42.0848 10.892H49.3562C49.566 11.7064 49.4365 11.4374 49.4755 20.9194H38.1939C33.8745 20.9194 30.3608 24.4331 30.3608 28.7525V53.4761ZM62.0479 56.1669C62.0479 59.4469 59.3799 62.115 56.0998 62.115H38.194C34.9153 62.115 32.2459 59.447 32.2459 56.1669V28.7526C32.2459 25.4726 34.9152 22.8045 38.194 22.8045H56.0999C59.3799 22.8045 62.048 25.4725 62.048 28.7526V56.1669H62.0479Z" fill="#C7183A"/>
<path d="M56.0308 24.9421H38.2581C36.5105 24.9421 35.0938 26.3589 35.0938 28.1065V31.5563C35.0938 33.3039 36.5105 34.7206 38.2581 34.7206H41.6776C42.1981 34.7206 42.6201 34.2986 42.6201 33.7781C42.6201 33.2576 42.1981 32.8356 41.6776 32.8356H38.2581C37.5545 32.8356 36.9788 32.2599 36.9788 31.5563V28.1065C36.9788 27.4029 37.5545 26.8271 38.2581 26.8271H56.0308C56.737 26.8271 57.3101 27.4015 57.3101 28.1065V31.5563C57.3101 32.2613 56.737 32.8356 56.0308 32.8356H45.742C45.2215 32.8356 44.7995 33.2576 44.7995 33.7781C44.7995 34.2986 45.2215 34.7206 45.742 34.7206H56.0308C57.7764 34.7206 59.1951 33.3005 59.1951 31.5563V28.1065C59.1951 26.3623 57.7763 24.9421 56.0308 24.9421Z" fill="#C7183A"/>
<path d="M40.2878 44.8035H37.0667C35.9796 44.8035 35.0938 45.6882 35.0938 46.7765V49.9962C35.0938 51.0846 35.9797 51.9692 37.0667 51.9692H40.2878C41.3761 51.9692 42.2607 51.0845 42.2607 49.9962V46.7765C42.2607 45.6882 41.376 44.8035 40.2878 44.8035ZM40.3756 49.9962C40.3756 50.0452 40.3354 50.0842 40.2876 50.0842H37.0666C37.0189 50.0842 36.9786 50.0452 36.9786 49.9962V46.7765C36.9786 46.7275 37.0189 46.6885 37.0666 46.6885H40.2876C40.3354 46.6885 40.3756 46.7275 40.3756 46.7765V49.9962Z" fill="#C7183A"/>
<path d="M57.3256 36.3835H54.1058C53.0174 36.3835 52.1328 37.2683 52.1328 38.3565V41.5763C52.1328 42.6647 53.0176 43.5493 54.1058 43.5493H57.3256C58.4139 43.5493 59.2986 42.6645 59.2986 41.5763V38.3565C59.2986 37.2683 58.4138 36.3835 57.3256 36.3835ZM57.4136 41.5763C57.4136 41.6253 57.3746 41.6643 57.3256 41.6643H54.1058C54.0581 41.6643 54.0178 41.6253 54.0178 41.5763C54.0568 38.3905 53.9361 38.2685 54.1058 38.2685H57.3256C57.3746 38.2685 57.4136 38.3075 57.4136 38.3565V41.5763Z" fill="#C7183A"/>
<path d="M40.2878 36.3835H37.0667C35.9796 36.3835 35.0938 37.2683 35.0938 38.3565V41.5763C35.0938 42.6647 35.9797 43.5493 37.0667 43.5493H40.2878C41.3761 43.5493 42.2607 42.6645 42.2607 41.5763V38.3565C42.2607 37.2683 41.376 36.3835 40.2878 36.3835ZM40.3756 41.5763C40.3756 41.6253 40.3354 41.6643 40.2876 41.6643H37.0666C37.0189 41.6643 36.9786 41.6253 36.9786 41.5763V38.3565C36.9786 38.3075 37.0189 38.2685 37.0666 38.2685H40.2876C40.3354 38.2685 40.3756 38.3075 40.3756 38.3565V41.5763Z" fill="#C7183A"/>
<path d="M41.7677 53.476C41.4057 53.0689 40.878 52.8113 40.2911 52.8113H37.0701C36.4832 52.8113 35.9554 53.0689 35.5947 53.476C34.9099 54.2439 35.1424 55.0809 35.0971 55.4868V58.004C35.0971 59.0924 35.9831 59.977 37.0701 59.977H40.2911C41.3795 59.977 42.2641 59.0923 42.2641 58.004V55.4868C42.2189 55.0898 42.4489 54.2439 41.7677 53.476ZM40.2911 58.092C37.1091 58.053 36.9821 58.1738 36.9821 58.004C36.9821 54.5945 36.9444 54.6963 37.0701 54.6963H40.2911C40.4457 54.6963 40.3502 54.9112 40.3791 55.4868C40.3791 55.4868 40.4607 58.092 40.2911 58.092Z" fill="#C7183A"/>
<path d="M56.8254 44.8035H54.6061C53.2426 44.8035 52.1328 45.9132 52.1328 47.2767V57.2765C52.1328 58.7657 53.3443 59.9772 54.8323 59.9772H56.5993C58.0886 59.9772 59.2988 58.7657 59.2988 57.2765V47.2767C59.2987 45.9132 58.1903 44.8035 56.8254 44.8035ZM56.5993 58.0921H54.8323C54.3837 58.0921 54.0179 57.7263 54.0179 57.2765V47.2767C54.0179 46.9525 54.2818 46.6886 54.6061 46.6886H56.8254C57.1497 46.6886 57.4136 46.9525 57.4136 47.2767V57.2765C57.4137 57.7263 57.0492 58.0921 56.5993 58.0921Z" fill="#C7183A"/>
<path d="M24.3284 27.3784C23.1792 26.9561 22.3489 26.6511 22.3489 25.5864C22.3489 24.616 22.9934 24.124 24.2643 24.124C25.6134 24.124 25.9767 24.7179 26.4519 24.7179C26.9692 24.7179 27.2553 24.169 27.2553 23.7894C27.2553 23.0041 25.9744 22.6148 24.8294 22.512V21.804C24.8294 21.3115 24.4288 20.9109 23.9363 20.9109C23.4438 20.9109 23.0432 21.3115 23.0432 21.804V22.6249C21.4776 22.9966 20.6173 24.078 20.6173 25.6803C20.6173 27.874 22.2323 28.4809 23.5303 28.9688C24.8011 29.4463 25.8049 29.8235 25.8049 31.2744C25.8049 32.4728 25.1396 33.0804 23.8269 33.0804C21.9059 33.0804 21.8879 31.7834 21.1552 31.7834C20.7014 31.7834 20.3359 32.2914 20.3359 32.7119C20.3359 33.4546 21.4421 34.4309 23.0432 34.6843V35.3684C23.0432 35.8609 23.4438 36.2615 23.9363 36.2615C24.4288 36.2615 24.8294 35.8609 24.8294 35.3684V34.6659C26.5517 34.3418 27.5367 33.0771 27.5367 31.1805C27.5366 28.5571 25.7578 27.9036 24.3284 27.3784Z" fill="#C7183A"/>
<path d="M50.127 53.3643C49.7726 53.0224 49.29 52.8113 48.7596 52.8113H45.5386C44.9517 52.8113 44.4239 53.0689 44.062 53.476C43.3796 54.2452 43.6109 55.0809 43.5656 55.4868V58.004C43.5656 59.0924 44.4504 59.977 45.5386 59.977H48.7596C49.8467 59.977 50.7314 59.0923 50.7314 58.004V54.783C50.7314 54.2264 50.4989 53.7224 50.127 53.3643ZM48.7596 58.092C45.5776 58.053 45.4506 58.1738 45.4506 58.004V54.783C45.4506 54.7353 45.4909 54.6963 45.5386 54.6963H48.7596C48.8074 54.6963 48.8464 54.7353 48.8464 54.783C48.8086 57.9727 48.9267 58.092 48.7596 58.092Z" fill="#C7183A"/>
<path d="M48.7564 36.3835H45.5354C44.447 36.3835 43.5624 37.2683 43.5624 38.3565V41.5763C43.5624 42.6647 44.4471 43.5493 45.5354 43.5493H48.7564C49.0103 43.5493 49.2515 43.5015 49.474 43.4135C50.2079 43.1258 50.7283 42.4107 50.7283 41.5762V38.3564C50.7281 37.2644 49.8384 36.3835 48.7564 36.3835ZM48.7564 41.6643H45.5354C45.4876 41.6643 45.4474 41.6253 45.4474 41.5763V38.3565C45.4474 38.1869 45.5643 38.3063 48.7564 38.2685C48.8041 38.2685 48.8431 38.3075 48.8431 38.3565V41.5763C48.8431 41.6253 48.8041 41.6643 48.7564 41.6643Z" fill="#C7183A"/>
<path d="M49.474 44.9392C49.2516 44.8512 49.0103 44.8035 48.7564 44.8035H45.5354C44.447 44.8035 43.5624 45.6882 43.5624 46.7765V49.9962C43.5624 51.0846 44.4471 51.9692 45.5354 51.9692H48.7564C49.8435 51.9692 50.7281 51.0845 50.7281 49.9962V46.7765C50.7281 45.9421 50.2079 45.227 49.474 44.9392ZM48.8431 49.9962C48.8431 50.0452 48.8041 50.0842 48.7564 50.0842H45.5354C45.4876 50.0842 45.4474 50.0452 45.4474 49.9962V46.7765C45.4474 46.7275 45.4876 46.6885 45.5354 46.6885H48.7564C48.8041 46.6885 48.8431 46.7275 48.8431 46.7765V49.9962Z" fill="#C7183A"/>
<path d="M43.3179 12.8801H40.9503C40.4301 12.8801 40.0078 13.3024 40.0078 13.8226C40.0078 14.3441 40.4301 14.7651 40.9503 14.7651H43.3179C43.8382 14.7651 44.2604 14.3441 44.2604 13.8226C44.2606 13.3024 43.8382 12.8801 43.3179 12.8801Z" fill="#C7183A"/>
<path d="M37.1803 12.8801H20.4659C19.9457 12.8801 19.5234 13.3024 19.5234 13.8226C19.5234 14.3441 19.9457 14.7651 20.4659 14.7651H37.1804C37.7007 14.7651 38.1229 14.3441 38.1229 13.8226C38.1229 13.3024 37.7007 12.8801 37.1803 12.8801Z" fill="#C7183A"/>
<path d="M23.4619 17.5591H20.4659C19.9457 17.5591 19.5234 17.9813 19.5234 18.5016C19.5234 19.0218 19.9457 19.4441 20.4659 19.4441H23.4619C23.9822 19.4441 24.4044 19.0218 24.4044 18.5016C24.4044 17.9813 23.9822 17.5591 23.4619 17.5591Z" fill="#C7183A"/>
<path d="M43.3177 17.5591H27.2316C26.7113 17.5591 26.2891 17.9813 26.2891 18.5016C26.2891 19.0218 26.7113 19.4441 27.2316 19.4441H43.3177C43.8379 19.4441 44.2602 19.0218 44.2602 18.5016C44.2603 17.9813 43.8379 17.5591 43.3177 17.5591Z" fill="#C7183A"/>
<path d="M11.5309 53.145C11.5309 52.9081 11.6181 52.8401 11.6997 52.7948C11.953 52.6547 12.534 52.6135 13.0662 52.8872C13.2076 52.9598 13.3679 53.0422 13.5764 53.0422C14.506 53.0422 15.2413 51.3148 13.0206 50.933V50.8736C13.0206 50.347 12.5921 49.9185 12.0655 49.9185C11.5389 49.9185 11.1104 50.347 11.1104 50.8736V51.0548C10.1799 51.3923 9.6535 52.1597 9.6535 53.2013C9.6535 54.8088 10.8214 55.2477 11.6744 55.5681C12.4877 55.8737 12.769 56.0075 12.769 56.5607C12.769 56.9066 12.6759 57.2267 11.9998 57.2267C11.0145 57.2267 11.1325 56.448 10.3951 56.448C9.874 56.448 9.48438 56.9633 9.48438 57.4242C9.48438 58.0772 10.1634 58.697 11.1104 58.9482V59.0197C11.1104 59.5463 11.5389 59.9748 12.0655 59.9748C12.5921 59.9748 13.0206 59.5465 13.0206 59.0197V58.9232C14.0454 58.5938 14.6465 57.7115 14.6465 56.5045C14.6465 53.6403 11.5309 54.0705 11.5309 53.145Z" fill="#C7183A"/>
</g>
<defs>
<clipPath id="clip0_654_3395">
<rect width="64" height="64" fill="white"/>
</clipPath>
</defs>
</svg>
