<svg width="40" height="40" viewBox="0 0 40 40" fill="none" xmlns="http://www.w3.org/2000/svg">
<path d="M17.899 33.2917H21.326V30.8437C22.958 30.55 24.3615 29.9135 25.5365 28.9344C26.7115 27.9552 27.299 26.5028 27.299 24.5771C27.299 23.2062 26.9073 21.9497 26.124 20.8073C25.3406 19.6649 23.774 18.6694 21.424 17.8208C19.4656 17.1681 18.1111 16.5969 17.3604 16.1073C16.6097 15.6177 16.2344 14.9486 16.2344 14.1C16.2344 13.2514 16.5363 12.5823 17.1401 12.0927C17.7439 11.6031 18.617 11.3583 19.7594 11.3583C20.8038 11.3583 21.6198 11.6113 22.2073 12.1172C22.7948 12.6231 23.2191 13.2514 23.4802 14.0021L26.6135 12.7292C26.2545 11.5868 25.5936 10.5913 24.6307 9.74271C23.6679 8.8941 22.599 8.42083 21.424 8.32292V5.875H17.9969V8.32292C16.3649 8.68194 15.092 9.4 14.1781 10.4771C13.2642 11.5542 12.8073 12.7618 12.8073 14.1C12.8073 15.634 13.2561 16.8743 14.1536 17.8208C15.0512 18.7674 16.4628 19.5833 18.3885 20.2687C20.4448 21.0194 21.8727 21.6885 22.6724 22.276C23.472 22.8635 23.8719 23.6306 23.8719 24.5771C23.8719 25.6542 23.4884 26.4457 22.7214 26.9516C21.9543 27.4575 21.0323 27.7104 19.9552 27.7104C18.8781 27.7104 17.9234 27.3759 17.0911 26.7068C16.2589 26.0377 15.6469 25.034 15.2552 23.6958L12.024 24.9687C12.4809 26.5354 13.1908 27.8002 14.1536 28.763C15.1165 29.7259 16.3649 30.3868 17.899 30.7458V33.2917ZM19.6615 39.1667C16.9524 39.1667 14.4066 38.6526 12.024 37.6245C9.64132 36.5964 7.56875 35.201 5.80625 33.4385C4.04375 31.676 2.64844 29.6035 1.62031 27.2208C0.592187 24.8382 0.078125 22.2924 0.078125 19.5833C0.078125 16.8743 0.592187 14.3285 1.62031 11.9458C2.64844 9.56319 4.04375 7.49062 5.80625 5.72812C7.56875 3.96562 9.64132 2.57031 12.024 1.54219C14.4066 0.514062 16.9524 0 19.6615 0C22.3705 0 24.9163 0.514062 27.299 1.54219C29.6816 2.57031 31.7542 3.96562 33.5167 5.72812C35.2792 7.49062 36.6745 9.56319 37.7026 11.9458C38.7307 14.3285 39.2448 16.8743 39.2448 19.5833C39.2448 22.2924 38.7307 24.8382 37.7026 27.2208C36.6745 29.6035 35.2792 31.676 33.5167 33.4385C31.7542 35.201 29.6816 36.5964 27.299 37.6245C24.9163 38.6526 22.3705 39.1667 19.6615 39.1667ZM19.6615 35.25C24.0351 35.25 27.7396 33.7323 30.775 30.6969C33.8104 27.6615 35.3281 23.9569 35.3281 19.5833C35.3281 15.2097 33.8104 11.5052 30.775 8.46979C27.7396 5.43437 24.0351 3.91667 19.6615 3.91667C15.2878 3.91667 11.5833 5.43437 8.54792 8.46979C5.5125 11.5052 3.99479 15.2097 3.99479 19.5833C3.99479 23.9569 5.5125 27.6615 8.54792 30.6969C11.5833 33.7323 15.2878 35.25 19.6615 35.25Z" fill="#C7183A"/>
</svg>
