<svg width="64" height="64" viewBox="0 0 64 64" fill="none" xmlns="http://www.w3.org/2000/svg">
<path d="M17.3342 15.9987H29.3342C30.0702 15.9987 30.6675 15.4014 30.6675 14.6654C30.6675 13.9294 30.0702 13.332 29.3342 13.332H17.3342C16.5982 13.332 16.0009 13.9294 16.0009 14.6654C16.0009 15.4014 16.5982 15.9987 17.3342 15.9987ZM17.3342 23.9987H40.0542C40.7902 23.9987 41.3875 23.4014 41.3875 22.6654C41.3875 21.9294 40.7902 21.332 40.0542 21.332H17.3342C16.5982 21.332 16.0009 21.9294 16.0009 22.6654C16.0009 23.4014 16.5982 23.9987 17.3342 23.9987ZM17.3342 31.9987H36.3209C37.0569 31.9987 37.6542 31.4014 37.6542 30.6654C37.6542 29.9294 37.0569 29.332 36.3209 29.332H17.3342C16.5982 29.332 16.0009 29.9294 16.0009 30.6654C16.0009 31.4014 16.5982 31.9987 17.3342 31.9987ZM32.6009 37.332H17.3342C16.5982 37.332 16.0009 37.9294 16.0009 38.6654C16.0009 39.4014 16.5982 39.9987 17.3342 39.9987H32.6009C33.3369 39.9987 33.9342 39.4014 33.9342 38.6654C33.9342 37.9294 33.3369 37.332 32.6009 37.332ZM31.1475 49.332H28.7129L27.5582 47.6054C27.0675 46.8494 26.2355 46.3987 25.3342 46.3987C24.4329 46.3987 23.6009 46.8494 23.1182 47.5934L22.9675 47.8187L22.4769 46.592C22.0649 45.576 21.0929 44.92 20.0009 44.92C18.9089 44.92 17.9369 45.576 17.5222 46.5987L16.0955 50.172C15.8222 50.856 16.1555 51.632 16.8395 51.904C17.0022 51.968 17.1689 52 17.3329 52C17.8622 52 18.3635 51.6827 18.5715 51.16L20.0022 47.5867L20.9649 49.9934C21.2395 50.672 21.8622 51.1454 22.5902 51.2267C23.3249 51.312 24.0435 50.9827 24.4822 50.352L25.3315 49.0734L26.6942 51.1107C27.0662 51.6667 27.6875 51.9987 28.3569 51.9987H31.1475C31.8835 51.9987 32.4809 51.4014 32.4809 50.6654C32.4809 49.9294 31.8835 49.332 31.1475 49.332Z" fill="#C7183A"/>
<path d="M58.504 12.7933C58.26 12.124 57.7707 11.5893 57.1253 11.2893L54.7093 10.1627C54.064 9.86 53.34 9.82933 52.6693 10.0733C52 10.3173 51.4653 10.8067 51.1653 11.452L49.9853 13.9827C49.6707 13.312 49.2467 12.6933 48.7173 12.164L42.504 5.95067C41.264 4.71067 39.5453 4 37.788 4H14.6667C10.9907 4 8 6.99067 8 10.6667V53.3333C8 57.0093 10.9907 60 14.6667 60H44C47.676 60 50.6667 57.0093 50.6667 53.3333V31.4493L58.4147 14.8333C58.716 14.188 58.748 13.464 58.504 12.7933ZM53.5813 12.5787L55.9987 13.7053L54.872 16.1213L52.4547 14.9947L53.5813 12.5787ZM40.968 45.9387C40.7067 46.4987 40.312 46.9987 39.8293 47.3827L38.2333 48.6493L38.1773 46.6133C38.16 45.996 38.2893 45.3733 38.5507 44.8133L51.328 17.4133L53.7453 18.54L40.968 45.94V45.9387ZM46.1147 13.3333H41.3333V8.552L46.1147 13.3333ZM48 53.3333C48 55.5387 46.2053 57.3333 44 57.3333H14.6667C12.4613 57.3333 10.6667 55.5387 10.6667 53.3333V10.6667C10.6667 8.46133 12.4613 6.66667 14.6667 6.66667H37.7867C38.0853 6.66667 38.3787 6.70933 38.6667 6.77467V13.3333C38.6667 14.804 39.8627 16 41.3333 16H47.892C47.9573 16.288 48 16.5827 48 16.88V18.2373L36.1333 43.684C35.6987 44.6187 35.484 45.6547 35.512 46.684L35.604 50.0533C35.6253 50.816 36.0667 51.4893 36.7587 51.812C37.0307 51.9387 37.3187 52.0013 37.6053 52.0013C38.048 52.0013 38.484 51.8533 38.8467 51.5653L41.4867 49.4707C42.292 48.832 42.948 48 43.384 47.0653L48 37.168V53.3333Z" fill="#C7183A"/>
</svg>
