<svg width="32" height="40" viewBox="0 0 32 40" fill="none" xmlns="http://www.w3.org/2000/svg">
<path d="M7.83333 31.3333H23.5V27.4167H7.83333V31.3333ZM7.83333 23.5H23.5V19.5833H7.83333V23.5ZM3.91667 39.1667C2.83958 39.1667 1.91753 38.7832 1.15052 38.0161C0.383507 37.2491 0 36.3271 0 35.25V3.91667C0 2.83958 0.383507 1.91753 1.15052 1.15052C1.91753 0.383507 2.83958 0 3.91667 0H19.5833L31.3333 11.75V35.25C31.3333 36.3271 30.9498 37.2491 30.1828 38.0161C29.4158 38.7832 28.4938 39.1667 27.4167 39.1667H3.91667ZM17.625 13.7083V3.91667H3.91667V35.25H27.4167V13.7083H17.625Z" fill="#C7183A"/>
</svg>
