<svg width="227" height="233" viewBox="0 0 227 233" fill="none" xmlns="http://www.w3.org/2000/svg">
<g clip-path="url(#clip0_654_3492)">
<path d="M98.6364 0.940186C96.585 1.19661 94.5508 1.5214 92.5165 1.89749C93.2174 2.58127 94.1747 2.99154 95.2175 2.99154C96.7047 2.99154 97.9868 2.15391 98.6364 0.940186Z" fill="#F7EBEE"/>
<path d="M113.491 2.99157C115.303 2.99157 116.825 1.74366 117.252 0.0683786C116.004 0.0341893 114.756 0 113.491 0C112.226 0 110.978 0.0341893 109.731 0.0683786C110.175 1.74366 111.679 2.99157 113.491 2.99157Z" fill="#F7EBEE"/>
<path d="M131.765 2.99154C132.825 2.99154 133.765 2.56418 134.466 1.89749C132.449 1.5214 130.415 1.2137 128.364 0.940186C129.013 2.15391 130.278 2.99154 131.765 2.99154Z" fill="#F7EBEE"/>
<path d="M58.6856 14.7014C56.5317 14.7014 54.7881 16.4451 54.7881 18.599C54.7881 20.7529 56.5317 22.4966 58.6856 22.4966C60.8396 22.4966 62.5832 20.7529 62.5832 18.599C62.5832 16.4451 60.8396 14.7014 58.6856 14.7014Z" fill="#F7EBEE"/>
<path d="M76.9606 14.7014C74.8066 14.7014 73.063 16.4451 73.063 18.599C73.063 20.7529 74.8066 22.4966 76.9606 22.4966C79.1145 22.4966 80.8582 20.7529 80.8582 18.599C80.8582 16.4451 79.1145 14.7014 76.9606 14.7014Z" fill="#F7EBEE"/>
<path d="M95.2346 14.7014C93.0807 14.7014 91.3371 16.4451 91.3371 18.599C91.3371 20.7529 93.0807 22.4966 95.2346 22.4966C97.3886 22.4966 99.1322 20.7529 99.1322 18.599C99.1322 16.4451 97.3715 14.7014 95.2346 14.7014Z" fill="#F7EBEE"/>
<path d="M113.491 14.7014C111.337 14.7014 109.594 16.4451 109.594 18.599C109.594 20.7529 111.337 22.4966 113.491 22.4966C115.645 22.4966 117.389 20.7529 117.389 18.599C117.389 16.4451 115.645 14.7014 113.491 14.7014Z" fill="#F7EBEE"/>
<path d="M131.765 14.7014C129.611 14.7014 127.868 16.4451 127.868 18.599C127.868 20.7529 129.611 22.4966 131.765 22.4966C133.919 22.4966 135.663 20.7529 135.663 18.599C135.663 16.4451 133.919 14.7014 131.765 14.7014Z" fill="#F7EBEE"/>
<path d="M150.04 14.7014C147.886 14.7014 146.143 16.4451 146.143 18.599C146.143 20.7529 147.886 22.4966 150.04 22.4966C152.194 22.4966 153.938 20.7529 153.938 18.599C153.938 16.4451 152.177 14.7014 150.04 14.7014Z" fill="#F7EBEE"/>
<path d="M168.297 14.7014C166.143 14.7014 164.399 16.4451 164.399 18.599C164.399 20.7529 166.143 22.4966 168.297 22.4966C170.451 22.4966 172.194 20.7529 172.194 18.599C172.194 16.4451 170.451 14.7014 168.297 14.7014Z" fill="#F7EBEE"/>
<path d="M40.4291 41.9845C42.5817 41.9845 44.3267 40.2395 44.3267 38.0869C44.3267 35.9343 42.5817 34.1893 40.4291 34.1893C38.2765 34.1893 36.5315 35.9343 36.5315 38.0869C36.5315 40.2395 38.2765 41.9845 40.4291 41.9845Z" fill="#F7EBEE"/>
<path d="M58.6856 41.9845C60.8382 41.9845 62.5832 40.2395 62.5832 38.0869C62.5832 35.9343 60.8382 34.1893 58.6856 34.1893C56.5331 34.1893 54.7881 35.9343 54.7881 38.0869C54.7881 40.2395 56.5331 41.9845 58.6856 41.9845Z" fill="#F7EBEE"/>
<path d="M76.9606 41.9845C79.1131 41.9845 80.8582 40.2395 80.8582 38.0869C80.8582 35.9343 79.1131 34.1893 76.9606 34.1893C74.808 34.1893 73.063 35.9343 73.063 38.0869C73.063 40.2395 74.808 41.9845 76.9606 41.9845Z" fill="#F7EBEE"/>
<path d="M95.2346 34.2064C93.0807 34.2064 91.3371 35.9501 91.3371 38.104C91.3371 40.2579 93.0807 42.0016 95.2346 42.0016C97.3886 42.0016 99.1322 40.2579 99.1322 38.104C99.1151 35.9501 97.3715 34.2064 95.2346 34.2064Z" fill="#F7EBEE"/>
<path d="M113.491 41.9845C115.644 41.9845 117.389 40.2395 117.389 38.0869C117.389 35.9343 115.644 34.1893 113.491 34.1893C111.339 34.1893 109.594 35.9343 109.594 38.0869C109.594 40.2395 111.339 41.9845 113.491 41.9845Z" fill="#F7EBEE"/>
<path d="M131.765 41.9845C133.918 41.9845 135.663 40.2395 135.663 38.0869C135.663 35.9343 133.918 34.1893 131.765 34.1893C129.613 34.1893 127.868 35.9343 127.868 38.0869C127.868 40.2395 129.613 41.9845 131.765 41.9845Z" fill="#F7EBEE"/>
<path d="M150.04 41.9845C152.193 41.9845 153.938 40.2395 153.938 38.0869C153.938 35.9343 152.193 34.1893 150.04 34.1893C147.888 34.1893 146.143 35.9343 146.143 38.0869C146.143 40.2395 147.888 41.9845 150.04 41.9845Z" fill="#F7EBEE"/>
<path d="M168.297 34.2064C166.143 34.2064 164.399 35.9501 164.399 38.104C164.399 40.2579 166.143 42.0016 168.297 42.0016C170.451 42.0016 172.194 40.2579 172.194 38.104C172.194 35.9501 170.451 34.2064 168.297 34.2064Z" fill="#F7EBEE"/>
<path d="M186.571 34.2064C184.417 34.2064 182.673 35.9501 182.673 38.104C182.673 40.2579 184.417 42.0016 186.571 42.0016C188.725 42.0016 190.468 40.2579 190.468 38.104C190.468 35.9501 188.725 34.2064 186.571 34.2064Z" fill="#F7EBEE"/>
<path d="M22.155 61.4895C24.3075 61.4895 26.0525 59.7445 26.0525 57.5919C26.0525 55.4393 24.3075 53.6943 22.155 53.6943C20.0024 53.6943 18.2574 55.4393 18.2574 57.5919C18.2574 59.7445 20.0024 61.4895 22.155 61.4895Z" fill="#F7EBEE"/>
<path d="M40.4291 61.4895C42.5817 61.4895 44.3267 59.7445 44.3267 57.5919C44.3267 55.4393 42.5817 53.6943 40.4291 53.6943C38.2765 53.6943 36.5315 55.4393 36.5315 57.5919C36.5315 59.7445 38.2765 61.4895 40.4291 61.4895Z" fill="#F7EBEE"/>
<path d="M58.6856 61.4895C60.8382 61.4895 62.5832 59.7445 62.5832 57.5919C62.5832 55.4393 60.8382 53.6943 58.6856 53.6943C56.5331 53.6943 54.7881 55.4393 54.7881 57.5919C54.7881 59.7445 56.5331 61.4895 58.6856 61.4895Z" fill="#F7EBEE"/>
<path d="M76.9606 61.4895C79.1131 61.4895 80.8582 59.7445 80.8582 57.5919C80.8582 55.4393 79.1131 53.6943 76.9606 53.6943C74.808 53.6943 73.063 55.4393 73.063 57.5919C73.063 59.7445 74.808 61.4895 76.9606 61.4895Z" fill="#F7EBEE"/>
<path d="M95.2346 53.6943C93.0807 53.6943 91.3371 55.438 91.3371 57.5919C91.3371 59.7458 93.0807 61.4895 95.2346 61.4895C97.3886 61.4895 99.1322 59.7458 99.1322 57.5919C99.1151 55.438 97.3715 53.6943 95.2346 53.6943Z" fill="#F7EBEE"/>
<path d="M113.491 61.4895C115.644 61.4895 117.389 59.7445 117.389 57.5919C117.389 55.4393 115.644 53.6943 113.491 53.6943C111.339 53.6943 109.594 55.4393 109.594 57.5919C109.594 59.7445 111.339 61.4895 113.491 61.4895Z" fill="#F7EBEE"/>
<path d="M131.765 61.4895C133.918 61.4895 135.663 59.7445 135.663 57.5919C135.663 55.4393 133.918 53.6943 131.765 53.6943C129.613 53.6943 127.868 55.4393 127.868 57.5919C127.868 59.7445 129.613 61.4895 131.765 61.4895Z" fill="#F7EBEE"/>
<path d="M150.04 61.4895C152.193 61.4895 153.938 59.7445 153.938 57.5919C153.938 55.4393 152.193 53.6943 150.04 53.6943C147.888 53.6943 146.143 55.4393 146.143 57.5919C146.143 59.7445 147.888 61.4895 150.04 61.4895Z" fill="#F7EBEE"/>
<path d="M168.297 53.6943C166.143 53.6943 164.399 55.438 164.399 57.5919C164.399 59.7458 166.143 61.4895 168.297 61.4895C170.451 61.4895 172.194 59.7458 172.194 57.5919C172.194 55.438 170.451 53.6943 168.297 53.6943Z" fill="#F7EBEE"/>
<path d="M186.571 53.6943C184.417 53.6943 182.673 55.438 182.673 57.5919C182.673 59.7458 184.417 61.4895 186.571 61.4895C188.725 61.4895 190.468 59.7458 190.468 57.5919C190.468 55.438 188.725 53.6943 186.571 53.6943Z" fill="#F7EBEE"/>
<path d="M204.845 53.6943C202.691 53.6943 200.947 55.438 200.947 57.5919C200.947 59.7458 202.691 61.4895 204.845 61.4895C206.999 61.4895 208.743 59.7458 208.743 57.5919C208.725 55.438 206.982 53.6943 204.845 53.6943Z" fill="#F7EBEE"/>
<path d="M7.77796 77.0799C7.77796 75.4901 6.83775 74.1396 5.47018 73.5413C4.52997 75.9345 3.67524 78.362 2.88889 80.8236C3.21368 80.9091 3.53848 80.9774 3.89747 80.9774C6.0343 80.9603 7.77796 79.2338 7.77796 77.0799Z" fill="#F7EBEE"/>
<path d="M22.155 80.9774C24.3075 80.9774 26.0525 79.2324 26.0525 77.0798C26.0525 74.9273 24.3075 73.1823 22.155 73.1823C20.0024 73.1823 18.2574 74.9273 18.2574 77.0798C18.2574 79.2324 20.0024 80.9774 22.155 80.9774Z" fill="#F7EBEE"/>
<path d="M40.4291 80.9774C42.5817 80.9774 44.3267 79.2324 44.3267 77.0798C44.3267 74.9273 42.5817 73.1823 40.4291 73.1823C38.2765 73.1823 36.5315 74.9273 36.5315 77.0798C36.5315 79.2324 38.2765 80.9774 40.4291 80.9774Z" fill="#F7EBEE"/>
<path d="M58.6856 80.9774C60.8382 80.9774 62.5832 79.2324 62.5832 77.0798C62.5832 74.9273 60.8382 73.1823 58.6856 73.1823C56.5331 73.1823 54.7881 74.9273 54.7881 77.0798C54.7881 79.2324 56.5331 80.9774 58.6856 80.9774Z" fill="#F7EBEE"/>
<path d="M76.9606 80.9774C79.1131 80.9774 80.8582 79.2324 80.8582 77.0798C80.8582 74.9273 79.1131 73.1823 76.9606 73.1823C74.808 73.1823 73.063 74.9273 73.063 77.0798C73.063 79.2324 74.808 80.9774 76.9606 80.9774Z" fill="#F7EBEE"/>
<path d="M95.2346 73.1823C93.0807 73.1823 91.3371 74.9259 91.3371 77.0798C91.3371 79.2338 93.0807 80.9774 95.2346 80.9774C97.3886 80.9774 99.1322 79.2338 99.1322 77.0798C99.1322 74.9259 97.3715 73.1823 95.2346 73.1823Z" fill="#F7EBEE"/>
<path d="M113.491 80.9774C115.644 80.9774 117.389 79.2324 117.389 77.0798C117.389 74.9273 115.644 73.1823 113.491 73.1823C111.339 73.1823 109.594 74.9273 109.594 77.0798C109.594 79.2324 111.339 80.9774 113.491 80.9774Z" fill="#F7EBEE"/>
<path d="M131.765 80.9774C133.918 80.9774 135.663 79.2324 135.663 77.0798C135.663 74.9273 133.918 73.1823 131.765 73.1823C129.613 73.1823 127.868 74.9273 127.868 77.0798C127.868 79.2324 129.613 80.9774 131.765 80.9774Z" fill="#F7EBEE"/>
<path d="M150.04 80.9774C152.193 80.9774 153.938 79.2324 153.938 77.0798C153.938 74.9273 152.193 73.1823 150.04 73.1823C147.888 73.1823 146.143 74.9273 146.143 77.0798C146.143 79.2324 147.888 80.9774 150.04 80.9774Z" fill="#F7EBEE"/>
<path d="M168.297 73.1823C166.143 73.1823 164.399 74.9259 164.399 77.0798C164.399 79.2338 166.143 80.9774 168.297 80.9774C170.451 80.9774 172.194 79.2338 172.194 77.0798C172.194 74.9259 170.451 73.1823 168.297 73.1823Z" fill="#F7EBEE"/>
<path d="M186.571 73.1823C184.417 73.1823 182.673 74.9259 182.673 77.0798C182.673 79.2338 184.417 80.9774 186.571 80.9774C188.725 80.9774 190.468 79.2338 190.468 77.0798C190.468 74.9259 188.725 73.1823 186.571 73.1823Z" fill="#F7EBEE"/>
<path d="M204.845 73.1823C202.691 73.1823 200.947 74.9259 200.947 77.0798C200.947 79.2338 202.691 80.9774 204.845 80.9774C206.999 80.9774 208.743 79.2338 208.743 77.0798C208.743 74.9259 206.982 73.1823 204.845 73.1823Z" fill="#F7EBEE"/>
<path d="M219.222 77.0799C219.222 79.2338 220.966 80.9774 223.12 80.9774C223.462 80.9774 223.804 80.9091 224.128 80.8236C223.342 78.362 222.487 75.9174 221.547 73.5413C220.163 74.1396 219.222 75.4901 219.222 77.0799Z" fill="#F7EBEE"/>
<path d="M3.89758 92.6873C1.74366 92.6873 0 94.4138 0 96.5677C0 98.7217 1.74366 100.465 3.89758 100.465C6.05151 100.465 7.79517 98.7217 7.79517 96.5677C7.79517 94.4138 6.03442 92.6873 3.89758 92.6873Z" fill="#F7EBEE"/>
<path d="M22.155 92.6873C20.001 92.6873 18.2574 94.4309 18.2574 96.5848C18.2574 98.7388 20.001 100.482 22.155 100.482C24.3089 100.482 26.0525 98.7388 26.0525 96.5848C26.0525 94.4309 24.3089 92.6873 22.155 92.6873Z" fill="#F7EBEE"/>
<path d="M40.4291 92.6873C38.2751 92.6873 36.5315 94.4309 36.5315 96.5848C36.5315 98.7388 38.2751 100.482 40.4291 100.482C42.583 100.482 44.3267 98.7388 44.3267 96.5848C44.3267 94.4309 42.5659 92.6873 40.4291 92.6873Z" fill="#F7EBEE"/>
<path d="M58.6856 92.6873C56.5317 92.6873 54.7881 94.4309 54.7881 96.5848C54.7881 98.7388 56.5317 100.482 58.6856 100.482C60.8396 100.482 62.5832 98.7388 62.5832 96.5848C62.5832 94.4309 60.8396 92.6873 58.6856 92.6873Z" fill="#F7EBEE"/>
<path d="M76.9606 92.6873C74.8066 92.6873 73.063 94.4309 73.063 96.5848C73.063 98.7388 74.8066 100.482 76.9606 100.482C79.1145 100.482 80.8582 98.7388 80.8582 96.5848C80.8582 94.4309 79.1145 92.6873 76.9606 92.6873Z" fill="#F7EBEE"/>
<path d="M95.2346 92.6873C93.0807 92.6873 91.3371 94.4309 91.3371 96.5848C91.3371 98.7388 93.0807 100.482 95.2346 100.482C97.3886 100.482 99.1322 98.7388 99.1322 96.5848C99.1322 94.4309 97.3715 92.6873 95.2346 92.6873Z" fill="#F7EBEE"/>
<path d="M113.491 92.6873C111.337 92.6873 109.594 94.4309 109.594 96.5848C109.594 98.7388 111.337 100.482 113.491 100.482C115.645 100.482 117.389 98.7388 117.389 96.5848C117.389 94.4309 115.645 92.6873 113.491 92.6873Z" fill="#F7EBEE"/>
<path d="M131.765 92.6873C129.611 92.6873 127.868 94.4309 127.868 96.5848C127.868 98.7388 129.611 100.482 131.765 100.482C133.919 100.482 135.663 98.7388 135.663 96.5848C135.663 94.4309 133.919 92.6873 131.765 92.6873Z" fill="#F7EBEE"/>
<path d="M150.04 92.6873C147.886 92.6873 146.143 94.4309 146.143 96.5848C146.143 98.7388 147.886 100.482 150.04 100.482C152.194 100.482 153.938 98.7388 153.938 96.5848C153.938 94.4309 152.177 92.6873 150.04 92.6873Z" fill="#F7EBEE"/>
<path d="M168.297 92.6873C166.143 92.6873 164.399 94.4309 164.399 96.5848C164.399 98.7388 166.143 100.482 168.297 100.482C170.451 100.482 172.194 98.7388 172.194 96.5848C172.194 94.4309 170.451 92.6873 168.297 92.6873Z" fill="#F7EBEE"/>
<path d="M186.571 92.6873C184.417 92.6873 182.673 94.4309 182.673 96.5848C182.673 98.7388 184.417 100.482 186.571 100.482C188.725 100.482 190.468 98.7388 190.468 96.5848C190.468 94.4309 188.725 92.6873 186.571 92.6873Z" fill="#F7EBEE"/>
<path d="M204.845 92.6873C202.691 92.6873 200.947 94.4309 200.947 96.5848C200.947 98.7388 202.691 100.482 204.845 100.482C206.999 100.482 208.743 98.7388 208.743 96.5848C208.743 94.4309 206.982 92.6873 204.845 92.6873Z" fill="#F7EBEE"/>
<path d="M223.102 92.6873C220.948 92.6873 219.205 94.4309 219.205 96.5848C219.205 98.7388 220.948 100.482 223.102 100.482C225.256 100.482 227 98.7388 227 96.5848C227 94.4309 225.256 92.6873 223.102 92.6873Z" fill="#F7EBEE"/>
<path d="M3.89758 112.175C1.74366 112.175 0 113.919 0 116.056C0 118.192 1.74366 119.953 3.89758 119.953C6.05151 119.953 7.79517 118.21 7.79517 116.056C7.79517 113.902 6.03442 112.175 3.89758 112.175Z" fill="#F7EBEE"/>
<path d="M22.155 119.953C24.3075 119.953 26.0525 118.208 26.0525 116.056C26.0525 113.903 24.3075 112.158 22.155 112.158C20.0024 112.158 18.2574 113.903 18.2574 116.056C18.2574 118.208 20.0024 119.953 22.155 119.953Z" fill="#F7EBEE"/>
<path d="M40.4291 119.953C42.5817 119.953 44.3267 118.208 44.3267 116.056C44.3267 113.903 42.5817 112.158 40.4291 112.158C38.2765 112.158 36.5315 113.903 36.5315 116.056C36.5315 118.208 38.2765 119.953 40.4291 119.953Z" fill="#F7EBEE"/>
<path d="M58.6856 119.953C60.8382 119.953 62.5832 118.208 62.5832 116.056C62.5832 113.903 60.8382 112.158 58.6856 112.158C56.5331 112.158 54.7881 113.903 54.7881 116.056C54.7881 118.208 56.5331 119.953 58.6856 119.953Z" fill="#F7EBEE"/>
<path d="M76.9606 119.953C79.1131 119.953 80.8582 118.208 80.8582 116.056C80.8582 113.903 79.1131 112.158 76.9606 112.158C74.808 112.158 73.063 113.903 73.063 116.056C73.063 118.208 74.808 119.953 76.9606 119.953Z" fill="#F7EBEE"/>
<path d="M95.2346 112.175C93.0807 112.175 91.3371 113.919 91.3371 116.073C91.3371 118.227 93.0807 119.97 95.2346 119.97C97.3886 119.97 99.1322 118.227 99.1322 116.073C99.1322 113.919 97.3715 112.175 95.2346 112.175Z" fill="#F7EBEE"/>
<path d="M113.491 119.953C115.644 119.953 117.389 118.208 117.389 116.056C117.389 113.903 115.644 112.158 113.491 112.158C111.339 112.158 109.594 113.903 109.594 116.056C109.594 118.208 111.339 119.953 113.491 119.953Z" fill="#F7EBEE"/>
<path d="M131.765 119.953C133.918 119.953 135.663 118.208 135.663 116.056C135.663 113.903 133.918 112.158 131.765 112.158C129.613 112.158 127.868 113.903 127.868 116.056C127.868 118.208 129.613 119.953 131.765 119.953Z" fill="#F7EBEE"/>
<path d="M150.04 119.953C152.193 119.953 153.938 118.208 153.938 116.056C153.938 113.903 152.193 112.158 150.04 112.158C147.888 112.158 146.143 113.903 146.143 116.056C146.143 118.208 147.888 119.953 150.04 119.953Z" fill="#F7EBEE"/>
<path d="M168.297 112.175C166.143 112.175 164.399 113.919 164.399 116.073C164.399 118.227 166.143 119.97 168.297 119.97C170.451 119.97 172.194 118.227 172.194 116.073C172.194 113.919 170.451 112.175 168.297 112.175Z" fill="#F7EBEE"/>
<path d="M186.571 112.175C184.417 112.175 182.673 113.919 182.673 116.073C182.673 118.227 184.417 119.97 186.571 119.97C188.725 119.97 190.468 118.227 190.468 116.073C190.468 113.919 188.725 112.175 186.571 112.175Z" fill="#F7EBEE"/>
<path d="M204.845 112.175C202.691 112.175 200.947 113.919 200.947 116.073C200.947 118.227 202.691 119.97 204.845 119.97C206.999 119.97 208.743 118.227 208.743 116.073C208.743 113.919 206.982 112.175 204.845 112.175Z" fill="#F7EBEE"/>
<path d="M223.102 119.953C225.255 119.953 227 118.208 227 116.056C227 113.903 225.255 112.158 223.102 112.158C220.95 112.158 219.205 113.903 219.205 116.056C219.205 118.208 220.95 119.953 223.102 119.953Z" fill="#F7EBEE"/>
<path d="M3.89758 131.663C1.74366 131.663 0 133.407 0 135.561C0 137.715 1.74366 139.458 3.89758 139.458C6.05151 139.458 7.79517 137.715 7.79517 135.561C7.77807 133.407 6.03442 131.663 3.89758 131.663Z" fill="#F7EBEE"/>
<path d="M22.155 139.458C24.3075 139.458 26.0525 137.713 26.0525 135.561C26.0525 133.408 24.3075 131.663 22.155 131.663C20.0024 131.663 18.2574 133.408 18.2574 135.561C18.2574 137.713 20.0024 139.458 22.155 139.458Z" fill="#F7EBEE"/>
<path d="M40.4291 139.458C42.5817 139.458 44.3267 137.713 44.3267 135.561C44.3267 133.408 42.5817 131.663 40.4291 131.663C38.2765 131.663 36.5315 133.408 36.5315 135.561C36.5315 137.713 38.2765 139.458 40.4291 139.458Z" fill="#F7EBEE"/>
<path d="M58.6856 139.458C60.8382 139.458 62.5832 137.713 62.5832 135.561C62.5832 133.408 60.8382 131.663 58.6856 131.663C56.5331 131.663 54.7881 133.408 54.7881 135.561C54.7881 137.713 56.5331 139.458 58.6856 139.458Z" fill="#F7EBEE"/>
<path d="M76.9606 139.458C79.1131 139.458 80.8582 137.713 80.8582 135.561C80.8582 133.408 79.1131 131.663 76.9606 131.663C74.808 131.663 73.063 133.408 73.063 135.561C73.063 137.713 74.808 139.458 76.9606 139.458Z" fill="#F7EBEE"/>
<path d="M95.2346 131.663C93.0807 131.663 91.3371 133.407 91.3371 135.561C91.3371 137.715 93.0807 139.458 95.2346 139.458C97.3886 139.458 99.1322 137.715 99.1322 135.561C99.1151 133.407 97.3715 131.663 95.2346 131.663Z" fill="#F7EBEE"/>
<path d="M113.491 139.458C115.644 139.458 117.389 137.713 117.389 135.561C117.389 133.408 115.644 131.663 113.491 131.663C111.339 131.663 109.594 133.408 109.594 135.561C109.594 137.713 111.339 139.458 113.491 139.458Z" fill="#F7EBEE"/>
<path d="M131.765 139.458C133.918 139.458 135.663 137.713 135.663 135.561C135.663 133.408 133.918 131.663 131.765 131.663C129.613 131.663 127.868 133.408 127.868 135.561C127.868 137.713 129.613 139.458 131.765 139.458Z" fill="#F7EBEE"/>
<path d="M150.04 139.458C152.193 139.458 153.938 137.713 153.938 135.561C153.938 133.408 152.193 131.663 150.04 131.663C147.888 131.663 146.143 133.408 146.143 135.561C146.143 137.713 147.888 139.458 150.04 139.458Z" fill="#F7EBEE"/>
<path d="M168.297 131.663C166.143 131.663 164.399 133.407 164.399 135.561C164.399 137.715 166.143 139.458 168.297 139.458C170.451 139.458 172.194 137.715 172.194 135.561C172.194 133.407 170.451 131.663 168.297 131.663Z" fill="#F7EBEE"/>
<path d="M186.571 131.663C184.417 131.663 182.673 133.407 182.673 135.561C182.673 137.715 184.417 139.458 186.571 139.458C188.725 139.458 190.468 137.715 190.468 135.561C190.468 133.407 188.725 131.663 186.571 131.663Z" fill="#F7EBEE"/>
<path d="M204.845 131.663C202.691 131.663 200.947 133.407 200.947 135.561C200.947 137.715 202.691 139.458 204.845 139.458C206.999 139.458 208.743 137.715 208.743 135.561C208.725 133.407 206.982 131.663 204.845 131.663Z" fill="#F7EBEE"/>
<path d="M223.102 139.458C225.255 139.458 227 137.713 227 135.561C227 133.408 225.255 131.663 223.102 131.663C220.95 131.663 219.205 133.408 219.205 135.561C219.205 137.713 220.95 139.458 223.102 139.458Z" fill="#F7EBEE"/>
<path d="M7.77836 155.049C7.77836 152.895 6.0347 151.151 3.88078 151.151C3.53888 151.151 3.19699 151.219 2.87219 151.305C3.65855 153.766 4.51328 156.211 5.45349 158.587C6.83815 157.989 7.77836 156.638 7.77836 155.049Z" fill="#F7EBEE"/>
<path d="M22.155 151.168C20.001 151.168 18.2574 152.912 18.2574 155.066C18.2574 157.22 20.001 158.963 22.155 158.963C24.3089 158.963 26.0525 157.22 26.0525 155.066C26.0525 152.912 24.3089 151.168 22.155 151.168Z" fill="#F7EBEE"/>
<path d="M40.4291 151.168C38.2751 151.168 36.5315 152.912 36.5315 155.066C36.5315 157.22 38.2751 158.963 40.4291 158.963C42.583 158.963 44.3267 157.22 44.3267 155.066C44.3267 152.912 42.5659 151.168 40.4291 151.168Z" fill="#F7EBEE"/>
<path d="M58.6856 151.168C56.5317 151.168 54.7881 152.912 54.7881 155.066C54.7881 157.22 56.5317 158.963 58.6856 158.963C60.8396 158.963 62.5832 157.22 62.5832 155.066C62.5832 152.912 60.8396 151.168 58.6856 151.168Z" fill="#F7EBEE"/>
<path d="M76.9606 151.168C74.8066 151.168 73.063 152.912 73.063 155.066C73.063 157.22 74.8066 158.963 76.9606 158.963C79.1145 158.963 80.8582 157.22 80.8582 155.066C80.8582 152.912 79.1145 151.168 76.9606 151.168Z" fill="#F7EBEE"/>
<path d="M95.2346 151.168C93.0807 151.168 91.3371 152.912 91.3371 155.066C91.3371 157.22 93.0807 158.963 95.2346 158.963C97.3886 158.963 99.1322 157.22 99.1322 155.066C99.1322 152.912 97.3715 151.168 95.2346 151.168Z" fill="#F7EBEE"/>
<path d="M113.491 151.168C111.337 151.168 109.594 152.912 109.594 155.066C109.594 157.22 111.337 158.963 113.491 158.963C115.645 158.963 117.389 157.22 117.389 155.066C117.389 152.912 115.645 151.168 113.491 151.168Z" fill="#F7EBEE"/>
<path d="M131.765 151.168C129.611 151.168 127.868 152.912 127.868 155.066C127.868 157.22 129.611 158.963 131.765 158.963C133.919 158.963 135.663 157.22 135.663 155.066C135.663 152.912 133.919 151.168 131.765 151.168Z" fill="#F7EBEE"/>
<path d="M150.04 151.168C147.886 151.168 146.143 152.912 146.143 155.066C146.143 157.22 147.886 158.963 150.04 158.963C152.194 158.963 153.938 157.22 153.938 155.066C153.938 152.912 152.177 151.168 150.04 151.168Z" fill="#F7EBEE"/>
<path d="M168.297 151.168C166.143 151.168 164.399 152.912 164.399 155.066C164.399 157.22 166.143 158.963 168.297 158.963C170.451 158.963 172.194 157.22 172.194 155.066C172.194 152.912 170.451 151.168 168.297 151.168Z" fill="#F7EBEE"/>
<path d="M186.571 151.168C184.417 151.168 182.673 152.912 182.673 155.066C182.673 157.22 184.417 158.963 186.571 158.963C188.725 158.963 190.468 157.22 190.468 155.066C190.468 152.912 188.725 151.168 186.571 151.168Z" fill="#F7EBEE"/>
<path d="M204.845 151.168C202.691 151.168 200.947 152.912 200.947 155.066C200.947 157.22 202.691 158.963 204.845 158.963C206.999 158.963 208.743 157.22 208.743 155.066C208.743 152.912 206.982 151.168 204.845 151.168Z" fill="#F7EBEE"/>
<path d="M219.222 155.049C219.222 156.638 220.163 157.989 221.53 158.587C222.47 156.194 223.325 153.766 224.111 151.305C223.787 151.219 223.462 151.151 223.103 151.151C220.966 151.168 219.222 152.895 219.222 155.049Z" fill="#F7EBEE"/>
<path d="M22.155 178.434C24.3075 178.434 26.0525 176.689 26.0525 174.536C26.0525 172.384 24.3075 170.639 22.155 170.639C20.0024 170.639 18.2574 172.384 18.2574 174.536C18.2574 176.689 20.0024 178.434 22.155 178.434Z" fill="#F7EBEE"/>
<path d="M40.4291 178.434C42.5817 178.434 44.3267 176.689 44.3267 174.536C44.3267 172.384 42.5817 170.639 40.4291 170.639C38.2765 170.639 36.5315 172.384 36.5315 174.536C36.5315 176.689 38.2765 178.434 40.4291 178.434Z" fill="#F7EBEE"/>
<path d="M58.6856 178.434C60.8382 178.434 62.5832 176.689 62.5832 174.536C62.5832 172.384 60.8382 170.639 58.6856 170.639C56.5331 170.639 54.7881 172.384 54.7881 174.536C54.7881 176.689 56.5331 178.434 58.6856 178.434Z" fill="#F7EBEE"/>
<path d="M76.9606 178.434C79.1131 178.434 80.8582 176.689 80.8582 174.536C80.8582 172.384 79.1131 170.639 76.9606 170.639C74.808 170.639 73.063 172.384 73.063 174.536C73.063 176.689 74.808 178.434 76.9606 178.434Z" fill="#F7EBEE"/>
<path d="M95.2346 170.656C93.0807 170.656 91.3371 172.4 91.3371 174.554C91.3371 176.708 93.0807 178.451 95.2346 178.451C97.3886 178.451 99.1322 176.708 99.1322 174.554C99.1322 172.4 97.3715 170.656 95.2346 170.656Z" fill="#F7EBEE"/>
<path d="M113.491 178.434C115.644 178.434 117.389 176.689 117.389 174.536C117.389 172.384 115.644 170.639 113.491 170.639C111.339 170.639 109.594 172.384 109.594 174.536C109.594 176.689 111.339 178.434 113.491 178.434Z" fill="#F7EBEE"/>
<path d="M131.765 178.434C133.918 178.434 135.663 176.689 135.663 174.536C135.663 172.384 133.918 170.639 131.765 170.639C129.613 170.639 127.868 172.384 127.868 174.536C127.868 176.689 129.613 178.434 131.765 178.434Z" fill="#F7EBEE"/>
<path d="M150.04 178.434C152.193 178.434 153.938 176.689 153.938 174.536C153.938 172.384 152.193 170.639 150.04 170.639C147.888 170.639 146.143 172.384 146.143 174.536C146.143 176.689 147.888 178.434 150.04 178.434Z" fill="#F7EBEE"/>
<path d="M168.297 170.656C166.143 170.656 164.399 172.4 164.399 174.554C164.399 176.708 166.143 178.451 168.297 178.451C170.451 178.451 172.194 176.708 172.194 174.554C172.194 172.4 170.451 170.656 168.297 170.656Z" fill="#F7EBEE"/>
<path d="M186.571 170.656C184.417 170.656 182.673 172.4 182.673 174.554C182.673 176.708 184.417 178.451 186.571 178.451C188.725 178.451 190.468 176.708 190.468 174.554C190.468 172.4 188.725 170.656 186.571 170.656Z" fill="#F7EBEE"/>
<path d="M204.845 170.656C202.691 170.656 200.947 172.4 200.947 174.554C200.947 176.708 202.691 178.451 204.845 178.451C206.999 178.451 208.743 176.708 208.743 174.554C208.743 172.4 206.982 170.656 204.845 170.656Z" fill="#F7EBEE"/>
<path d="M40.4291 197.939C42.5817 197.939 44.3267 196.194 44.3267 194.042C44.3267 191.889 42.5817 190.144 40.4291 190.144C38.2765 190.144 36.5315 191.889 36.5315 194.042C36.5315 196.194 38.2765 197.939 40.4291 197.939Z" fill="#F7EBEE"/>
<path d="M58.6856 197.939C60.8382 197.939 62.5832 196.194 62.5832 194.042C62.5832 191.889 60.8382 190.144 58.6856 190.144C56.5331 190.144 54.7881 191.889 54.7881 194.042C54.7881 196.194 56.5331 197.939 58.6856 197.939Z" fill="#F7EBEE"/>
<path d="M76.9606 197.939C79.1131 197.939 80.8582 196.194 80.8582 194.042C80.8582 191.889 79.1131 190.144 76.9606 190.144C74.808 190.144 73.063 191.889 73.063 194.042C73.063 196.194 74.808 197.939 76.9606 197.939Z" fill="#F7EBEE"/>
<path d="M95.2346 190.144C93.0807 190.144 91.3371 191.888 91.3371 194.042C91.3371 196.195 93.0807 197.939 95.2346 197.939C97.3886 197.939 99.1322 196.195 99.1322 194.042C99.1151 191.888 97.3715 190.144 95.2346 190.144Z" fill="#F7EBEE"/>
<path d="M113.491 197.939C115.644 197.939 117.389 196.194 117.389 194.042C117.389 191.889 115.644 190.144 113.491 190.144C111.339 190.144 109.594 191.889 109.594 194.042C109.594 196.194 111.339 197.939 113.491 197.939Z" fill="#F7EBEE"/>
<path d="M131.765 197.939C133.918 197.939 135.663 196.194 135.663 194.042C135.663 191.889 133.918 190.144 131.765 190.144C129.613 190.144 127.868 191.889 127.868 194.042C127.868 196.194 129.613 197.939 131.765 197.939Z" fill="#F7EBEE"/>
<path d="M150.04 197.939C152.193 197.939 153.938 196.194 153.938 194.042C153.938 191.889 152.193 190.144 150.04 190.144C147.888 190.144 146.143 191.889 146.143 194.042C146.143 196.194 147.888 197.939 150.04 197.939Z" fill="#F7EBEE"/>
<path d="M168.297 190.144C166.143 190.144 164.399 191.888 164.399 194.042C164.399 196.195 166.143 197.939 168.297 197.939C170.451 197.939 172.194 196.195 172.194 194.042C172.194 191.888 170.451 190.144 168.297 190.144Z" fill="#F7EBEE"/>
<path d="M186.571 190.144C184.417 190.144 182.673 191.888 182.673 194.042C182.673 196.195 184.417 197.939 186.571 197.939C188.725 197.939 190.468 196.195 190.468 194.042C190.468 191.888 188.725 190.144 186.571 190.144Z" fill="#F7EBEE"/>
<path d="M58.6856 217.427C60.8382 217.427 62.5832 215.682 62.5832 213.529C62.5832 211.377 60.8382 209.632 58.6856 209.632C56.5331 209.632 54.7881 211.377 54.7881 213.529C54.7881 215.682 56.5331 217.427 58.6856 217.427Z" fill="#F7EBEE"/>
<path d="M76.9606 217.427C79.1131 217.427 80.8582 215.682 80.8582 213.529C80.8582 211.377 79.1131 209.632 76.9606 209.632C74.808 209.632 73.063 211.377 73.063 213.529C73.063 215.682 74.808 217.427 76.9606 217.427Z" fill="#F7EBEE"/>
<path d="M95.2346 209.632C93.0807 209.632 91.3371 211.376 91.3371 213.529C91.3371 215.683 93.0807 217.427 95.2346 217.427C97.3886 217.427 99.1322 215.683 99.1322 213.529C99.1151 211.376 97.3715 209.632 95.2346 209.632Z" fill="#F7EBEE"/>
<path d="M113.491 217.427C115.644 217.427 117.389 215.682 117.389 213.529C117.389 211.377 115.644 209.632 113.491 209.632C111.339 209.632 109.594 211.377 109.594 213.529C109.594 215.682 111.339 217.427 113.491 217.427Z" fill="#F7EBEE"/>
<path d="M131.765 217.427C133.918 217.427 135.663 215.682 135.663 213.529C135.663 211.377 133.918 209.632 131.765 209.632C129.613 209.632 127.868 211.377 127.868 213.529C127.868 215.682 129.613 217.427 131.765 217.427Z" fill="#F7EBEE"/>
<path d="M150.04 217.427C152.193 217.427 153.938 215.682 153.938 213.529C153.938 211.377 152.193 209.632 150.04 209.632C147.888 209.632 146.143 211.377 146.143 213.529C146.143 215.682 147.888 217.427 150.04 217.427Z" fill="#F7EBEE"/>
<path d="M168.297 209.632C166.143 209.632 164.399 211.376 164.399 213.529C164.399 215.683 166.143 217.427 168.297 217.427C170.451 217.427 172.194 215.683 172.194 213.529C172.194 211.376 170.451 209.632 168.297 209.632Z" fill="#F7EBEE"/>
<path d="M95.2342 229.137C94.1743 229.137 93.2341 229.564 92.5332 230.231C94.5504 230.607 96.5846 230.915 98.6531 231.188C97.9864 229.975 96.7043 229.137 95.2342 229.137Z" fill="#F7EBEE"/>
<path d="M113.491 229.137C111.679 229.137 110.158 230.385 109.731 232.06C110.978 232.094 112.226 232.128 113.491 232.128C114.756 232.128 116.004 232.094 117.252 232.06C116.825 230.385 115.32 229.137 113.491 229.137Z" fill="#F7EBEE"/>
<path d="M128.364 231.188C130.415 230.932 132.449 230.607 134.466 230.231C133.765 229.547 132.808 229.137 131.765 229.137C130.278 229.137 129.013 229.975 128.364 231.188Z" fill="#F7EBEE"/>
</g>
<defs>
<clipPath id="clip0_654_3492">
<rect width="227" height="232.128" fill="white"/>
</clipPath>
</defs>
</svg>
