<svg width="64" height="64" viewBox="0 0 64 64" fill="none" xmlns="http://www.w3.org/2000/svg">
<path d="M31.9996 5.28984C31.2404 5.28984 30.6249 4.67433 30.6249 3.9151V1.96922C30.6249 1.20999 31.2404 0.594482 31.9996 0.594482C32.7588 0.594482 33.3744 1.20999 33.3744 1.96922V3.91498C33.3744 4.67433 32.759 5.28984 31.9996 5.28984Z" fill="#07368F"/>
<path d="M14.2121 11.8195C13.8591 11.8195 13.5062 11.6844 13.2375 11.4143L11.8688 10.0384C11.3333 9.50018 11.3355 8.62984 11.8738 8.09432C12.412 7.55892 13.2824 7.56079 13.8179 8.09932L15.1868 9.47518C15.7223 10.0135 15.7201 10.8838 15.1818 11.4193C14.9136 11.686 14.5628 11.8195 14.2121 11.8195Z" fill="#07368F"/>
<path d="M49.7887 11.8195C49.438 11.8195 49.0873 11.6863 48.8191 11.4194C48.2808 10.884 48.2786 10.0135 48.8141 9.47523L50.183 8.09936C50.7185 7.56084 51.589 7.55884 52.1271 8.09436C52.6654 8.62976 52.6676 9.50022 52.1321 10.0385L50.7633 11.4144C50.4946 11.6844 50.1416 11.8195 49.7887 11.8195Z" fill="#07368F"/>
<path d="M20.1981 44.1733C19.4529 43.6459 18.82 42.9477 18.368 42.1541L13.7483 34.0421C13.526 33.6518 13.2447 33.3084 12.9162 33.0213L13.0866 20.197C13.1117 18.3121 11.7967 16.6408 9.95981 16.2227C7.8847 15.7503 5.79684 16.9833 5.20596 19.0291L0.530342 35.2205C-0.608943 39.1659 0.105922 43.3443 2.49172 46.6842L4.49397 49.4873C5.29594 50.6101 5.86371 51.8597 6.18165 53.2024L7.81196 62.2739C7.92969 62.929 8.49971 63.4055 9.16496 63.4055H9.16758L19.8052 63.3859C20.4092 63.3848 20.9419 62.9894 21.1178 62.4115L23.6217 54.1853C24.7588 50.45 23.3829 46.4266 20.1981 44.1733ZM20.9916 53.3844L18.7836 60.6381L10.3145 60.6538L8.88151 52.6799C8.87726 52.6566 8.87251 52.6335 8.86714 52.6105C8.46859 50.9035 7.74997 49.3151 6.73129 47.8891L4.72905 45.086C2.83478 42.4341 2.26726 39.1163 3.17197 35.9832L7.84771 19.7917C8.00768 19.2374 8.51458 18.8717 9.06847 18.8717C9.16146 18.8717 9.25569 18.8821 9.3498 18.9035C9.93006 19.0356 10.3454 19.5641 10.3374 20.1602L10.1794 32.0516C9.55051 32.074 8.93225 32.2484 8.36998 32.5695C6.58769 33.5871 5.8847 35.7632 6.73492 37.6314L12.06 49.334C12.4831 50.2638 12.5489 51.3133 12.2454 52.2893L11.9277 53.3107C11.7022 54.0357 12.1071 54.8062 12.8321 55.0318C13.5575 55.2568 14.3277 54.8522 14.5532 54.1273L14.8709 53.106C15.3753 51.4844 15.2658 49.7405 14.5627 48.1953L9.23757 36.4928C8.97962 35.926 9.19283 35.2659 9.73322 34.9573C10.0099 34.7992 10.3315 34.759 10.6383 34.8427C10.9455 34.9268 11.2014 35.1256 11.3593 35.4026L15.9789 43.5146C16.6287 44.6556 17.5386 45.6595 18.6102 46.4176C20.8256 47.9855 21.7828 50.7851 20.9916 53.3844Z" fill="#C7183A"/>
<path d="M63.4703 35.2205L58.7945 19.029C58.2037 16.9832 56.1159 15.7501 54.0407 16.2226C52.2039 16.6407 50.8889 18.312 50.9139 20.1969L51.0843 33.0212C50.7558 33.3083 50.4745 33.6517 50.2522 34.042L45.6325 42.154C45.1805 42.9477 44.5476 43.646 43.8024 44.1732C40.6177 46.4265 39.2417 50.45 40.3785 54.185L42.8824 62.4111C43.0584 62.989 43.5909 63.3845 44.1951 63.3856L54.8327 63.4052H54.8353C55.5005 63.4052 56.0706 62.9287 56.1883 62.2735L57.8186 53.202C58.1365 51.8595 58.7043 50.6099 59.5063 49.487L61.5085 46.6839C63.8946 43.3444 64.6094 39.1659 63.4703 35.2205ZM59.2716 45.0861L57.2693 47.8891C56.2506 49.3151 55.532 50.9036 55.1335 52.6105C55.1281 52.6335 55.1234 52.6566 55.1191 52.68L53.6861 60.6539L45.217 60.6381L43.009 53.3845C42.2178 50.7851 43.175 47.9855 45.3906 46.4178C46.4621 45.6597 47.3721 44.6556 48.0218 43.5147L52.6415 35.4028C52.7992 35.1257 53.0553 34.9268 53.3624 34.8429C53.6694 34.759 53.9907 34.7994 54.2675 34.9575C54.808 35.266 55.0211 35.9262 54.7632 36.4929L49.4381 48.1955C48.7349 49.7407 48.6256 51.4846 49.1299 53.106L49.4476 54.1275C49.6731 54.8526 50.4432 55.2573 51.1686 55.0319C51.8936 54.8063 52.2985 54.0359 52.0731 53.3109L51.7554 52.2893C51.4518 51.3134 51.5177 50.2639 51.9407 49.3341L57.2658 37.6316C58.116 35.7633 57.4131 33.5872 55.6308 32.5697C55.0685 32.2487 54.4502 32.0741 53.8214 32.0518L53.6634 20.1604C53.6555 19.5643 54.0708 19.0357 54.6509 18.9036C55.3067 18.7552 55.9663 19.1447 56.1532 19.7918L60.8289 35.9834C61.7334 39.1164 61.1658 42.4343 59.2716 45.0861Z" fill="#C7183A"/>
<path d="M46.8941 32.3055V12.8785C46.8941 12.498 46.7364 12.1345 46.4586 11.8746C46.1807 11.6146 45.8078 11.4808 45.4278 11.5069C41.3234 11.781 37.2373 10.8934 33.6118 8.94015L32.6538 8.42399C32.2466 8.20453 31.7567 8.20453 31.3496 8.42399L30.3916 8.94015C26.766 10.8934 22.6799 11.7807 18.5756 11.5069C18.195 11.481 17.8227 11.6146 17.5448 11.8746C17.2668 12.1345 17.1093 12.498 17.1093 12.8785V32.3053C17.1093 36.8749 19.8214 40.9667 24.0187 42.7296L31.4693 45.859C31.6395 45.9305 31.8206 45.9663 32.0017 45.9663C32.1828 45.9663 32.3637 45.9305 32.5341 45.859L39.9847 42.7296C44.182 40.9668 46.8941 36.875 46.8941 32.3055ZM38.9199 40.1949L32.0017 43.1007L25.0835 40.1949C21.9096 38.8617 19.8587 35.7651 19.8587 32.3055V14.3045C23.9805 14.3311 28.0463 13.3268 31.6957 11.3606L32.0016 11.1958L32.3074 11.3606C35.9053 13.2989 39.9058 14.3051 43.9689 14.3051C44.0274 14.3051 44.0859 14.3049 44.1444 14.3045V32.3055C44.1446 35.7649 42.0938 38.8617 38.9199 40.1949Z" fill="#C7183A"/>
<path d="M31.9964 32.0087C31.6563 32.0087 31.3267 31.8825 31.0726 31.6519L27.1929 28.1308C26.6307 27.6206 26.5886 26.7512 27.0988 26.189C27.6091 25.6268 28.4785 25.5846 29.0407 26.0949L31.8064 28.6049L36.0453 22.9942C36.5029 22.3883 37.365 22.2682 37.9709 22.726C38.5767 23.1835 38.6968 24.0457 38.2391 24.6515L33.0936 31.4625C32.8609 31.7705 32.5093 31.9665 32.1249 32.0025C32.0819 32.0067 32.039 32.0087 31.9964 32.0087Z" fill="#07368F"/>
</svg>
