<svg width="40" height="40" viewBox="0 0 40 40" fill="none" xmlns="http://www.w3.org/2000/svg">
<path d="M11.8281 23.5H27.4948V22.4229C27.4948 20.9868 26.7767 19.8281 25.3406 18.9469C23.9045 18.0656 22.0115 17.625 19.6615 17.625C17.3115 17.625 15.4184 18.0656 13.9823 18.9469C12.5462 19.8281 11.8281 20.9868 11.8281 22.4229V23.5ZM19.6615 15.6667C20.7385 15.6667 21.6606 15.2832 22.4276 14.5161C23.1946 13.7491 23.5781 12.8271 23.5781 11.75C23.5781 10.6729 23.1946 9.75087 22.4276 8.98385C21.6606 8.21684 20.7385 7.83333 19.6615 7.83333C18.5844 7.83333 17.6623 8.21684 16.8953 8.98385C16.1283 9.75087 15.7448 10.6729 15.7448 11.75C15.7448 12.8271 16.1283 13.7491 16.8953 14.5161C17.6623 15.2832 18.5844 15.6667 19.6615 15.6667ZM0.078125 39.1667V3.91667C0.078125 2.83958 0.461632 1.91753 1.22865 1.15052C1.99566 0.383507 2.91771 0 3.99479 0H35.3281C36.4052 0 37.3273 0.383507 38.0943 1.15052C38.8613 1.91753 39.2448 2.83958 39.2448 3.91667V27.4167C39.2448 28.4937 38.8613 29.4158 38.0943 30.1828C37.3273 30.9498 36.4052 31.3333 35.3281 31.3333H7.91146L0.078125 39.1667ZM6.24687 27.4167H35.3281V3.91667H3.99479V29.6198L6.24687 27.4167Z" fill="#C7183A"/>
</svg>
