<svg width="64" height="64" viewBox="0 0 64 64" fill="none" xmlns="http://www.w3.org/2000/svg">
<path d="M11 57H15C15.2652 57 15.5196 56.8946 15.7071 56.7071C15.8946 56.5196 16 56.2652 16 56V50C16 49.7348 15.8946 49.4804 15.7071 49.2929C15.5196 49.1054 15.2652 49 15 49H11C10.7348 49 10.4804 49.1054 10.2929 49.2929C10.1054 49.4804 10 49.7348 10 50V56C10 56.2652 10.1054 56.5196 10.2929 56.7071C10.4804 56.8946 10.7348 57 11 57ZM12 51H14V55H12V51ZM49 57H53C53.2652 57 53.5196 56.8946 53.7071 56.7071C53.8946 56.5196 54 56.2652 54 56V50C54 49.7348 53.8946 49.4804 53.7071 49.2929C53.5196 49.1054 53.2652 49 53 49H49C48.7348 49 48.4804 49.1054 48.2929 49.2929C48.1054 49.4804 48 49.7348 48 50V56C48 56.2652 48.1054 56.5196 48.2929 56.7071C48.4804 56.8946 48.7348 57 49 57ZM50 51H52V55H50V51Z" fill="#C7183A"/>
<path d="M3.00003 40C2.80228 40 2.60898 40.0587 2.44457 40.1686C2.28016 40.2785 2.15202 40.4346 2.07635 40.6173C2.00068 40.8 1.98088 41.0011 2.01945 41.195C2.05802 41.389 2.15322 41.5672 2.29303 41.707L6.00003 45.414V60H3.00003V62H61V60H58V45.414L61.707 41.707C61.8468 41.5672 61.942 41.389 61.9806 41.195C62.0192 41.0011 61.9994 40.8 61.9237 40.6173C61.848 40.4346 61.7199 40.2785 61.5555 40.1686C61.3911 40.0587 61.1978 40 61 40H50V29.414L53.707 25.707C53.8468 25.5671 53.942 25.389 53.9806 25.195C54.0192 25.0011 53.9994 24.8 53.9237 24.6173C53.848 24.4346 53.7199 24.2785 53.5555 24.1686C53.3911 24.0587 53.1978 24 53 24H50V8H54C54.2147 8.00005 54.4236 7.93104 54.596 7.80317C54.7684 7.67529 54.8951 7.49535 54.9573 7.28994C55.0195 7.08452 55.014 6.86453 54.9416 6.66249C54.8691 6.46045 54.7336 6.28708 54.555 6.168L48.555 2.168C48.3905 2.05874 48.1975 2.00031 48 2H16C15.8026 2.00031 15.6095 2.05874 15.445 2.168L9.44503 6.168C9.26645 6.28708 9.13093 6.46045 9.05849 6.66249C8.98604 6.86453 8.98053 7.08452 9.04276 7.28994C9.10499 7.49535 9.23166 7.67529 9.40405 7.80317C9.57644 7.93104 9.7854 8.00005 10 8H14V24H11C10.8023 24 10.609 24.0587 10.4446 24.1686C10.2802 24.2785 10.152 24.4346 10.0764 24.6173C10.0007 24.8 9.98088 25.0011 10.0194 25.195C10.058 25.389 10.1532 25.5671 10.293 25.707L14 29.414V40H3.00003ZM31 60H29V54H31V60ZM35 60H33V54H35V60ZM56 60H37V53C37 52.7348 36.8947 52.4804 36.7071 52.2929C36.5196 52.1054 36.2652 52 36 52H28C27.7348 52 27.4805 52.1054 27.2929 52.2929C27.1054 52.4804 27 52.7348 27 53V60H8.00003V46H56V60ZM13.3 6L16.3 4H47.7L50.7 6H13.3ZM16 12V8H48V12H16ZM48 14V24H16V14H48ZM13.414 26H50.586L48.586 28H15.414L13.414 26ZM48 30V40H16V30H48ZM15 42H58.586L56.586 44H7.41403L5.41403 42H15Z" fill="#C7183A"/>
<path d="M20 32H18V34H20V32Z" fill="#C7183A"/>
<path d="M20 36H18V38H20V36Z" fill="#C7183A"/>
<path d="M24 32H22V34H24V32Z" fill="#C7183A"/>
<path d="M24 36H22V38H24V36Z" fill="#C7183A"/>
<path d="M42 32H40V34H42V32Z" fill="#C7183A"/>
<path d="M42 36H40V38H42V36Z" fill="#C7183A"/>
<path d="M46 32H44V34H46V32Z" fill="#C7183A"/>
<path d="M46 36H44V38H46V36Z" fill="#C7183A"/>
<path d="M20 16H18V18H20V16Z" fill="#C7183A"/>
<path d="M20 20H18V22H20V20Z" fill="#C7183A"/>
<path d="M24 16H22V18H24V16Z" fill="#C7183A"/>
<path d="M24 20H22V22H24V20Z" fill="#C7183A"/>
<path d="M31 16H29V18H31V16Z" fill="#C7183A"/>
<path d="M31 20H29V22H31V20Z" fill="#C7183A"/>
<path d="M35 16H33V18H35V16Z" fill="#C7183A"/>
<path d="M35 20H33V22H35V20Z" fill="#C7183A"/>
<path d="M42 16H40V18H42V16Z" fill="#C7183A"/>
<path d="M42 20H40V22H42V20Z" fill="#C7183A"/>
<path d="M46 16H44V18H46V16Z" fill="#C7183A"/>
<path d="M46 20H44V22H46V20Z" fill="#C7183A"/>
<path d="M31 32H29V34H31V32Z" fill="#C7183A"/>
<path d="M31 36H29V38H31V36Z" fill="#C7183A"/>
<path d="M35 32H33V34H35V32Z" fill="#C7183A"/>
<path d="M35 36H33V38H35V36Z" fill="#C7183A"/>
<path d="M37 48H27V50H37V48Z" fill="#C7183A"/>
</svg>
