<svg width="64" height="64" viewBox="0 0 64 64" fill="none" xmlns="http://www.w3.org/2000/svg">
<g clip-path="url(#clip0_654_3386)">
<path d="M62.7596 32.0009C62.7596 15.0133 48.9885 1.24219 32.0009 1.24219C15.0133 1.24219 1.24219 15.0133 1.24219 32.0009C1.24219 48.9885 15.0133 62.7596 32.0009 62.7596C48.9885 62.7596 62.7596 48.9885 62.7596 32.0009Z" stroke="#C7183A" stroke-width="3" stroke-miterlimit="10"/>
<path d="M50.1965 29.5307C50.197 28.8219 49.9952 28.1277 49.6148 27.5297C49.2344 26.9316 48.6912 26.4545 48.0491 26.1544C47.0953 25.6464 46.3651 24.8011 46.001 23.7836L45.9265 23.585C45.504 22.5759 45.4556 21.449 45.79 20.4074C45.9934 19.7583 46.0152 19.0659 45.853 18.4054C45.6908 17.7448 45.3508 17.1413 44.8698 16.6604C44.3888 16.1794 43.7853 15.8394 43.1248 15.6771C42.4642 15.5149 41.7719 15.5367 41.1228 15.7402C40.0811 16.0746 38.9543 16.0262 37.9452 15.6036L37.7465 15.5167C36.7274 15.1621 35.8804 14.4348 35.3757 13.4811C35.0765 12.8379 34.5997 12.2936 34.0016 11.9122C33.4035 11.5307 32.7088 11.3281 31.9995 11.3281C31.2901 11.3281 30.5954 11.5307 29.9973 11.9122C29.3992 12.2936 28.9224 12.8379 28.6232 13.4811C28.1196 14.4309 27.278 15.1573 26.2648 15.5167L26.0538 15.6036C25.0446 16.0262 23.9178 16.0746 22.8761 15.7402C22.2271 15.5367 21.5347 15.5149 20.8741 15.6771C20.2136 15.8394 19.6101 16.1794 19.1291 16.6604C18.6482 17.1413 18.3081 17.7448 18.1459 18.4054C17.9837 19.0659 18.0055 19.7583 18.2089 20.4074C18.5473 21.4476 18.5033 22.5744 18.0848 23.585C18.0507 23.6488 18.0216 23.7152 17.9979 23.7836C17.6338 24.8011 16.9036 25.6464 15.9498 26.1544C15.3066 26.4537 14.7623 26.9304 14.3809 27.5286C13.9995 28.1267 13.7969 28.8213 13.7969 29.5307C13.7969 30.2401 13.9995 30.9347 14.3809 31.5328C14.7623 32.131 15.3066 32.6077 15.9498 32.907C16.9028 33.4101 17.6333 34.2513 17.9979 35.2654C18.0215 35.3378 18.0506 35.4084 18.0848 35.4764C18.476 36.478 18.5024 37.5853 18.1593 38.6044C17.9558 39.2535 17.934 39.9458 18.0962 40.6064C18.2585 41.2669 18.5985 41.8704 19.0795 42.3514C19.5604 42.8324 20.1639 43.1724 20.8245 43.3346C21.485 43.4968 22.1774 43.475 22.8265 43.2716C23.8657 42.9265 24.9949 42.9706 26.0041 43.3957L26.2151 43.4826C27.2298 43.8462 28.0714 44.577 28.5735 45.5307C28.8728 46.1739 29.3495 46.7182 29.9477 47.0996C30.5458 47.481 31.2404 47.6836 31.9498 47.6836C32.6592 47.6836 33.3538 47.481 33.9519 47.0996C34.5501 46.7182 35.0268 46.1739 35.3261 45.5307C35.8303 44.5738 36.6769 43.8424 37.6969 43.4826L37.8955 43.3957C38.9047 42.9706 40.0339 42.9265 41.0732 43.2716C41.7222 43.475 42.4146 43.4968 43.0751 43.3346C43.7357 43.1724 44.3392 42.8324 44.8201 42.3514C45.3011 41.8704 45.6412 41.2669 45.8034 40.6064C45.9656 39.9458 45.9438 39.2535 45.7403 38.6044C45.4059 37.5627 45.4543 36.4359 45.8769 35.4268L45.9514 35.2157C46.316 34.2016 47.0465 33.3605 47.9995 32.8573C48.6433 32.5681 49.1917 32.1018 49.5806 31.5128C49.9696 30.9238 50.1832 30.2364 50.1965 29.5307Z" stroke="#C7183A" stroke-width="3" stroke-miterlimit="10"/>
<path d="M25.4688 29.5915L29.7884 33.8987L38.5269 25.1602" stroke="#C7183A" stroke-width="3" stroke-linecap="round" stroke-linejoin="round"/>
<path d="M20.1044 43.0977L16.5295 49.7757C16.4826 49.8654 16.4622 49.9666 16.4706 50.0675C16.479 50.1684 16.516 50.2648 16.5772 50.3455C16.6383 50.4262 16.7212 50.4878 16.816 50.5232C16.9109 50.5586 17.0139 50.5662 17.1129 50.5453L22.1525 49.5026C22.2617 49.4791 22.3755 49.4903 22.478 49.5349C22.5804 49.5794 22.6663 49.655 22.7235 49.7509L24.3123 52.3824C24.3587 52.465 24.4263 52.5339 24.5081 52.5818C24.5899 52.6297 24.683 52.6549 24.7778 52.6549C24.8726 52.6549 24.9657 52.6297 25.0475 52.5818C25.1293 52.5339 25.1969 52.465 25.2433 52.3824L28.632 45.6423M43.4527 43.2838L46.9283 49.7881C46.9752 49.8778 46.9957 49.979 46.9872 50.0799C46.9788 50.1808 46.9419 50.2773 46.8807 50.3579C46.8195 50.4386 46.7367 50.5003 46.6418 50.5356C46.5469 50.571 46.444 50.5787 46.3449 50.5577L41.3053 49.515C41.1962 49.4915 41.0823 49.5027 40.9799 49.5473C40.8775 49.5918 40.7916 49.6674 40.7344 49.7633L39.1455 52.3948C39.0991 52.4775 39.0316 52.5463 38.9498 52.5942C38.8679 52.6421 38.7749 52.6673 38.6801 52.6673C38.5852 52.6673 38.4922 52.6421 38.4103 52.5942C38.3285 52.5463 38.261 52.4775 38.2146 52.3948L35.0742 46.1884" stroke="#C7183A" stroke-width="3" stroke-miterlimit="10"/>
</g>
<defs>
<clipPath id="clip0_654_3386">
<rect width="64" height="64" fill="white"/>
</clipPath>
</defs>
</svg>
