<svg width="64" height="64" viewBox="0 0 64 64" fill="none" xmlns="http://www.w3.org/2000/svg">
<g clip-path="url(#clip0_654_3462)">
<path d="M29.5375 8.2C29.6875 8.2 29.875 8.275 30.0375 8.5C29.3125 7.4625 30.85 7.9125 30.9375 6.925C31.8125 6.275 31.5 5.85 31.75 5.825L32.025 5.6C31.4875 5.8 31.3 5.8375 31.15 5.8375H30.9C30.7125 5.8375 30.4 5.875 29.6625 6.1C27.975 6.225 26.7625 8.05 26.1875 8.1C25.6 8.4125 25.625 8.475 25.7625 8.475C25.8 8.475 25.85 8.4625 25.9 8.4625C25.95 8.4625 25.9875 8.45 26.025 8.45C26.1625 8.45 26.125 8.5125 25.325 8.8875C25.5125 8.9375 23.925 9.6375 23.9125 10.7375C23.8625 11.1625 24.0375 11.45 24.325 11.45C24.575 11.45 24.8875 11.2625 25.225 10.7875C26.35 9.4875 28.725 9.3625 29.75 8.575C29.1125 8.525 29.2375 8.2 29.5375 8.2ZM23.825 8.6375C23.7125 8.6375 23.8625 8.5 24.025 8.3625C24.2 8.225 24.4 8.0875 24.4 8.0875L24.3875 8.1C25.0625 7.8375 24.65 7.775 25.0125 7.6H24.9875C24.9125 7.6 25.05 7.5 25.175 7.3875C25.3 7.2875 25.4125 7.175 25.3 7.175C25.2375 7.175 25.075 7.2125 24.8 7.325C24.8875 7.2 25.225 7.1125 25.7 6.85C25.0125 7.075 24.475 7.2125 24.4125 7.2125C24.3625 7.2125 24.65 7.1125 25.5125 6.85C25.55 6.85 25.5875 6.8625 25.6125 6.8625C25.7 6.8625 25.7375 6.8375 25.725 6.8125C25.7125 6.7875 25.6625 6.775 25.575 6.775C24.3375 6.875 23.4125 7.65 23.6875 7.75C23.85 7.7 23.9625 7.675 24.0375 7.675C24.2 7.675 24.125 7.8125 23.8 8.0125C23.95 8.3625 21.3 9.2625 21 9.5875C21.15 9.5 21.25 9.475 21.3 9.475C21.5 9.475 21.2375 9.8625 20.975 10.05C21.1375 10.2 21.2625 10.25 21.3625 10.25C21.625 10.25 21.7375 9.8875 21.9625 9.775C22.0125 9.875 22.0625 9.925 22.125 9.925C22.3375 9.925 22.6 9.4 22.8125 9.125C22.875 9.1875 22.95 9.2375 23.05 9.2375C23.25 9.2375 23.55 9.075 24.025 8.6125C23.925 8.625 23.85 8.6375 23.825 8.6375ZM20.95 10.9375C20.5 11.2125 20.2625 11.325 20.1625 11.325C19.975 11.325 20.225 10.975 20.45 10.6125C20.675 10.2625 20.875 9.9125 20.5875 9.9125C20.45 9.9125 20.2 9.9875 19.8 10.1875C18.7125 10.9125 16.875 12.9125 16.0625 12.9125H15.9875C17.3 11.95 16.9125 10.0625 18.75 9.575C20.5625 8.5375 21.8 8.8625 23.4125 7.675C22.9375 7.9125 22.2375 8.175 22.075 8.175C21.975 8.175 22.125 8.05 22.775 7.7375C22.7125 7.75 22.6625 7.7625 22.625 7.7625C22.1875 7.7625 25.5 6.575 25.6625 6.55C24.3 6.7375 22.1 7.875 21.8 7.875C21.7625 7.875 21.7625 7.8625 21.7625 7.8375C21.8125 7.8 21.8125 7.775 21.7625 7.775C21.6 7.775 20.925 8 20.2375 8.225C19.5625 8.45 18.875 8.6875 18.725 8.6875C18.675 8.6875 18.675 8.6625 18.75 8.6125C12.85 11.9625 7.925 17.6125 6.3875 24.3125C7.025 25.775 6.5875 28.5625 7.6375 29.375C8.8375 30.3875 6.6125 33.325 7.2 35.1375C7.8 38.4125 10.3875 40.65 10.6625 44C11.1375 46.3 12.875 49.1125 13.6 50.575C14.15 51.125 15.6625 52.7125 15.925 52.7125C16.025 52.7125 15.9625 52.475 15.5625 51.8375C15.3125 51.125 13.8625 49.2625 14.5625 49.2625C14.6 49.2625 14.6375 49.2625 14.6875 49.275C13.825 48.4 16.6 48.6375 14.6625 47.45C14.4375 47.175 14.3875 47.0875 14.4375 47.0875C14.5 47.0875 14.675 47.1875 14.875 47.2875C15.0875 47.3875 15.3375 47.4875 15.5375 47.4875C15.85 47.4875 16.0625 47.275 15.9375 46.5C15.9875 46.525 16.0375 46.525 16.075 46.525C16.4 46.525 16.2875 45.8875 16.3125 45.25C16.3375 44.6125 16.5 43.975 17.375 43.975C17.475 43.975 17.5875 43.9875 17.7 44C19.725 42.9 17.9625 39.8625 20.2875 38.75C20.2 36.225 16.8125 36.1 15.5375 35.075C15.325 35.2 15.125 35.2375 14.925 35.2375C14.7 35.2375 14.5 35.1875 14.325 35.125C14.15 35.075 13.9875 35.0125 13.875 35.0125C13.85 35.0125 13.825 35.0125 13.8 35.025C15.975 34.45 14.3875 31.425 12.5875 31.425H12.4625C12.325 30.1125 11.65 30.6125 11.575 29.525C11.4625 29.5875 11.35 29.6125 11.2375 29.6125C10.9375 29.6125 10.6625 29.4 10.425 29.2C10.1875 28.9875 9.9875 28.7875 9.8125 28.7875C9.675 28.7875 9.55 28.925 9.4375 29.325C9.5625 28.7125 9.525 28.5125 9.4 28.5125C9.275 28.5125 9.05 28.725 8.8 28.9375C8.5625 29.15 8.2875 29.3625 8.075 29.3625H8.0125C6.55 28.325 8.025 26.4875 7.25 25.075C7.75 24.5375 7.95 23.625 7.725 23.625C7.6125 23.625 7.3875 23.85 7.0375 24.4625C6.5375 23.1875 7.8625 20.3 8.9875 20.1375C9.025 20.1375 9.05 20.125 9.0875 20.125C9.2875 20.125 9.4875 20.225 9.6625 20.4375C9.7625 21.025 9.5125 22.2625 9.6125 22.2625C9.6625 22.2625 9.7625 22.0125 10.0125 21.3625C10.3375 19.875 12.6125 18.8 12.85 17.8875C12.8625 17.9 12.8625 17.9 12.875 17.9C13.1375 17.9 14.825 16.4125 15.5625 16.25C15.85 15.9625 16.05 15.8625 16.2 15.8625C16.3625 15.8625 16.45 15.9875 16.5125 16.1C16.575 16.225 16.625 16.3375 16.6875 16.3375C16.7375 16.3375 16.8 16.2625 16.9125 16.05C16.525 15.2875 17.525 14.5625 17.25 14.5625C17.15 14.5625 16.85 14.6625 16.2375 14.9125C16.1375 14.9625 16.0875 14.975 16.0625 14.975C15.9875 14.975 16.2875 14.775 16.725 14.575C17.1625 14.375 17.7125 14.175 18.175 14.175C18.4 14.175 18.6 14.225 18.75 14.35C20.6875 13.8875 19.625 13.25 19.725 13.25H19.75C20.3 12.925 20.1375 11.7 20.95 10.9375ZM12.2875 16.05C12.2625 16.05 12.375 15.8875 12.75 15.425C13.525 14.85 14.15 14.4625 13.4375 14.0875C13.75 13.95 14.05 13.7875 14.3375 13.6125C14.325 14.225 13.8125 15.7125 13.5375 15.7125C13.475 15.7125 13.4125 15.625 13.3875 15.4375C13.55 15.15 13.5625 15.0375 13.5 15.0375C13.4 15.0375 13.1125 15.2875 12.8375 15.55C12.5625 15.7875 12.3125 16.05 12.2875 16.05ZM13 16.3875C12.6625 16.3875 12.725 16.175 13.7625 15.9625C14.2125 15.9 13.8625 15.925 14.4 15.8C13.875 16.225 13.2875 16.3875 13 16.3875ZM32.4375 15.125C32.5875 15.1 32.7 15.1 32.7875 15.1C33.15 15.1 32.9875 15.25 32.775 15.4C32.5625 15.55 32.3 15.7 32.45 15.7C32.5375 15.7 32.775 15.65 33.2625 15.5125C35.725 15.3375 32.3 13.25 32.85 12.55L32.7 12.5C31.6875 13.7875 33.375 13.8125 32.4375 15.125ZM31.4125 15.175C31.5875 15.175 31.8125 14.975 32.05 14.4125C32.375 14.025 32.2375 13.975 31.8875 13.7875C30.925 14.0375 31.0125 15.175 31.4125 15.175ZM40.0375 19.1375C40 19.1375 39.975 19.15 39.95 19.1625C40.05 19.1875 40.15 19.2125 40.25 19.2125C40.15 19.1625 40.0875 19.1375 40.0375 19.1375ZM56.825 22.25C57.0375 22.7125 57.15 22.9 57.1625 22.9C57.25 22.9 55.5875 18.85 54.9 18.125C51.3125 12.225 45.4125 7.7125 38.6875 6.025H38.675C38.5 6.025 38.7 6.1125 38.9375 6.2C39.175 6.2875 39.4625 6.375 39.4625 6.375C39.4625 6.375 39.275 6.3125 38.7 6.15C38.0625 5.9625 37.4125 5.825 36.75 5.775C36.6375 5.8125 39.4875 6.9375 41.4 7.525C40.7625 7.325 40.1 7.15 39.9375 7.15C39.825 7.15 39.9375 7.225 40.4 7.425C39.8375 7.2625 39.6 7.1875 39.575 7.1875C39.5375 7.1875 40.325 7.45 41.0625 7.7125C41.8125 7.975 42.525 8.2375 42.325 8.2375C42.275 8.2375 42.1375 8.2125 41.925 8.175C42.5625 8.525 42.7875 8.6625 42.75 8.6625C42.6875 8.6625 41.9 8.2875 41.0875 7.9125C40.2875 7.5375 39.475 7.1625 39.3625 7.1625C39.3 7.1625 39.4625 7.2875 40.0125 7.6125C40.7625 7.9375 41.5125 8.2625 41.3 8.2625C41.2 8.2625 40.9125 8.2 40.35 8.0375C41.6 8.675 39.4625 8.425 40.1875 9.2875C39.7875 8.9125 39.625 8.7875 39.5875 8.7875C39.55 8.7875 39.65 8.9375 39.75 9.0875C39.85 9.2375 39.925 9.3875 39.8375 9.3875H39.8125C40.6875 10.3375 39.2 9.4875 40.2625 10.3375C39.4625 9.975 38.1 9.375 38.7125 9.375C38.8625 9.375 39.15 9.4125 39.6 9.5125C38.7875 8.5625 36.4875 8.525 36.4375 8.4125C35.8625 8.45 35.85 8.8875 35.95 9.6875C35.9375 10.95 34.7 10.975 34.8625 11.7C34.8625 11.6875 34.875 11.6875 34.875 11.6875C34.9 11.6875 34.9125 11.9375 34.9875 12.2C35.075 12.45 35.225 12.7125 35.55 12.7125C35.725 12.7125 35.95 12.6375 36.225 12.45C36.6125 13.15 36.9625 13.4 37.2375 13.4C37.65 13.4 37.9 12.8375 37.875 12.325C37.425 12.075 36.8375 10 37.4875 10C37.5875 10 37.7125 10.05 37.875 10.1625C36.8625 12.65 41.875 10.9875 39.0375 12.125C39.675 12.9625 38.6375 12.925 38.9375 13.9375C38.45 14.075 37.9125 14.2 37.4375 14.2C36.7375 14.2 36.2 13.9 36.2625 12.85C35.3875 13.3125 37.1375 14.875 35.4 14.875H35.3C34.4625 16.4125 31.325 15.8875 33.7875 17.5125C33.925 18.225 33.475 18.35 32.9 18.35C32.75 18.35 32.5875 18.3375 32.425 18.325C32.2625 18.3125 32.1 18.3125 31.95 18.3125C31.3 18.3125 30.8375 18.475 31.2375 19.4875C30.95 20.5375 31.625 21 32.45 21C33.45 21 34.675 20.35 34.7625 19.275C35.3 18.4625 35.9875 18.125 36.7 18.125C37.825 18.125 39.0125 18.975 39.7875 20.025C39.85 20.125 39.9 20.1625 39.925 20.1625C39.9875 20.1625 39.925 19.9125 39.9 19.6625C39.875 19.4625 39.875 19.2625 39.95 19.2C38.8375 18.8875 37.9875 17.5375 38.3625 17.5375C38.4875 17.5375 38.75 17.6875 39.175 18.0875H39.2375C39.9375 18.0875 40.4875 18.6375 40.9125 19.1875C41.35 19.7375 41.675 20.2875 41.9625 20.2875C42.075 20.2875 42.1875 20.1875 42.2875 19.9625C42.2375 19.8875 42.1125 19.675 42.05 19.4625C41.975 19.2 41.975 18.9375 42.3125 18.9375C42.45 18.9375 42.6375 18.9875 42.9 19.0875C43.75 18.8625 42.3625 16.65 43.4875 16.65C43.6 16.65 43.7375 16.675 43.9125 16.725C43.9 17.1125 44.075 17.25 44.2375 17.25C44.5625 17.25 44.8875 16.7875 44.1 16.65C44.4 16.3625 44.575 16.25 44.7 16.25C45.1375 16.25 44.7875 17.7 46.3 17.7C46.8125 18.9125 41.85 17.7875 43.4375 20.1125C43.8 20.375 44.25 20.425 44.6875 20.425C44.825 20.425 44.95 20.425 45.075 20.4125C45.2 20.4125 45.325 20.4 45.4375 20.4C46.2125 20.4 46.7625 20.5875 46.425 22.1875C46.0125 22.4875 45.55 22.5875 45.075 22.5875C44.65 22.5875 44.225 22.5125 43.8125 22.4375C43.4 22.3625 43 22.2875 42.6375 22.2875C42.075 22.2875 41.625 22.475 41.35 23.125C39.8875 22.525 37.9625 22.5 38.15 20.6875C35.6 21.05 32.9375 20.8625 31.0625 22.425C30.95 24.7125 27.025 25.45 27.975 28.05C26.8375 30.45 29.35 33.8125 31.9125 33.8125C32 33.8125 32.1 33.8125 32.1875 33.8C33.5875 33.7875 35 33.1625 36.2375 33.1625C36.875 33.1625 37.45 33.325 37.95 33.825C38.0625 33.8125 38.1625 33.8 38.25 33.8C40.1625 33.8 37.6375 36.8375 39.925 37.35C42 39.5 38.65 41.7125 40.2875 43.775C40.4625 45.3875 41.2625 46.7375 41.2625 48.3125C41.475 48.3375 41.675 48.35 41.8875 48.35C44.525 48.35 46.175 46.05 47.725 44.3125C47.25 41.7125 51.4125 41.2 49.9875 38.2875C49.325 35.1 53.125 33.2125 52.9125 30.025C52.95 29.575 52.825 29.4375 52.6375 29.4375C52.45 29.4375 52.175 29.575 51.9125 29.7C51.6375 29.8375 51.3375 29.9625 51.1 29.9625C50.7875 29.9625 50.55 29.75 50.525 29.05C48.6875 27.3375 47.85 25.0125 46.1375 23.125C48.3625 24.2 49.625 26.625 50.65 28.825C50.7375 28.85 50.825 28.8625 50.925 28.8625C52.7375 28.8625 55.2625 24.525 52.5125 23.475C52.3625 23.8875 52.1625 24.0375 51.925 24.0375C51.5125 24.0375 51.0375 23.5375 50.7 23.05C50.3625 22.55 50.1875 22.05 50.375 22.05C50.5 22.05 50.775 22.25 51.25 22.775C51.7875 23.1125 52.3125 23.2 52.8625 23.2C53.4 23.2 53.95 23.1125 54.525 23.0625C55.25 23.35 55.5625 24.275 55.7875 24.275C55.825 24.275 55.875 24.2375 55.9125 24.15C56.4875 25.525 57.15 27.975 57.75 28.6375C57.4375 26.5375 57.3625 24.3125 56.825 22.25ZM49.85 19.3625C48.4375 19 47.975 17.25 46.8625 16.2375C46.85 15.9625 47.2625 16.0125 47.1625 15.55C48.6625 16.0125 48.175 16.475 48.0375 16.5625C48.5875 17.475 50.125 18.1 49.85 19.3625ZM30.4375 9.85C29.075 10.25 28.8875 9.8125 29.125 10.65C29.225 10.725 29.4125 10.75 29.6 10.75C30.2625 10.7625 31.1625 10.375 30.4375 9.85ZM50.45 44.2875C52.2375 42.775 52.4625 40.975 52.55 39.15C51.75 40.7125 49.375 42.4375 50.45 44.2875ZM42.3125 19.9125C42.3 19.925 42.3 19.925 42.3 19.9375C42.3125 19.9625 42.325 19.9625 42.325 19.9625C42.325 19.9625 42.325 19.95 42.3125 19.9125ZM32 0C14.325 0 0 14.325 0 32C0 49.675 14.325 64 32 64C49.675 64 64 49.675 64 32C64 14.325 49.675 0 32 0ZM32 61.5375C15.6875 61.5375 2.4625 48.3125 2.4625 32C2.4625 15.6875 15.6875 2.4625 32 2.4625C48.3125 2.4625 61.5375 15.6875 61.5375 32C61.5375 48.3125 48.3125 61.5375 32 61.5375Z" fill="#C7183A"/>
</g>
<defs>
<clipPath id="clip0_654_3462">
<rect width="64" height="64" fill="white"/>
</clipPath>
</defs>
</svg>
