<svg width="125" height="125" viewBox="0 0 125 125" fill="none" xmlns="http://www.w3.org/2000/svg">
<path d="M54.6069 122.292C54.1791 121.925 53.2203 120.757 53.9581 119.401C54.2308 118.905 54.8049 118.658 55.3274 118.44C55.8639 118.259 56.3694 117.997 56.8259 117.663C57.6383 116.974 57.8622 115.827 58.4019 114.904C59.022 113.845 60.176 113.054 61.399 113.108C62.797 113.174 63.9625 114.313 64.4907 115.615C65.0189 116.917 65.039 118.36 65.0649 119.765C65.0649 120.542 65.0362 121.42 64.4649 121.945C63.8936 122.47 63.1444 122.432 62.4324 122.412L54.7906 122.177" fill="#F5F5F5"/>
<path d="M69.2239 101.297H49.1289L52.7489 122.862C52.8242 123.313 53.026 123.732 53.331 124.073C53.636 124.413 54.0314 124.66 54.4713 124.784L54.5431 124.804C54.6005 124.818 54.6579 124.838 54.7211 124.85C54.8556 124.875 54.9919 124.891 55.1287 124.896V124.921L55.2263 124.907H64.1858C64.3507 124.907 64.5151 124.891 64.6767 124.858C65.1999 124.777 65.6821 124.527 66.0497 124.147C66.4173 123.766 66.6499 123.276 66.712 122.75L68.446 107.885L68.5235 107.294L69.2124 101.403L69.2239 101.297ZM65.4317 115.064H63.3705L63.5772 108.806H65.9685L65.4317 115.064ZM66.1695 108.806H68.1417L67.4068 115.064H65.6327L66.1695 108.806ZM60.2759 121.999L60.1496 116.549H63.1208L62.9399 121.999H60.2759ZM57.0636 116.549H59.9515L60.0749 121.999H57.4913L57.0636 116.549ZM57.2875 121.999H54.8675C54.6378 120.53 54.3393 118.623 54.0063 116.549H56.8569L57.2875 121.999ZM56.9631 115.052L56.4751 108.794H59.785L59.9314 115.052H56.9631ZM60.1209 115.052L59.9773 108.794H63.3849L63.1753 115.052H60.1209ZM59.9429 107.308L59.808 101.509H63.626L63.4337 107.308H59.9429ZM59.7419 107.308H56.3459L55.8923 101.509H59.6042L59.7419 107.308ZM56.1507 107.308H52.5537C52.4274 106.505 52.3068 105.748 52.1977 105.066C51.8245 102.722 51.6838 101.842 51.6035 101.509H55.6942L56.1507 107.308ZM56.2684 108.808L56.7535 115.067H53.7795C53.679 114.433 53.5785 113.79 53.4924 113.148C53.2599 111.671 53.0245 110.194 52.8063 108.808H56.2684ZM53.5843 115.067H51.6437L50.593 108.808H52.6025C52.8953 110.727 53.2312 112.875 53.5785 115.052L53.5843 115.067ZM53.8197 116.57C54.1067 118.451 54.3938 120.298 54.6809 122.019H52.8178L51.9049 116.57H53.8197ZM63.1466 122.019L63.3275 116.57H65.3111L64.8461 122.019H63.1466ZM63.6346 107.32L63.827 101.521H66.5972L66.1035 107.32H63.6346ZM51.4197 101.521C51.5001 101.942 51.8676 104.222 52.3585 107.32H50.349L49.3758 101.521H51.4197ZM66.6001 122.019H65.0442L65.5092 116.57H67.2316L66.6001 122.019ZM68.3225 107.32H66.2987L66.7953 101.521H69.0029L68.3225 107.32Z" fill="#E0E0E0"/>
<path d="M70.1998 79.9843L59.3571 83.36C58.9974 83.4683 58.6094 83.4314 58.2767 83.2571C57.9439 83.0828 57.6928 82.7851 57.5773 82.4279L52.9009 67.4335C52.7925 67.074 52.8295 66.6865 53.0039 66.354C53.1784 66.0215 53.4763 65.7707 53.8338 65.6552L60.7092 63.5156L67.7425 67.3388L71.1328 78.2061C71.2412 78.5655 71.2042 78.953 71.0297 79.2855C70.8553 79.618 70.5573 79.8689 70.1998 79.9843Z" fill="#EBEBEB"/>
<path d="M60.7109 63.5156L62.0286 67.7346C62.1342 68.0674 62.3675 68.3449 62.6774 68.5062C62.9874 68.6674 63.3487 68.6994 63.6821 68.595L67.7442 67.3302L60.7109 63.5156Z" fill="#E0E0E0"/>
<path d="M61.0661 67.8473C61.0833 67.9018 59.9752 68.2947 58.5887 68.7249C57.2021 69.1551 56.0682 69.462 56.051 69.4075C56.0338 69.353 57.1447 68.9601 58.5284 68.5299C59.9121 68.0997 61.0518 67.7871 61.0661 67.8473Z" fill="#FAFAFA"/>
<path d="M65.0493 69.2226C65.0665 69.2771 63.2321 69.8966 60.9528 70.605C58.6734 71.3134 56.8103 71.8469 56.7931 71.7924C56.7759 71.7379 58.6103 71.1184 60.8925 70.41C63.1747 69.7016 65.0321 69.1681 65.0493 69.2226Z" fill="#FAFAFA"/>
<path d="M66.4178 70.9801C66.435 71.0346 64.4341 71.7057 61.9481 72.4801C59.462 73.2545 57.4353 73.8367 57.4181 73.7822C57.4009 73.7277 59.4017 73.0566 61.8878 72.2822C64.3738 71.5078 66.4006 70.9256 66.4178 70.9801Z" fill="#FAFAFA"/>
<path d="M67.0115 72.859C67.0288 72.9135 65.0279 73.5846 62.5418 74.359C60.0558 75.1334 58.0291 75.7156 58.0118 75.6611C57.9946 75.6066 59.9955 74.9355 62.4815 74.1611C64.9676 73.3867 66.9857 72.8045 67.0115 72.859Z" fill="#FAFAFA"/>
<path d="M67.5818 74.733C67.5991 74.7875 65.5982 75.4587 63.115 76.2331C60.6318 77.0074 58.5994 77.5897 58.5821 77.5352C58.5649 77.4807 60.5658 76.8124 63.0519 76.038C65.5379 75.2636 67.5818 74.6871 67.5818 74.733Z" fill="#FAFAFA"/>
<path d="M68.1727 76.6207C68.1899 76.6752 66.1891 77.3464 63.7059 78.1207C61.2227 78.8951 59.1931 79.4774 59.1759 79.4229C59.1587 79.3684 61.1596 78.6972 63.6427 77.9228C66.1259 77.1485 68.1584 76.5662 68.1727 76.6207Z" fill="#FAFAFA"/>
<path d="M116.21 21.4755L105.626 17.3712C105.278 17.2312 104.998 16.9602 104.847 16.6165C104.696 16.2728 104.686 15.8837 104.819 15.5328L110.518 0.905429C110.585 0.73167 110.686 0.572882 110.815 0.438156C110.944 0.30343 111.098 0.195412 111.268 0.120284C111.439 0.045157 111.623 0.00439649 111.809 0.000336448C111.996 -0.00372359 112.181 0.0289963 112.355 0.0966234L119.07 2.7066L122.181 10.0576L118.051 20.6695C117.91 21.0177 117.639 21.2971 117.295 21.4478C116.951 21.5985 116.562 21.6084 116.21 21.4755Z" fill="#EBEBEB"/>
<path d="M119.066 2.69141L117.461 6.81001C117.397 6.97222 117.365 7.14569 117.367 7.32036C117.37 7.49502 117.408 7.6674 117.478 7.82748C117.547 7.98757 117.649 8.13218 117.775 8.25293C117.901 8.37367 118.05 8.46815 118.214 8.53087L122.178 10.071L119.066 2.69141Z" fill="#E0E0E0"/>
<path d="M116.637 6.29478C116.617 6.34927 115.506 5.96495 114.154 5.43435C112.802 4.90375 111.722 4.43912 111.742 4.38749C111.763 4.33586 112.876 4.71732 114.229 5.24792C115.581 5.77852 116.671 6.24315 116.637 6.29478Z" fill="#FAFAFA"/>
<path d="M118.898 9.85354C118.878 9.90517 117.058 9.24837 114.833 8.38221C112.608 7.51604 110.814 6.7732 110.84 6.72157C110.866 6.66995 112.68 7.33248 114.908 8.19291C117.135 9.05334 118.918 9.79905 118.898 9.85354Z" fill="#FAFAFA"/>
<path d="M118.867 12.0758C118.847 12.1303 116.858 11.4075 114.438 10.4639C112.018 9.52033 110.074 8.71439 110.074 8.66277C110.074 8.61114 112.084 9.33104 114.504 10.2746C116.924 11.2182 118.887 12.0242 118.867 12.0758Z" fill="#FAFAFA"/>
<path d="M118.148 13.9266C118.128 13.9782 116.138 13.2583 113.718 12.3147C111.298 11.3711 109.343 10.5652 109.363 10.5107C109.384 10.4562 111.373 11.1818 113.793 12.1226C116.213 13.0633 118.171 13.8578 118.148 13.9266Z" fill="#FAFAFA"/>
<path d="M117.44 15.7508C117.417 15.8025 115.43 15.0826 113.01 14.139C110.59 13.1954 108.632 12.3894 108.652 12.3349C108.673 12.2804 110.662 13.0032 113.085 13.9468C115.508 14.8904 117.46 15.6963 117.44 15.7508Z" fill="#FAFAFA"/>
<path d="M116.722 17.5831C116.699 17.6376 114.713 16.9148 112.293 15.9741C109.873 15.0334 107.915 14.216 107.938 14.1701C107.961 14.1242 109.947 14.8383 112.367 15.7819C114.787 16.7255 116.742 17.5315 116.722 17.5831Z" fill="#FAFAFA"/>
<path d="M16.7726 63.3467C16.9928 63.3835 17.1901 63.5042 17.3229 63.6834C17.4557 63.8627 17.5137 64.0864 17.4846 64.3075C17.4415 64.5943 17.3984 64.8812 17.3812 65.0188L16.4052 71.4176C16.3804 71.5627 16.3008 71.6928 16.1827 71.7809C16.0646 71.869 15.9171 71.9084 15.7707 71.8908L1.11287 69.6623C0.973508 69.6372 0.848354 69.5615 0.761452 69.4498C0.674551 69.3381 0.632033 69.1982 0.64207 69.0571L1.39133 60.7654C1.39953 60.6902 1.42256 60.6173 1.45909 60.551C1.49562 60.4846 1.54493 60.4262 1.60417 60.379C1.66341 60.3318 1.73142 60.2968 1.80427 60.276C1.87712 60.2552 1.95337 60.249 2.02863 60.2578L5.3443 60.7626C5.65683 60.8123 5.94215 60.9695 6.15098 61.2071L6.74521 61.8926L16.7726 63.3467Z" fill="#E0E0E0"/>
<path d="M17.7329 64.376L1.71484 61.9414L0.244302 71.5991L16.2623 74.0336L17.7329 64.376Z" fill="#F5F5F5"/>
<path d="M0.310184 62.617L0.000146902 72.8734C-0.00235355 72.961 0.0271383 73.0466 0.0831247 73.1141C0.139111 73.1817 0.217771 73.2266 0.304443 73.2405L15.9125 75.6124C16.0035 75.6251 16.096 75.6024 16.1707 75.5491C16.2455 75.4957 16.2969 75.4157 16.3144 75.3256L18.634 65.3732C18.6453 65.3255 18.6468 65.276 18.6383 65.2277C18.6298 65.1794 18.6116 65.1333 18.5848 65.0922C18.5579 65.0512 18.523 65.016 18.4821 64.9889C18.4412 64.9618 18.3952 64.9432 18.3469 64.9344L0.729309 62.2585C0.677473 62.2502 0.624444 62.2532 0.573905 62.2674C0.523366 62.2816 0.47653 62.3067 0.436648 62.3408C0.396767 62.3749 0.364796 62.4173 0.342957 62.465C0.321119 62.5127 0.309935 62.5645 0.310184 62.617Z" fill="#EBEBEB"/>
<path d="M37.8127 64.1992C34.655 65.8398 32.2177 68.6591 30.4723 71.7681C28.7269 74.8772 27.6016 78.2816 26.4878 81.6688L25.5117 99.1155C29.1948 92.8545 32.1546 85.492 32.9526 78.273L30.501 78.0522C32.1459 77.8026 33.5239 76.6181 34.4023 75.2013C35.2808 73.7844 35.7315 72.1639 36.1736 70.5607L33.1823 71.0081C35.5448 69.4179 37.2031 66.9793 37.8127 64.1992Z" fill="#455A64"/>
<g opacity="0.3">
<path d="M37.8206 64.1914C34.6628 65.832 32.2255 68.6513 30.4801 71.7603C28.7347 74.8694 27.6094 78.2738 26.4956 81.661L25.5195 99.1077C29.2027 92.8466 32.1624 85.4842 32.9604 78.2652L30.5088 78.0444C32.1538 77.7948 33.5317 76.6103 34.4101 75.1935C35.2886 73.7766 35.7393 72.1561 36.1814 70.5529L33.1901 71.0003C35.5526 69.4101 37.211 66.9715 37.8206 64.1914Z" fill="black"/>
</g>
<path d="M24.9645 103.207C24.9645 103.207 16.9667 93.645 17.0557 84.5158H20.2881C20.2881 84.5158 16.7686 82.2099 17.0557 80.9192C17.3428 79.6286 17.4289 74.7327 17.4289 74.7327L20.3829 75.4727C20.3829 75.4727 18.1667 74.3656 17.8911 72.6046C17.6155 70.8435 18.537 62.7383 18.537 62.7383C18.537 62.7383 22.1369 66.5184 23.245 70.3904C24.3531 74.2623 27.264 78.7825 26.4028 90.5876C25.5416 102.393 24.9645 103.207 24.9645 103.207Z" fill="#455A64"/>
<path d="M29.0188 104.111C29.0188 104.111 37.6855 98.3432 39.6089 90.9836L37.0109 90.2781C37.0109 90.2781 40.3381 89.191 40.3984 88.0925C40.4586 86.9941 41.4576 83.0504 41.4576 83.0504L38.9228 82.9988C38.9228 82.9988 40.9323 82.5915 41.5524 81.2435C42.1725 79.8955 43.1801 73.1641 43.1801 73.1641C43.1801 73.1641 39.4481 75.4184 37.7257 78.2894C36.0033 81.1603 32.6618 84.1575 30.7614 93.8345C28.8609 103.511 29.0188 104.111 29.0188 104.111Z" fill="#455A64"/>
<path d="M20.7266 71.0938C20.7392 71.1253 20.7488 71.1579 20.7553 71.1913L20.8242 71.4781L21.0768 72.6253C21.1887 73.1158 21.3179 73.7209 21.4586 74.4236C21.5993 75.1263 21.7658 75.9265 21.9265 76.8156C22.271 78.5881 22.6327 80.7105 23.003 83.0681C23.3734 85.4257 23.7236 88.0299 24.0451 90.7661C24.3666 93.5023 24.602 96.118 24.7886 98.51C24.9752 100.902 25.0987 103.039 25.1704 104.843C25.2135 105.746 25.2365 106.564 25.2566 107.278C25.2767 107.992 25.2939 108.614 25.2996 109.119C25.3054 109.624 25.2996 110.005 25.2996 110.281V110.582C25.304 110.616 25.304 110.651 25.2996 110.685C25.2959 110.652 25.2959 110.618 25.2996 110.585C25.2996 110.507 25.2996 110.407 25.2996 110.281C25.2996 109.994 25.2766 109.618 25.2594 109.119C25.2422 108.62 25.225 107.998 25.1905 107.281C25.1561 106.564 25.1331 105.749 25.0814 104.848C24.9953 103.044 24.8518 100.902 24.6681 98.5214C24.4843 96.1409 24.226 93.5309 23.9131 90.7948C23.6002 88.0586 23.2384 85.4601 22.8853 83.0996C22.5322 80.7392 22.1705 78.6225 21.8404 76.8472C21.6854 75.9581 21.5275 75.1579 21.3926 74.4523C21.2576 73.7468 21.1399 73.1416 21.0395 72.6483C20.939 72.155 20.8644 71.7878 20.8127 71.501C20.7897 71.3777 20.7696 71.2773 20.7581 71.2142C20.7433 71.1753 20.7327 71.1349 20.7266 71.0938Z" fill="#263238"/>
<path d="M23.8595 109.066C23.8595 109.066 16.5392 100.771 14.2684 95.7548L15.9909 95.0234C14.7479 95.2271 13.4733 94.6936 12.5087 93.8762C11.5441 93.0588 10.8379 92.0005 10.1432 90.9479L12.4025 90.5664C10.3266 89.9738 8.55857 88.6058 7.46484 86.7461C10.1317 87.1849 12.546 88.6476 14.5325 90.4746C16.1116 91.9898 17.5456 93.649 18.8157 95.4307C19.4549 96.2873 20.0115 97.2025 20.4778 98.164C21.7007 100.711 23.8624 106.02 23.8595 109.066Z" fill="#455A64"/>
<path d="M39.7364 77.9923C39.7285 78.0214 39.7169 78.0494 39.7019 78.0755L39.59 78.3164L39.145 79.2371C38.7517 80.0344 38.1977 81.1932 37.5231 82.6301C36.8484 84.067 36.0734 85.785 35.2265 87.7152C34.3796 89.6455 33.5184 91.7765 32.6428 94.025C31.7673 96.2736 30.9864 98.4563 30.3003 100.441C29.6142 102.426 29.0344 104.224 28.5779 105.738C28.1215 107.253 27.7397 108.486 27.4928 109.338L27.2057 110.319C27.1713 110.425 27.1454 110.508 27.1253 110.574C27.1052 110.64 27.0966 110.66 27.0938 110.657C27.095 110.632 27.0989 110.607 27.1052 110.583C27.1225 110.517 27.1426 110.433 27.1713 110.324C27.2344 110.089 27.3205 109.751 27.4325 109.338C27.6622 108.477 28.0066 107.244 28.4746 105.724C28.9425 104.204 29.5052 102.4 30.1769 100.409C30.8486 98.419 31.6381 96.2478 32.5108 93.9878C33.3835 91.7277 34.2763 89.5938 35.0944 87.6779C35.9126 85.762 36.725 84.0354 37.4111 82.6014C38.0972 81.1673 38.6685 80.0201 39.0761 79.2285L39.5469 78.3193C39.5986 78.2247 39.6388 78.1472 39.6732 78.087C39.7077 78.0268 39.7364 77.9895 39.7364 77.9923Z" fill="#263238"/>
<path d="M24.4795 112.62C24.4611 112.571 24.4495 112.52 24.445 112.468C24.4249 112.351 24.4019 112.204 24.3732 112.027C24.3158 111.645 24.2211 111.092 24.0862 110.415C23.9512 109.738 23.7675 108.932 23.5292 108.051C23.291 107.171 22.9781 106.213 22.6077 105.223C22.2374 104.234 21.824 103.319 21.4279 102.496C21.0317 101.673 20.6356 100.947 20.2796 100.351C19.9236 99.754 19.6366 99.2779 19.4184 98.9538L19.1801 98.5752C19.1477 98.5338 19.1225 98.4872 19.1055 98.4375C19.1428 98.4735 19.1756 98.514 19.2031 98.558C19.2748 98.6555 19.361 98.7731 19.4643 98.9193C19.6911 99.2348 20.0011 99.7052 20.3628 100.299C20.7246 100.893 21.1265 101.612 21.537 102.433C21.9475 103.253 22.3551 104.179 22.7341 105.172C23.113 106.164 23.4202 107.142 23.6613 108.003C23.9024 108.863 24.0718 109.698 24.1924 110.383C24.3129 111.069 24.3933 111.622 24.4306 112.007C24.4479 112.187 24.4622 112.333 24.4737 112.451C24.4837 112.507 24.4856 112.564 24.4795 112.62Z" fill="#263238"/>
<path d="M34.1358 110.668H18.1172V113.932H34.1358V110.668Z" fill="#C7183A"/>
<path d="M19.6484 113.934L21.3795 124.913H31.0595L32.6729 113.934H19.6484Z" fill="#C7183A"/>
<path d="M33.1526 113.93C33.1526 113.97 30.1211 114.005 26.3835 114.005C22.6458 114.005 19.6172 113.97 19.6172 113.93C19.6172 113.89 22.6458 113.855 26.3835 113.855C30.1211 113.855 33.1526 113.887 33.1526 113.93Z" fill="#263238"/>
<path d="M86.4867 4.23828H14.957V49.0008H86.4867V4.23828Z" fill="white"/>
<path d="M86.4867 4.23828H14.957V8.33967H86.4867V4.23828Z" fill="#455A64"/>
<path d="M86.4852 48.1094H14.9297V56.1802H86.4852V48.1094Z" fill="#F5F5F5"/>
<path d="M29.6395 52.0126H30.2797L30.4806 52.4313H30.6184L29.9783 51.0977H29.9409L29.3008 52.4313H29.4386L29.6395 52.0126ZM29.961 51.3472L30.2194 51.8893H29.6912L29.961 51.3472Z" fill="#263238"/>
<path d="M30.715 52.7188H29.1992V52.8249H30.715V52.7188Z" fill="#263238"/>
<path d="M20.2204 51.0234H20.1199C19.9747 51.0336 19.8388 51.0985 19.7397 51.205C19.6405 51.3115 19.5856 51.4516 19.5859 51.5971C19.6574 52.0205 19.8418 52.4169 20.1199 52.7443C20.1199 52.7443 20.1572 52.8131 20.2204 52.7443C20.4984 52.4169 20.6829 52.0205 20.7543 51.5971C20.7547 51.4516 20.6997 51.3115 20.6006 51.205C20.5015 51.0985 20.3656 51.0336 20.2204 51.0234ZM20.1687 51.9326C20.1061 51.9326 20.045 51.914 19.993 51.8792C19.941 51.8445 19.9005 51.795 19.8767 51.7372C19.8529 51.6794 19.8468 51.6158 19.8592 51.5545C19.8716 51.4932 19.902 51.437 19.9464 51.393C19.9909 51.349 20.0474 51.3192 20.1089 51.3074C20.1703 51.2955 20.2339 51.3022 20.2915 51.3265C20.3492 51.3508 20.3983 51.3917 20.4327 51.444C20.467 51.4962 20.485 51.5575 20.4845 51.62C20.4845 51.7024 20.4519 51.7815 20.3938 51.8401C20.3358 51.8986 20.2569 51.9319 20.1744 51.9326H20.1687Z" fill="#263238"/>
<path d="M27.319 52.3655C27.319 52.4514 27.2848 52.5339 27.224 52.5946C27.1632 52.6554 27.0806 52.6896 26.9946 52.6896C26.9086 52.6896 26.8261 52.6554 26.7652 52.5946C26.7044 52.5339 26.6702 52.4514 26.6702 52.3655V51.3186C26.6702 51.2631 26.6923 51.2098 26.7316 51.1706C26.7709 51.1313 26.8242 51.1092 26.8798 51.1092C26.9354 51.1092 26.9887 51.1313 27.028 51.1706C27.0673 51.2098 27.0894 51.2631 27.0894 51.3186V52.2049C27.0836 52.2312 27.0691 52.2548 27.0483 52.272C27.0275 52.2892 27.0015 52.2988 26.9745 52.2995C26.9472 52.299 26.9208 52.2894 26.8995 52.2723C26.8782 52.2551 26.8632 52.2314 26.8568 52.2049V51.505H26.7793V52.159V52.1905C26.7861 52.2369 26.8092 52.2794 26.8444 52.3104C26.8796 52.3414 26.9247 52.3589 26.9716 52.3597C27.0184 52.3583 27.0632 52.3406 27.0983 52.3097C27.1334 52.2788 27.1567 52.2367 27.164 52.1905V52.1733C27.1643 52.1685 27.1643 52.1637 27.164 52.159V51.2985C27.164 51.2225 27.1337 51.1495 27.0799 51.0957C27.0261 51.0419 26.9531 51.0117 26.8769 51.0117C26.8008 51.0117 26.7278 51.0419 26.6739 51.0957C26.6201 51.1495 26.5898 51.2225 26.5898 51.2985V52.3941C26.5998 52.4938 26.6464 52.5862 26.7207 52.6535C26.7949 52.7208 26.8915 52.7582 26.9917 52.7584C27.0919 52.7588 27.1885 52.7215 27.2624 52.654C27.3363 52.5866 27.3821 52.4938 27.3908 52.3941V51.505H27.3133L27.319 52.3655Z" fill="#263238"/>
<path d="M23.8707 51.5651L23.5836 50.957L23.2822 51.5651L22.6133 51.6626L23.0984 52.1358L22.9836 52.8012L23.5836 52.4857L24.1836 52.8012L24.0687 52.1358L24.5539 51.6626L23.8707 51.5651ZM24.0429 52.6234L23.5721 52.3767L23.1013 52.6234L23.1874 52.1272V52.1014L22.8027 51.7314L23.3281 51.654L23.5635 51.1779L23.7989 51.654L24.3242 51.7314L23.9711 52.0756L23.951 52.0957L24.0429 52.6234Z" fill="#263238"/>
<path d="M35.6835 50.2148H35.5859V53.3267H35.6835V50.2148Z" fill="#263238"/>
<path d="M33.7792 51.3164H32.5391V52.6357H33.7792V51.3164Z" fill="#263238"/>
<path d="M32.9295 51.0039V51.1043H33.3859V51.0039H33.7763V51.2075H32.5391V51.0039H32.9295Z" fill="#263238"/>
<path d="M33.3861 50.8984H32.9297V50.9988H33.3861V50.8984Z" fill="#263238"/>
<path d="M33.3861 51.0039H32.9297V51.1043H33.3861V51.0039Z" fill="#263238"/>
<path d="M38.4902 52.0192L38.8692 51.6406L38.9151 51.6865L38.4902 52.111L38.0625 51.6865L38.1084 51.6406L38.4902 52.0192Z" fill="#263238"/>
<path d="M82.5392 19.9571C82.4299 19.9577 82.3251 20.0004 82.2465 20.0762C82.1679 20.1521 82.1216 20.2553 82.1172 20.3643V21.9647C82.1276 22.1132 82.194 22.2522 82.3029 22.3537C82.4119 22.4552 82.5553 22.5117 82.7042 22.5117C82.8532 22.5117 82.9966 22.4552 83.1056 22.3537C83.2145 22.2522 83.2809 22.1132 83.2913 21.9647V20.6741H83.1765V21.9103C83.1672 22.0298 83.1131 22.1414 83.025 22.2228C82.9369 22.3042 82.8214 22.3494 82.7014 22.3494C82.5814 22.3494 82.4658 22.3042 82.3777 22.2228C82.2897 22.1414 82.2356 22.0298 82.2263 21.9103V20.3787C82.2263 20.2973 82.2586 20.2192 82.3162 20.1617C82.3738 20.1041 82.452 20.0718 82.5334 20.0718C82.6149 20.0718 82.693 20.1041 82.7506 20.1617C82.8082 20.2192 82.8406 20.2973 82.8406 20.3787V21.6779C82.8316 21.7161 82.81 21.7502 82.7793 21.7746C82.7486 21.7991 82.7105 21.8125 82.6712 21.8127C82.6336 21.8102 82.5977 21.7958 82.5688 21.7715C82.54 21.7473 82.5195 21.7145 82.5105 21.6779V20.677H82.3956V21.6349V21.6779C82.3956 21.754 82.4259 21.827 82.4797 21.8807C82.5336 21.9345 82.6066 21.9647 82.6827 21.9647C82.7589 21.9647 82.8319 21.9345 82.8857 21.8807C82.9395 21.827 82.9698 21.754 82.9698 21.6779V21.6521C82.9698 21.6521 82.9698 21.6378 82.9698 21.632V20.3643C82.9653 20.2538 82.9178 20.1493 82.8374 20.0733C82.7569 19.9972 82.6499 19.9555 82.5392 19.9571Z" fill="#263238"/>
<path d="M17.3083 10.6231H16.8203V10.4453H18.0002V10.6231H17.5093V11.8708H17.3083V10.6231Z" fill="#263238"/>
<path d="M17.9848 11.327C17.9803 11.2127 18.01 11.0996 18.0702 11.0023C18.1305 10.905 18.2185 10.828 18.3229 10.781C18.4273 10.734 18.5434 10.7194 18.6562 10.7388C18.7691 10.7583 18.8735 10.8111 18.9561 10.8903C19.0387 10.9695 19.0957 11.0716 19.1198 11.1835C19.1439 11.2953 19.134 11.4118 19.0913 11.518C19.0486 11.6241 18.9751 11.7151 18.8802 11.7792C18.7854 11.8433 18.6735 11.8776 18.559 11.8777C18.4843 11.8825 18.4094 11.8717 18.3391 11.8461C18.2688 11.8204 18.2046 11.7804 18.1506 11.7286C18.0966 11.6768 18.054 11.6144 18.0255 11.5452C17.9969 11.4761 17.9831 11.4018 17.9848 11.327ZM18.9092 11.327C18.9064 11.2555 18.8826 11.1865 18.8407 11.1284C18.7988 11.0704 18.7408 11.026 18.6738 11.0007C18.6068 10.9754 18.5339 10.9703 18.4641 10.9862C18.3942 11.0021 18.3306 11.0381 18.2812 11.0899C18.2317 11.1416 18.1986 11.2068 18.186 11.2772C18.1734 11.3476 18.1818 11.4202 18.2102 11.4859C18.2386 11.5515 18.2858 11.6074 18.3457 11.6465C18.4057 11.6856 18.4759 11.7061 18.5475 11.7056C18.5968 11.707 18.6459 11.6979 18.6916 11.6792C18.7372 11.6604 18.7784 11.6322 18.8125 11.5966C18.8466 11.5609 18.8728 11.5185 18.8894 11.472C18.9061 11.4256 18.9128 11.3762 18.9092 11.327Z" fill="#263238"/>
<path d="M19.8286 10.9189C19.8286 10.9006 19.8323 10.8825 19.8394 10.8656C19.8465 10.8487 19.8569 10.8334 19.87 10.8206C19.8831 10.8078 19.8986 10.7977 19.9157 10.7909C19.9327 10.7842 19.9509 10.7809 19.9693 10.7813C20.0073 10.7813 20.0438 10.7964 20.0708 10.8233C20.0977 10.8502 20.1128 10.8867 20.1128 10.9247C20.1128 10.9627 20.0977 10.9992 20.0708 11.0261C20.0438 11.053 20.0073 11.0681 19.9693 11.0681C19.9499 11.0686 19.9307 11.065 19.9128 11.0575C19.895 11.0501 19.8789 11.0389 19.8656 11.0249C19.8524 11.0108 19.8422 10.9941 19.8358 10.9759C19.8295 10.9576 19.827 10.9382 19.8286 10.9189ZM19.8286 11.7421C19.8286 11.7238 19.8323 11.7056 19.8394 11.6887C19.8465 11.6718 19.8569 11.6565 19.87 11.6437C19.8831 11.6309 19.8986 11.6208 19.9157 11.6141C19.9327 11.6073 19.9509 11.604 19.9693 11.6044C19.9871 11.6044 20.0048 11.608 20.0212 11.615C20.0376 11.622 20.0524 11.6322 20.0647 11.6451C20.0771 11.6579 20.0867 11.6732 20.093 11.6898C20.0993 11.7065 20.1021 11.7243 20.1013 11.7421C20.1021 11.76 20.0993 11.7779 20.093 11.7948C20.0868 11.8116 20.0772 11.827 20.0649 11.8401C20.0526 11.8532 20.0378 11.8637 20.0214 11.871C20.005 11.8783 19.9872 11.8823 19.9693 11.8826C19.9507 11.883 19.9322 11.8797 19.915 11.8727C19.8977 11.8658 19.8821 11.8555 19.8689 11.8423C19.8558 11.8292 19.8454 11.8136 19.8385 11.7963C19.8316 11.7791 19.8282 11.7607 19.8286 11.7421Z" fill="#263238"/>
<path d="M17.1133 15.9403C17.1121 15.842 17.1309 15.7446 17.1687 15.6539C17.2065 15.5632 17.2625 15.4813 17.3333 15.413C17.404 15.3448 17.488 15.2917 17.58 15.2571C17.672 15.2225 17.7701 15.2071 17.8683 15.2118C17.9693 15.2076 18.07 15.2252 18.1636 15.2633C18.2572 15.3014 18.3416 15.3592 18.4109 15.4326L18.2789 15.5617C18.2165 15.4934 18.1381 15.4417 18.0506 15.4115C17.9632 15.3813 17.8696 15.3734 17.7783 15.3886C17.6871 15.4037 17.6011 15.4415 17.5282 15.4985C17.4553 15.5554 17.3978 15.6296 17.361 15.7144C17.3242 15.7993 17.3093 15.8919 17.3176 15.984C17.3258 16.076 17.357 16.1646 17.4083 16.2415C17.4596 16.3184 17.5294 16.3813 17.6112 16.4244C17.6931 16.4674 17.7844 16.4893 17.877 16.4881C17.9524 16.4897 18.0272 16.4752 18.0966 16.4455C18.1659 16.4158 18.228 16.3717 18.2789 16.316L18.4109 16.445C18.3413 16.5191 18.2565 16.5774 18.1625 16.616C18.0684 16.6546 17.9671 16.6726 17.8655 16.6688C17.7675 16.6731 17.6697 16.6573 17.578 16.6225C17.4863 16.5878 17.4027 16.5346 17.3323 16.4664C17.2619 16.3982 17.2061 16.3164 17.1685 16.2259C17.1308 16.1354 17.1121 16.0382 17.1133 15.9403Z" fill="#263238"/>
<path d="M18.5237 16.1194C18.5219 16.0448 18.5357 15.9706 18.5643 15.9016C18.5929 15.8326 18.6355 15.7703 18.6896 15.7188C18.7436 15.6672 18.8078 15.6275 18.8781 15.6021C18.9484 15.5768 19.0233 15.5664 19.0978 15.5716C19.185 15.5663 19.272 15.5848 19.3494 15.6252C19.4268 15.6657 19.4917 15.7265 19.537 15.8011L19.3906 15.8957C19.3599 15.8477 19.3174 15.8082 19.2672 15.7811C19.2169 15.754 19.1606 15.7402 19.1035 15.7408C19.0084 15.7491 18.9198 15.7927 18.8552 15.8631C18.7906 15.9334 18.7548 16.0254 18.7548 16.1209C18.7548 16.2163 18.7906 16.3083 18.8552 16.3786C18.9198 16.449 19.0084 16.4926 19.1035 16.5009C19.1606 16.5016 19.2169 16.4877 19.2672 16.4606C19.3174 16.4335 19.3599 16.3941 19.3906 16.346L19.537 16.4407C19.492 16.5158 19.4273 16.5772 19.3499 16.6181C19.2725 16.6591 19.1853 16.678 19.0978 16.673C19.0229 16.6778 18.9477 16.6669 18.8772 16.6411C18.8067 16.6152 18.7424 16.575 18.6884 16.5229C18.6343 16.4708 18.5918 16.408 18.5634 16.3385C18.535 16.269 18.5215 16.1944 18.5237 16.1194Z" fill="#263238"/>
<path d="M20.2422 15.708C20.2418 15.6898 20.2451 15.6717 20.2519 15.6549C20.2587 15.638 20.2688 15.6227 20.2817 15.6098C20.2946 15.5969 20.3099 15.5868 20.3268 15.58C20.3437 15.5732 20.3618 15.57 20.38 15.5703C20.398 15.5703 20.4158 15.5739 20.4323 15.5809C20.4489 15.5878 20.4639 15.598 20.4765 15.6108C20.489 15.6237 20.4989 15.6389 20.5055 15.6555C20.5121 15.6722 20.5153 15.6901 20.5149 15.708C20.5157 15.7262 20.5128 15.7443 20.5064 15.7614C20.4999 15.7784 20.4901 15.7939 20.4775 15.8071C20.4649 15.8202 20.4498 15.8306 20.433 15.8378C20.4163 15.8449 20.3982 15.8486 20.38 15.8486C20.3617 15.8486 20.3435 15.8449 20.3266 15.8378C20.3097 15.8307 20.2944 15.8203 20.2816 15.8072C20.2687 15.7941 20.2586 15.7786 20.2519 15.7616C20.2451 15.7445 20.2418 15.7263 20.2422 15.708ZM20.2422 16.5312C20.2418 16.513 20.2451 16.4949 20.2519 16.478C20.2587 16.4611 20.2688 16.4458 20.2817 16.4329C20.2946 16.4201 20.3099 16.41 20.3268 16.4032C20.3437 16.3964 20.3618 16.3931 20.38 16.3935C20.3981 16.3931 20.4161 16.3964 20.4328 16.4032C20.4495 16.41 20.4647 16.4202 20.4774 16.4331C20.49 16.446 20.4999 16.4614 20.5063 16.4782C20.5128 16.4951 20.5157 16.5131 20.5149 16.5312C20.5157 16.5493 20.5128 16.5675 20.5064 16.5845C20.4999 16.6015 20.4901 16.6171 20.4775 16.6302C20.4649 16.6433 20.4498 16.6538 20.433 16.6609C20.4163 16.668 20.3982 16.6717 20.38 16.6717C20.3617 16.6717 20.3435 16.668 20.3266 16.6609C20.3097 16.6539 20.2944 16.6435 20.2816 16.6304C20.2687 16.6173 20.2586 16.6018 20.2519 16.5847C20.2451 16.5677 20.2418 16.5495 20.2422 16.5312Z" fill="#263238"/>
<path d="M16.8984 21.3547L16.9731 21.1969C17.1064 21.3041 17.2728 21.3619 17.4439 21.3604C17.6908 21.3604 17.797 21.2658 17.797 21.1424C17.797 20.7925 16.9358 21.0134 16.9358 20.4856C16.9358 20.2648 17.108 20.0784 17.4812 20.0784C17.6434 20.0745 17.8031 20.1184 17.9405 20.2046L17.8716 20.3652C17.7546 20.2915 17.6195 20.2518 17.4812 20.2504C17.2401 20.2504 17.1367 20.3508 17.1367 20.477C17.1367 20.8241 17.9979 20.6061 17.9979 21.1281C17.9979 21.3461 17.8228 21.5354 17.4467 21.5354C17.2484 21.5414 17.0543 21.4774 16.8984 21.3547Z" fill="#263238"/>
<path d="M19.2651 20.4375V21.5159H19.0813V21.3524C19.0386 21.4089 18.9829 21.4542 18.919 21.4847C18.855 21.5151 18.7847 21.5298 18.7139 21.5274C18.6507 21.5338 18.5869 21.526 18.5272 21.5045C18.4675 21.4831 18.4133 21.4485 18.3687 21.4034C18.3241 21.3583 18.2902 21.3037 18.2694 21.2438C18.2487 21.1838 18.2416 21.12 18.2488 21.057V20.4375H18.444V21.0369C18.444 21.2463 18.5503 21.3524 18.7311 21.3524C18.7781 21.3559 18.8253 21.3488 18.8692 21.3316C18.9131 21.3145 18.9526 21.2878 18.9848 21.2534C19.017 21.219 19.0411 21.1778 19.0553 21.133C19.0696 21.0881 19.0735 21.0405 19.067 20.9939V20.4375H19.2651Z" fill="#263238"/>
<path d="M20.7584 20.9762C20.762 21.049 20.7504 21.1217 20.7244 21.1898C20.6984 21.2579 20.6584 21.3198 20.6071 21.3716C20.5558 21.4234 20.4942 21.464 20.4264 21.4907C20.3585 21.5174 20.2858 21.5298 20.2129 21.5269C20.1387 21.5301 20.0647 21.5151 19.9977 21.4831C19.9306 21.451 19.8724 21.4031 19.8283 21.3433V21.5154H19.6445V20.0039H19.8426V20.6005C19.887 20.5437 19.9442 20.4983 20.0096 20.4678C20.075 20.4374 20.1466 20.4229 20.2187 20.4255C20.2911 20.4235 20.3632 20.4364 20.4303 20.4635C20.4975 20.4906 20.5584 20.5312 20.609 20.583C20.6597 20.6347 20.6992 20.6963 20.7249 20.764C20.7505 20.8317 20.762 20.9039 20.7584 20.9762ZM20.5603 20.9762C20.5569 20.905 20.5327 20.8363 20.4907 20.7787C20.4486 20.7211 20.3905 20.6771 20.3237 20.6522C20.2569 20.6272 20.1842 20.6224 20.1146 20.6384C20.0451 20.6543 19.9817 20.6903 19.9324 20.7419C19.8832 20.7934 19.8501 20.8583 19.8374 20.9284C19.8247 20.9986 19.8328 21.0709 19.8608 21.1365C19.8889 21.202 19.9355 21.2579 19.9951 21.2973C20.0546 21.3366 20.1244 21.3576 20.1957 21.3577C20.2454 21.359 20.2949 21.3499 20.3409 21.331C20.3869 21.312 20.4284 21.2837 20.4627 21.2477C20.4971 21.2118 20.5235 21.1691 20.5403 21.1223C20.5571 21.0755 20.5639 21.0258 20.5603 20.9762Z" fill="#263238"/>
<path d="M20.6523 21.8583L20.7155 21.7092C20.7612 21.7427 20.8168 21.7598 20.8734 21.758C20.9796 21.758 21.0341 21.6949 21.0341 21.5687V20.4386H21.2322V21.5658C21.2379 21.613 21.233 21.6609 21.2179 21.706C21.2028 21.751 21.1779 21.7922 21.1449 21.8265C21.112 21.8608 21.0718 21.8874 21.0273 21.9043C20.9829 21.9212 20.9352 21.928 20.8877 21.9243C20.8041 21.9291 20.7213 21.9059 20.6523 21.8583ZM20.9997 20.1059C20.9997 20.0887 21.0031 20.0717 21.0098 20.0559C21.0165 20.04 21.0262 20.0257 21.0385 20.0136C21.0508 20.0016 21.0654 19.9922 21.0814 19.9858C21.0974 19.9795 21.1146 19.9765 21.1318 19.9769C21.1488 19.9757 21.1659 19.978 21.1821 19.9836C21.1982 19.9893 21.213 19.9981 21.2257 20.0097C21.2383 20.0212 21.2484 20.0352 21.2555 20.0507C21.2625 20.0663 21.2663 20.0831 21.2667 20.1002C21.2671 20.1179 21.2639 20.1354 21.2572 20.1518C21.2505 20.1682 21.2405 20.1831 21.2279 20.1954C21.2152 20.2078 21.2002 20.2174 21.1836 20.2237C21.1671 20.2301 21.1494 20.2329 21.1318 20.2321C21.1148 20.2325 21.0979 20.2295 21.0821 20.2234C21.0663 20.2173 21.0518 20.2081 21.0396 20.1964C21.0273 20.1846 21.0175 20.1706 21.0106 20.1551C21.0038 20.1396 21.0001 20.1229 20.9997 20.1059Z" fill="#263238"/>
<path d="M22.5779 21.0427H21.6995C21.7124 21.1355 21.7603 21.2198 21.8334 21.2785C21.9065 21.3371 21.9993 21.3656 22.0928 21.3582C22.151 21.3605 22.209 21.3499 22.2627 21.327C22.3163 21.3042 22.3642 21.2698 22.4028 21.2262L22.5119 21.3524C22.4322 21.4336 22.3307 21.49 22.2196 21.5147C22.1085 21.5394 21.9926 21.5314 21.8859 21.4916C21.7793 21.4519 21.6865 21.3821 21.6187 21.2907C21.551 21.1993 21.5112 21.0902 21.5043 20.9767C21.5015 20.9044 21.5136 20.8322 21.5398 20.7648C21.566 20.6973 21.6057 20.6358 21.6565 20.5843C21.7073 20.5327 21.7682 20.492 21.8353 20.4648C21.9024 20.4376 21.9744 20.4244 22.0469 20.426C22.1195 20.4238 22.1919 20.4369 22.2592 20.4644C22.3265 20.4919 22.3873 20.5332 22.4376 20.5856C22.488 20.6381 22.5267 20.7005 22.5514 20.7689C22.576 20.8372 22.5861 20.91 22.5808 20.9824C22.5808 20.9996 22.5779 21.0226 22.5779 21.0427ZM21.6995 20.9021H22.3942C22.3833 20.8178 22.3421 20.7402 22.2781 20.6841C22.2142 20.6279 22.132 20.5969 22.0469 20.5969C21.9617 20.5969 21.8795 20.6279 21.8156 20.6841C21.7516 20.7402 21.7104 20.8178 21.6995 20.9021Z" fill="#263238"/>
<path d="M22.7501 20.9776C22.7484 20.9028 22.7622 20.8285 22.7908 20.7594C22.8193 20.6902 22.8619 20.6278 22.9159 20.576C22.9699 20.5242 23.0341 20.4842 23.1044 20.4586C23.1747 20.4329 23.2496 20.4221 23.3243 20.4269C23.4117 20.4221 23.4988 20.4412 23.5762 20.4822C23.6535 20.5231 23.7183 20.5843 23.7635 20.6592L23.6142 20.7539C23.5835 20.7058 23.541 20.6664 23.4908 20.6393C23.4406 20.6122 23.3842 20.5983 23.3272 20.599C23.232 20.6072 23.1434 20.6509 23.0788 20.7212C23.0142 20.7916 22.9784 20.8836 22.9784 20.979C22.9784 21.0744 23.0142 21.1664 23.0788 21.2368C23.1434 21.3071 23.232 21.3508 23.3272 21.359C23.3842 21.3597 23.4406 21.3458 23.4908 21.3187C23.541 21.2916 23.5835 21.2522 23.6142 21.2041L23.7635 21.2959C23.7183 21.3708 23.6535 21.432 23.5762 21.473C23.4988 21.5139 23.4117 21.533 23.3243 21.5282C23.2496 21.533 23.1747 21.5223 23.1044 21.4966C23.0341 21.4709 22.9699 21.4309 22.9159 21.3791C22.8619 21.3273 22.8193 21.2649 22.7908 21.1958C22.7622 21.1266 22.7484 21.0523 22.7501 20.9776Z" fill="#263238"/>
<path d="M24.6318 21.4536C24.5643 21.5049 24.4812 21.5312 24.3964 21.5282C24.3505 21.5337 24.3039 21.5287 24.2602 21.5136C24.2165 21.4986 24.1767 21.4739 24.1438 21.4414C24.111 21.4088 24.0859 21.3693 24.0705 21.3257C24.0551 21.2822 24.0497 21.2357 24.0548 21.1898V20.5989H23.8711V20.4383H24.0548V20.2031H24.25V20.4383H24.5601V20.5989H24.25V21.1725C24.2465 21.1961 24.2483 21.2201 24.2554 21.2429C24.2625 21.2656 24.2746 21.2865 24.2909 21.3039C24.3072 21.3213 24.3272 21.3347 24.3495 21.3433C24.3717 21.3518 24.3956 21.3552 24.4194 21.3532C24.4744 21.3528 24.5277 21.3347 24.5715 21.3016L24.6318 21.4536Z" fill="#263238"/>
<path d="M25.3284 20.5663C25.328 20.548 25.3313 20.5298 25.338 20.5128C25.3448 20.4957 25.3549 20.4802 25.3677 20.4671C25.3806 20.454 25.3959 20.4436 25.4128 20.4365C25.4297 20.4294 25.4478 20.4258 25.4662 20.4258C25.4844 20.4258 25.5024 20.4294 25.5192 20.4366C25.5359 20.4437 25.5511 20.4541 25.5637 20.4673C25.5763 20.4804 25.5861 20.4959 25.5925 20.513C25.599 20.53 25.6019 20.5481 25.6011 20.5663C25.6019 20.5845 25.599 20.6026 25.5925 20.6197C25.5861 20.6367 25.5763 20.6522 25.5637 20.6654C25.5511 20.6785 25.5359 20.6889 25.5192 20.6961C25.5024 20.7032 25.4844 20.7069 25.4662 20.7069C25.4478 20.7069 25.4297 20.7032 25.4128 20.6961C25.3959 20.689 25.3806 20.6786 25.3677 20.6655C25.3549 20.6524 25.3448 20.6369 25.338 20.6199C25.3313 20.6028 25.328 20.5846 25.3284 20.5663ZM25.3284 21.3866C25.328 21.3684 25.3313 21.3503 25.3381 21.3335C25.3449 21.3166 25.355 21.3012 25.3679 21.2884C25.3808 21.2755 25.3961 21.2654 25.413 21.2586C25.4299 21.2518 25.448 21.2485 25.4662 21.2489C25.5043 21.2489 25.5408 21.264 25.5677 21.2909C25.5946 21.3178 25.6097 21.3543 25.6097 21.3923C25.6097 21.4304 25.5946 21.4668 25.5677 21.4937C25.5408 21.5206 25.5043 21.5357 25.4662 21.5357C25.4473 21.5358 25.4287 21.532 25.4114 21.5245C25.3941 21.5171 25.3785 21.5061 25.3656 21.4924C25.3527 21.4787 25.3427 21.4625 25.3363 21.4448C25.3299 21.4271 25.3272 21.4083 25.3284 21.3895V21.3866Z" fill="#263238"/>
<path d="M43.1978 11.6175C43.1978 11.6577 38.6276 11.6921 32.9895 11.6921C27.3514 11.6921 22.7812 11.6577 22.7812 11.6175C22.7812 11.5774 27.3514 11.543 32.9895 11.543C38.6276 11.543 43.1978 11.5745 43.1978 11.6175Z" fill="#263238"/>
<path d="M52.3152 16.266C52.3152 16.309 45.7125 16.3405 37.5482 16.3405C29.3839 16.3405 22.7812 16.309 22.7812 16.266C22.7812 16.223 29.3839 16.1914 37.5482 16.1914C45.7125 16.1914 52.3152 16.2258 52.3152 16.266Z" fill="#263238"/>
<path d="M41.3957 20.8884C41.3508 20.8926 41.3057 20.8926 41.2608 20.8884H40.8704L39.435 20.9113C38.2264 20.9113 36.5643 20.9342 34.7213 20.9342C32.8783 20.9342 31.2133 20.9342 30.0076 20.9113L28.5722 20.8884H28.1847C28.1388 20.8924 28.0927 20.8924 28.0469 20.8884C28.0917 20.8756 28.1381 20.8698 28.1847 20.8711H28.5722L30.0076 20.8482C31.2133 20.8482 32.8783 20.8281 34.7213 20.8281C36.5643 20.8281 38.2264 20.8281 39.435 20.8482L40.8704 20.8711H41.2608C41.3064 20.8696 41.352 20.8754 41.3957 20.8884Z" fill="#263238"/>
<path d="M85.7145 23.3949C85.7145 23.435 69.8738 23.4695 50.3386 23.4695C30.8034 23.4695 14.957 23.4379 14.957 23.3949C14.957 23.3519 30.7948 23.3203 50.3386 23.3203C69.8825 23.3203 85.7145 23.3547 85.7145 23.3949Z" fill="#E0E0E0"/>
<path d="M85.713 18.3597C85.713 18.4027 69.8666 18.4343 50.3228 18.4343C30.7789 18.4343 14.9297 18.4027 14.9297 18.3597C14.9297 18.3167 30.7732 18.2852 50.3228 18.2852C69.8723 18.2852 85.713 18.3196 85.713 18.3597Z" fill="#E0E0E0"/>
<path d="M85.7145 13.93C85.7145 13.9702 69.8738 14.0046 50.3386 14.0046C30.8034 14.0046 14.957 13.9788 14.957 13.93C14.957 13.8813 30.7948 13.8555 50.3386 13.8555C69.8825 13.8555 85.7145 13.8985 85.7145 13.93Z" fill="#E0E0E0"/>
<path d="M24.4557 29.5444C23.6475 29.6183 22.8355 29.6432 22.0242 29.619C21.212 29.6432 20.3991 29.6183 19.5898 29.5444C20.3991 29.4706 21.212 29.4457 22.0242 29.4699C22.8355 29.4457 23.6475 29.4706 24.4557 29.5444Z" fill="#263238"/>
<path d="M52.1612 32.354C52.1612 32.3941 44.7949 32.4286 35.7148 32.4286C26.6348 32.4286 19.2656 32.3941 19.2656 32.354C19.2656 32.3138 26.629 32.2852 35.7206 32.2852C44.8121 32.2852 52.1612 32.3138 52.1612 32.354Z" fill="#263238"/>
<path d="M46.7039 34.3209C46.7039 34.3553 40.5606 34.384 32.9848 34.384C25.409 34.384 19.2656 34.3553 19.2656 34.3209C19.2656 34.2865 25.4061 34.2578 32.9848 34.2578C40.5635 34.2578 46.7039 34.2922 46.7039 34.3209Z" fill="#263238"/>
<path d="M16.9567 6.72896C17.2024 6.72896 17.4016 6.52992 17.4016 6.2844C17.4016 6.03888 17.2024 5.83984 16.9567 5.83984C16.7109 5.83984 16.5117 6.03888 16.5117 6.2844C16.5117 6.52992 16.7109 6.72896 16.9567 6.72896Z" fill="white"/>
<path d="M18.5387 6.72896C18.7845 6.72896 18.9837 6.52992 18.9837 6.2844C18.9837 6.03888 18.7845 5.83984 18.5387 5.83984C18.293 5.83984 18.0938 6.03888 18.0938 6.2844C18.0938 6.52992 18.293 6.72896 18.5387 6.72896Z" fill="white"/>
<path d="M20.1207 6.72896C20.3665 6.72896 20.5657 6.52992 20.5657 6.2844C20.5657 6.03888 20.3665 5.83984 20.1207 5.83984C19.875 5.83984 19.6758 6.03888 19.6758 6.2844C19.6758 6.52992 19.875 6.72896 20.1207 6.72896Z" fill="white"/>
<path d="M86.7736 56.179C86.7736 55.6799 86.7478 35.7351 86.7133 4.23473L86.7736 4.29496L14.9626 4.3093L15.0373 4.23473C15.0373 22.8573 15.0373 40.5191 15.0373 56.179L14.9684 56.113L86.7851 56.179L14.9684 56.2478H14.9023V56.179C14.9023 40.5191 14.9023 22.8573 14.9023 4.23473V4.16016H14.9827H86.7937H86.854V4.22039C86.7966 35.7294 86.7736 55.6799 86.7736 56.179Z" fill="#263238"/>
<path d="M108.764 108.332H107.105V109.224H108.764V108.332Z" fill="#E0E0E0"/>
<path d="M108.195 85.8516H104.363V104.841H108.195V85.8516Z" fill="#EBEBEB"/>
<path d="M114.976 86.8483H96.9882C96.0692 86.8483 95.1879 86.4836 94.5381 85.8344C93.8883 85.1852 93.5232 84.3047 93.5232 83.3866C93.5228 82.9317 93.6122 82.4812 93.7861 82.0609C93.9601 81.6406 94.2153 81.2586 94.537 80.9368C94.8588 80.6151 95.2409 80.3598 95.6615 80.1857C96.0821 80.0115 96.5329 79.9219 96.9882 79.9219H114.976C115.431 79.9219 115.882 80.0115 116.303 80.1857C116.723 80.3598 117.105 80.6151 117.427 80.9368C117.749 81.2586 118.004 81.6406 118.178 82.0609C118.352 82.4812 118.441 82.9317 118.441 83.3866C118.441 83.8412 118.351 84.2913 118.177 84.7113C118.003 85.1313 117.748 85.513 117.426 85.8344C117.104 86.1559 116.722 86.4109 116.302 86.5848C115.882 86.7588 115.431 86.8483 114.976 86.8483Z" fill="#455A64"/>
<path d="M107.507 104.84H105.078V118.32H107.507V104.84Z" fill="#E0E0E0"/>
<path d="M96.5546 124.891C96.0781 124.951 117.02 124.891 117.02 124.891C117.02 124.891 108.086 123.893 107.509 118.32H105.081C105.081 118.32 104.469 123.884 96.5546 124.891Z" fill="#E0E0E0"/>
<path d="M115.688 86.8519C115.688 86.8921 111.529 86.9265 106.399 86.9265C101.269 86.9265 97.1091 86.8921 97.1091 86.8519C97.1091 86.8118 101.269 86.7773 106.399 86.7773C111.529 86.7773 115.688 86.8118 115.688 86.8519Z" fill="#263238"/>
<path d="M108.196 104.852C106.91 104.951 105.618 104.951 104.332 104.852C105.619 104.752 106.912 104.752 108.199 104.852H108.196Z" fill="#263238"/>
<path d="M108.768 110.223C108.638 110.223 108.514 110.172 108.422 110.08C108.33 109.989 108.278 109.865 108.277 109.735V107.822C108.278 107.693 108.33 107.568 108.422 107.477C108.514 107.385 108.638 107.333 108.768 107.332C108.898 107.333 109.022 107.385 109.114 107.477C109.206 107.568 109.258 107.693 109.259 107.822V109.73C109.259 109.794 109.247 109.858 109.222 109.918C109.198 109.978 109.162 110.033 109.116 110.078C109.071 110.124 109.016 110.161 108.957 110.185C108.897 110.21 108.833 110.223 108.768 110.223Z" fill="#E0E0E0"/>
<path d="M70.488 31.6247C70.488 31.6247 71.3292 30.7041 71.5847 30.684C71.8401 30.6639 74.4554 31.4469 74.4554 31.4469C74.7586 31.5043 75.0416 31.6397 75.2764 31.8398C75.5118 32.1266 78.0983 34.923 78.0983 34.923L75.2276 37.4527C75.2276 37.4527 71.8574 36.8475 71.5646 36.4948C71.2717 36.142 71.0363 35.577 71.2516 35.3991C71.1066 35.1511 71.0387 34.8656 71.0564 34.5789C71.1036 34.3769 71.1621 34.1777 71.2316 33.9823C71.2316 33.9823 70.7234 33.618 70.7033 33.3657C70.6972 33.2295 70.664 33.096 70.6057 32.9727L70.488 32.7777V31.6247Z" fill="#FFBE9D"/>
<path d="M71.6624 32.18C71.6767 32.18 71.6624 32.2689 71.6164 32.398C71.5504 32.5703 71.4405 32.7225 71.2978 32.8397C71.2226 32.8978 71.1356 32.9389 71.0429 32.9602C70.9502 32.9815 70.854 32.9825 70.761 32.963C70.6174 32.9257 70.56 32.8483 70.5715 32.8397C70.583 32.8311 70.6519 32.8684 70.7753 32.8798C70.937 32.8873 71.0962 32.8387 71.226 32.7422C71.3529 32.6353 71.459 32.506 71.5389 32.3607C71.6021 32.246 71.6451 32.1743 71.6624 32.18Z" fill="#EB996E"/>
<path d="M60.1511 25.6055C59.7361 25.6032 59.3371 25.7651 59.0412 26.0559C58.7454 26.3466 58.5767 26.7425 58.5722 27.1571L58.4373 44.4547C58.435 44.8693 58.597 45.2679 58.8881 45.5635C59.1791 45.8591 59.5754 46.0276 59.9903 46.0321L72.498 46.1297C72.913 46.132 73.3121 45.97 73.6079 45.6793C73.9038 45.3885 74.0724 44.9926 74.0769 44.578L74.1602 27.2719C74.1617 27.0612 74.1216 26.8523 74.0421 26.6572C73.9627 26.4621 73.8454 26.2846 73.6971 26.1348C73.5488 25.9851 73.3724 25.866 73.178 25.7845C72.9835 25.7031 72.7749 25.6607 72.5641 25.66L60.1511 25.6055Z" fill="#E0E0E0"/>
<path d="M67.0137 30.8526C67.0137 30.9157 65.719 30.9558 64.12 30.9443C62.521 30.9329 61.2263 30.8698 61.2263 30.8067C61.2263 30.7436 62.5239 30.7034 64.1229 30.7178C65.7219 30.7321 67.0137 30.7981 67.0137 30.8526Z" fill="#E0E0E0"/>
<path d="M70.7162 33.1187C70.7162 33.1818 68.5804 33.2162 65.9508 33.1932C63.3212 33.1703 61.1912 33.1072 61.1912 33.0441C61.1912 32.981 63.3241 32.9466 65.9537 32.9667C68.5833 32.9867 70.7162 33.0556 70.7162 33.1187Z" fill="#E0E0E0"/>
<path d="M71.555 35.4163C71.555 35.4794 69.2297 35.5109 66.3619 35.488C63.494 35.465 61.1716 35.3962 61.1716 35.3331C61.1716 35.27 63.4969 35.2384 66.3648 35.2614C69.2326 35.2843 71.555 35.3532 71.555 35.4163Z" fill="#E0E0E0"/>
<path d="M71.5355 37.5842C71.5355 37.6473 69.2102 37.6789 66.3452 37.6559C63.4803 37.633 61.1521 37.5642 61.1521 37.5011C61.1521 37.438 63.4774 37.4064 66.3452 37.4294C69.2131 37.4523 71.5355 37.5211 71.5355 37.5842Z" fill="#E0E0E0"/>
<path d="M71.516 39.7444C71.516 39.8075 69.1907 39.839 66.3257 39.8161C63.4607 39.7931 61.1326 39.7243 61.1326 39.6612C61.1326 39.5981 63.4578 39.5666 66.3257 39.5895C69.1935 39.6125 71.516 39.6928 71.516 39.7444Z" fill="#E0E0E0"/>
<path d="M71.5014 41.9273C71.5014 41.9904 69.1761 42.022 66.3111 41.999C63.4461 41.9761 61.118 41.9073 61.1209 41.847C61.1237 41.7868 63.4433 41.7495 66.3111 41.7725C69.179 41.7954 71.5014 41.8642 71.5014 41.9273Z" fill="#E0E0E0"/>
<path d="M59.5691 25.0899C59.3636 25.0884 59.1599 25.1273 58.9695 25.2045C58.7791 25.2816 58.6057 25.3955 58.4594 25.5396C58.313 25.6837 58.1965 25.8551 58.1165 26.0442C58.0365 26.2333 57.9945 26.4363 57.993 26.6415L57.8552 43.9391C57.8529 44.3537 58.015 44.7523 58.306 45.0479C58.597 45.3435 58.9933 45.512 59.4083 45.5165L71.9189 45.614C72.1244 45.6156 72.3281 45.5766 72.5185 45.4995C72.7089 45.4223 72.8822 45.3084 73.0286 45.1643C73.1749 45.0203 73.2914 44.8488 73.3714 44.6597C73.4515 44.4706 73.4934 44.2677 73.4949 44.0624L73.581 26.7534C73.5826 26.3287 73.4154 25.9207 73.1161 25.619C72.8169 25.3174 72.41 25.1467 71.9849 25.1444L59.5691 25.0899Z" fill="white"/>
<path d="M59.57 25.0928C59.57 25.0928 59.6331 25.0928 59.7508 25.0928H60.2761H62.3H69.7438H71.5724C71.787 25.0853 72.0018 25.092 72.2155 25.1129C72.4407 25.1439 72.6571 25.2214 72.8508 25.3404C73.0445 25.4594 73.2113 25.6173 73.3408 25.8041C73.4777 25.9946 73.5709 26.213 73.6135 26.4437C73.6444 26.6736 73.654 26.906 73.6422 27.1377C73.6422 28.9848 73.6278 30.9581 73.6192 33.0317C73.6106 35.1053 73.602 37.2851 73.5905 39.5452C73.5905 40.6723 73.5905 41.8224 73.5762 42.9869C73.5762 43.2737 73.5762 43.5605 73.5762 43.8674C73.5979 44.1735 73.5427 44.4801 73.4154 44.7594C73.2806 45.0422 73.0676 45.2805 72.8015 45.4462C72.5355 45.6119 72.2275 45.698 71.914 45.6944L64.9124 45.637L61.5852 45.6083H59.9718C59.7036 45.6129 59.4353 45.6033 59.168 45.5797C58.897 45.5382 58.6417 45.4265 58.4274 45.2556C58.2162 45.0911 58.0484 44.8777 57.9383 44.6338C57.8283 44.3899 57.7794 44.1229 57.7958 43.8559C57.7958 43.3483 57.7958 42.8492 57.8102 42.3588C57.8102 41.375 57.8274 40.4199 57.836 39.4907C57.8533 37.6436 57.8705 35.9256 57.8848 34.3539C57.9193 31.2191 57.948 28.6808 57.9681 26.9198C57.9605 26.7111 57.9768 26.5023 58.0169 26.2974C58.06 26.1173 58.1348 25.9464 58.2379 25.7926C58.3992 25.5513 58.6236 25.3589 58.8867 25.2362C59.0482 25.1626 59.221 25.117 59.3977 25.1014C59.457 25.0969 59.5164 25.0969 59.5757 25.1014C59.3419 25.111 59.1125 25.1676 58.9011 25.2677C58.6461 25.3909 58.4297 25.5813 58.2753 25.8184C58.1767 25.9688 58.1067 26.136 58.0686 26.3117C58.0316 26.5131 58.0171 26.718 58.0255 26.9226C58.0255 28.6836 58.0054 31.2248 57.9911 34.3596C57.9911 35.9285 57.971 37.6493 57.9595 39.4935C57.9595 40.4171 57.9595 41.3721 57.9423 42.3616C57.9423 42.855 57.9423 43.354 57.9423 43.8588C57.9258 44.1048 57.9695 44.351 58.0695 44.5764C58.1695 44.8017 58.3229 44.9994 58.5164 45.1523C58.7149 45.3044 58.9492 45.4032 59.1968 45.4391C59.4564 45.4609 59.717 45.4695 59.9776 45.4649H61.5909L64.921 45.4879L71.9198 45.5424C72.2063 45.5457 72.4877 45.4663 72.7301 45.3137C72.9725 45.161 73.1657 44.9417 73.2862 44.6819C73.4039 44.4223 73.4552 44.1374 73.4355 43.8531C73.4355 43.5663 73.4355 43.2794 73.4355 42.9754C73.4355 41.811 73.4413 40.6637 73.4527 39.5337C73.4527 37.2765 73.4786 35.0967 73.4901 33.0231C73.5015 30.9495 73.5159 28.9762 73.5274 27.1291C73.5378 26.9041 73.5292 26.6787 73.5015 26.4551C73.4612 26.2427 73.3761 26.0413 73.2518 25.8643C73.1315 25.6904 72.9766 25.5431 72.7968 25.4316C72.617 25.3201 72.4162 25.2467 72.2068 25.2161C72.0059 25.1903 71.7906 25.2018 71.581 25.196H70.9581H69.7524L62.3086 25.1387L60.2848 25.1157H59.7594L59.57 25.0928Z" fill="#263238"/>
<path d="M66.4199 30.3447C66.4199 30.4078 65.1224 30.448 63.5234 30.4365C61.9244 30.425 60.6326 30.362 60.6326 30.2989C60.6326 30.2358 61.9273 30.1956 63.5263 30.2099C65.1252 30.2243 66.4199 30.2788 66.4199 30.3447Z" fill="#263238"/>
<path d="M70.1342 32.5991C70.1342 32.6622 68.0012 32.6966 65.3717 32.6737C62.7421 32.6508 60.6091 32.5877 60.6091 32.5246C60.6091 32.4615 62.7421 32.427 65.3745 32.4471C68.007 32.4672 70.1342 32.536 70.1342 32.5991Z" fill="#263238"/>
<path d="M70.973 34.9045C70.973 34.9676 68.6477 34.9992 65.7799 34.9762C62.912 34.9533 60.5896 34.8845 60.5896 34.8214C60.5896 34.7583 62.9149 34.7267 65.7827 34.7497C68.6506 34.7726 70.973 34.8414 70.973 34.9045Z" fill="#263238"/>
<path d="M70.9574 37.0725C70.9574 37.1356 68.6321 37.1672 65.7642 37.1442C62.8964 37.1213 60.574 37.0524 60.574 36.9893C60.574 36.9262 62.8993 36.8947 65.7671 36.9176C68.635 36.9406 70.9574 37.0094 70.9574 37.0725Z" fill="#263238"/>
<path d="M70.9378 39.2405C70.9378 39.3036 68.6125 39.3351 65.7447 39.3122C62.8769 39.2892 60.5544 39.2204 60.5544 39.1573C60.5544 39.0942 62.8797 39.0627 65.7476 39.0856C68.6154 39.1085 70.9378 39.1716 70.9378 39.2405Z" fill="#263238"/>
<path d="M70.9261 41.4117C70.9261 41.4748 68.6008 41.5064 65.733 41.4834C62.8651 41.4605 60.5427 41.3916 60.5427 41.3314C60.5427 41.2712 62.868 41.2339 65.7358 41.2568C68.6037 41.2798 70.9261 41.3486 70.9261 41.4117Z" fill="#263238"/>
<path d="M61.1432 28.3183C60.9292 28.3183 60.724 28.2334 60.5728 28.0822C60.4215 27.9311 60.3365 27.7261 60.3365 27.5123V25.5047C60.3365 25.3609 60.3937 25.223 60.4954 25.1213C60.5972 25.0197 60.7352 24.9626 60.8791 24.9626C61.023 24.9626 61.161 25.0197 61.2627 25.1213C61.3645 25.223 61.4216 25.3609 61.4216 25.5047V26.9387C61.4242 26.9543 61.4233 26.9703 61.4191 26.9855C61.4149 27.0007 61.4074 27.0148 61.3971 27.0269C61.3869 27.0389 61.3741 27.0486 61.3598 27.0552C61.3454 27.0619 61.3298 27.0653 61.314 27.0653C61.2982 27.0653 61.2825 27.0619 61.2682 27.0552C61.2538 27.0486 61.2411 27.0389 61.2308 27.0269C61.2206 27.0148 61.2131 27.0007 61.2089 26.9855C61.2046 26.9703 61.2038 26.9543 61.2063 26.9387V25.5047C61.2063 25.4179 61.1718 25.3348 61.1105 25.2735C61.0491 25.2121 60.9659 25.1777 60.8791 25.1777C60.7923 25.1777 60.709 25.2121 60.6477 25.2735C60.5863 25.3348 60.5518 25.4179 60.5518 25.5047V27.5123C60.5518 27.669 60.6141 27.8193 60.725 27.9301C60.8359 28.0409 60.9863 28.1032 61.1432 28.1032C61.3 28.1032 61.4504 28.0409 61.5613 27.9301C61.6722 27.8193 61.7345 27.669 61.7345 27.5123V25.1978C61.7398 24.9928 61.6717 24.7926 61.5423 24.6334C61.413 24.4742 61.231 24.3663 61.0291 24.3293C60.8272 24.2923 60.6187 24.3285 60.4412 24.4315C60.2637 24.5344 60.1288 24.6974 60.0609 24.8909V24.9855C60.0567 25.011 60.0436 25.0342 60.0239 25.051C60.0042 25.0677 59.9791 25.0769 59.9533 25.0769C59.9274 25.0769 59.9024 25.0677 59.8826 25.051C59.8629 25.0342 59.8498 25.011 59.8456 24.9855V24.8708C59.8428 24.8595 59.8428 24.8477 59.8456 24.8364C59.9298 24.5953 60.0968 24.392 60.317 24.2624C60.5372 24.1329 60.7963 24.0856 61.0481 24.129C61.2999 24.1723 61.5281 24.3035 61.6922 24.4992C61.8563 24.695 61.9455 24.9425 61.9441 25.1978V27.5123C61.9441 27.7251 61.8599 27.9292 61.7099 28.0802C61.5598 28.2312 61.3561 28.3168 61.1432 28.3183Z" fill="#263238"/>
<path d="M76.4225 33.6117L75.0503 32.7512L71.5366 30.8984C71.5366 30.8984 70.839 31.5753 72.0188 32.5505L73.4714 33.6977C73.4714 33.6977 74.7632 36.0639 75.0388 36.236C75.5424 36.4736 76.0579 36.6852 76.5833 36.8698L76.4225 33.6117Z" fill="#FFBE9D"/>
<path d="M76.7153 36.9362C76.667 36.933 76.6196 36.9223 76.5746 36.9047C76.4827 36.8788 76.3478 36.8416 76.1756 36.7813C76.0033 36.7211 75.7966 36.6494 75.5612 36.5433C75.4351 36.4886 75.3124 36.4263 75.1938 36.3568C75.0553 36.2788 74.9342 36.1734 74.8378 36.0471C74.3976 35.4314 74.0014 34.7854 73.6522 34.114L73.4914 33.8272C73.4386 33.7368 73.3684 33.6578 73.2847 33.5949C73.1211 33.4515 72.9374 33.3081 72.7565 33.1704C72.3667 32.8885 71.9938 32.584 71.6398 32.2583C71.4465 32.0788 71.3209 31.8382 71.2843 31.577C71.2477 31.3158 71.3023 31.05 71.4389 30.8243L71.4676 30.7812L71.5164 30.8099C72.9202 31.6015 74.1316 32.3243 75.0474 32.7488C75.4923 32.9926 75.8311 33.2105 76.0636 33.3568L76.3306 33.5318C76.3622 33.552 76.392 33.5751 76.4196 33.6006C76.3842 33.5886 76.3504 33.5722 76.3191 33.5518L76.032 33.3941C75.7909 33.2564 75.4435 33.0471 74.9986 32.8205C74.0742 32.4161 72.8513 31.7019 71.4475 30.9161L71.5221 30.8988C71.4023 31.0933 71.3574 31.3248 71.3958 31.5499C71.4341 31.7864 71.5455 32.0051 71.7145 32.1751C72.0663 32.494 72.4342 32.7946 72.8168 33.0757C73.0006 33.2191 73.1814 33.3625 73.3508 33.506C73.394 33.5439 73.4352 33.5841 73.4742 33.6264C73.5148 33.6691 73.5504 33.7163 73.5804 33.7669C73.6321 33.8645 73.6867 33.9562 73.7383 34.0538C74.0782 34.7226 74.4618 35.3684 74.8866 35.9869C75.0703 36.2043 75.305 36.3728 75.5698 36.4773C75.7995 36.5863 76.0033 36.6666 76.1727 36.7326L76.5602 36.876C76.6131 36.8928 76.6649 36.9129 76.7153 36.9362Z" fill="#EB996E"/>
<path d="M114.619 26.9354C114.57 26.0749 114.464 21.9391 114.412 21.3082C114.359 20.4462 113.988 19.6346 113.37 19.0309C112.744 18.4573 111.771 18.1991 111.004 18.5749C110.755 18.6382 110.527 18.7663 110.343 18.9461C110.159 19.1259 110.026 19.351 109.957 19.5988C108.211 25.7996 108.487 32.402 107.715 38.8151C109.994 39.1851 113.06 39.0331 115.365 38.9126C115.365 33.793 114.932 32.4651 114.619 26.9354Z" fill="#263238"/>
<path d="M113.656 35.6818C113.643 35.6273 113.637 35.5714 113.639 35.5154C113.639 35.3892 113.624 35.2286 113.616 35.0393C113.602 34.6062 113.584 34.0125 113.561 33.2898C113.53 31.7955 113.487 29.762 113.441 27.5163C113.424 26.392 113.406 25.3193 113.392 24.3384C113.392 23.8508 113.392 23.3862 113.375 22.9531C113.383 22.5528 113.355 22.1525 113.291 21.7571C113.256 21.4725 113.158 21.1992 113.005 20.9568C112.852 20.7143 112.647 20.5087 112.404 20.3546C112.218 20.2548 112.015 20.1924 111.804 20.171H111.845C111.887 20.1669 111.929 20.1669 111.971 20.171C112.132 20.1846 112.29 20.2304 112.433 20.3058C112.66 20.429 112.856 20.6015 113.007 20.8106C113.204 21.0879 113.338 21.4052 113.398 21.7399C113.467 22.1406 113.5 22.5465 113.498 22.9531C113.498 23.3891 113.518 23.8508 113.53 24.3384C113.55 25.3193 113.57 26.392 113.59 27.5191C113.622 29.762 113.647 31.7955 113.668 33.2898C113.668 34.0154 113.668 34.6062 113.668 35.0422C113.668 35.2343 113.668 35.3921 113.668 35.5183C113.67 35.573 113.666 35.6279 113.656 35.6818Z" fill="#455A64"/>
<path d="M111.583 33.3291C111.562 33.206 111.553 33.0811 111.557 32.9563C111.557 32.7153 111.543 32.3654 111.543 31.9352C111.543 31.0748 111.56 29.8874 111.592 28.5767C111.623 27.2659 111.66 26.1072 111.686 25.2152C111.686 24.8108 111.709 24.4695 111.721 24.1999C111.718 24.0741 111.728 23.9483 111.749 23.8242C111.773 23.948 111.782 24.074 111.778 24.1999C111.778 24.4409 111.778 24.7736 111.792 25.2181C111.792 26.0786 111.775 27.2659 111.741 28.5795C111.706 29.8931 111.672 31.0461 111.649 31.9381C111.635 32.3425 111.623 32.6838 111.614 32.9563C111.617 33.0813 111.606 33.2063 111.583 33.3291Z" fill="#455A64"/>
<path d="M103.969 13.8074C105.691 13.6295 107.127 14.381 108.488 15.4221C109.85 16.4943 110.852 17.9576 111.358 19.6153C111.901 21.3361 111.909 23.7884 111.292 25.4892C111.016 26.2945 110.548 27.0209 109.929 27.6059C109.31 28.1909 108.558 28.617 107.738 28.8477C105.358 29.5188 102.677 29.2464 100.805 27.6316C98.9338 26.0169 97.9721 23.4844 98.0381 21.0149C98.0596 19.2985 98.6221 17.6325 99.6457 16.2539C100.16 15.5733 100.81 15.0059 101.554 14.5869C102.298 14.168 103.12 13.9066 103.969 13.8188" fill="#263238"/>
<path d="M108.408 19.8663C108.202 19.2038 108.345 18.4867 108.294 17.7955C108.176 16.2726 107.039 14.9848 105.67 14.3022C104.395 13.6712 102.799 13.6855 101.18 14.0928C100.063 14.352 99.0433 14.9241 98.2403 15.742C97.7276 16.2996 97.3558 16.9717 97.156 17.7022C96.9563 18.4326 96.9343 19.2002 97.092 19.9409L104.892 19.3214C105.575 19.9667 106.278 20.6235 107.134 21.0135C107.38 21.1419 107.654 21.2051 107.932 21.1971C108.07 21.1892 108.202 21.1421 108.314 21.0613C108.426 20.9805 108.513 20.8694 108.563 20.7411C108.638 20.4514 108.497 20.1531 108.408 19.8663Z" fill="#263238"/>
<path d="M100.887 16.2251L107.538 18.0951C107.851 18.1364 108.137 18.2938 108.34 18.536C108.543 18.7782 108.647 19.0876 108.632 19.4029L107.595 33.9815C107.526 34.9784 107.128 35.9243 106.464 36.6718L105.767 37.449C104.176 39.2416 101.217 38.8573 100.235 36.6718C100.175 36.5468 100.132 36.4148 100.106 36.2789C100.086 36.1688 100.071 36.0577 100.063 35.9462C99.9944 35.2082 100.004 34.4651 100.091 33.7291C100.111 32.427 100.126 31.8935 100.123 31.905C100.12 31.9165 97.3871 31.3773 96.9106 27.7749C96.6752 25.9852 96.8446 23.0655 97.057 20.6792C97.2379 18.5195 98.7364 15.9383 100.887 16.2251Z" fill="#FFBE9D"/>
<path d="M97.8907 23.4819C97.886 23.6018 97.9284 23.7187 98.0089 23.8077C98.0894 23.8967 98.2015 23.9506 98.3213 23.958C98.3797 23.9639 98.4386 23.9582 98.4947 23.9412C98.5508 23.9241 98.6029 23.8961 98.6481 23.8587C98.6932 23.8214 98.7305 23.7754 98.7577 23.7235C98.7849 23.6716 98.8015 23.6149 98.8065 23.5565C98.8112 23.4367 98.7688 23.3197 98.6883 23.2307C98.6079 23.1418 98.4957 23.0878 98.3759 23.0804C98.3176 23.0745 98.2586 23.0802 98.2025 23.0972C98.1465 23.1143 98.0943 23.1423 98.0492 23.1797C98.004 23.217 97.9668 23.263 97.9396 23.3149C97.9124 23.3668 97.8958 23.4236 97.8907 23.4819Z" fill="#263238"/>
<path d="M97.6387 22.2133C97.6933 22.2764 98.0492 22.0269 98.5459 22.0412C99.0425 22.0556 99.4071 22.3281 99.453 22.2535C99.4989 22.1789 99.4243 22.1187 99.2693 21.9982C99.0585 21.8455 98.8062 21.7605 98.5459 21.7544C98.2883 21.7469 98.035 21.8212 97.8224 21.9667C97.6674 22.0785 97.6129 22.1875 97.6387 22.2133Z" fill="#263238"/>
<path d="M102.32 23.6577C102.316 23.7775 102.358 23.8945 102.439 23.9835C102.519 24.0724 102.631 24.1264 102.751 24.1338C102.809 24.1401 102.869 24.1347 102.925 24.1178C102.981 24.1009 103.033 24.0729 103.079 24.0355C103.124 23.998 103.161 23.9519 103.188 23.8998C103.215 23.8478 103.232 23.7908 103.236 23.7323C103.24 23.6126 103.198 23.4961 103.117 23.4073C103.037 23.3185 102.925 23.2643 102.806 23.2562C102.747 23.2502 102.688 23.256 102.632 23.273C102.576 23.2901 102.524 23.3181 102.479 23.3555C102.434 23.3928 102.396 23.4388 102.369 23.4907C102.342 23.5426 102.325 23.5993 102.32 23.6577Z" fill="#263238"/>
<path d="M102.335 22.4008C102.39 22.4639 102.746 22.2143 103.24 22.2287C103.733 22.243 104.101 22.5155 104.147 22.4409C104.193 22.3664 104.121 22.3061 103.963 22.1857C103.752 22.0326 103.5 21.9476 103.24 21.9419C102.982 21.9347 102.729 22.009 102.516 22.1541C102.361 22.266 102.318 22.375 102.335 22.4008Z" fill="#263238"/>
<path d="M100.6 26.0575C100.341 25.969 100.072 25.9131 99.7995 25.8911C99.6732 25.8739 99.5555 25.8481 99.5354 25.7592C99.5272 25.629 99.5604 25.4995 99.6302 25.3892C99.7565 25.0852 99.8885 24.7668 100.029 24.437C100.586 23.0804 100.991 21.9647 100.936 21.9418C100.882 21.9188 100.385 23.0001 99.8311 24.3567C99.6962 24.6923 99.567 25.0106 99.4464 25.3147C99.3632 25.4648 99.3358 25.6395 99.3689 25.808C99.3855 25.8532 99.4122 25.894 99.4471 25.9273C99.4819 25.9607 99.5239 25.9856 99.5699 26.0001C99.64 26.0201 99.7123 26.0316 99.7852 26.0346C100.055 26.0768 100.329 26.0846 100.6 26.0575Z" fill="#263238"/>
<path d="M100.111 31.9011C101.799 31.9743 103.475 31.5771 104.951 30.7539C104.951 30.7539 103.676 33.2033 100.094 32.7616L100.111 31.9011Z" fill="#EB996E"/>
<path d="M100.787 27.2527C100.884 27.1362 101.009 27.0465 101.15 26.9922C101.291 26.938 101.444 26.921 101.594 26.9429C101.703 26.9551 101.808 26.9894 101.903 27.0436C101.999 27.0979 102.082 27.1709 102.148 27.2584C102.212 27.3424 102.249 27.4441 102.254 27.5497C102.258 27.6554 102.23 27.76 102.174 27.8492C102.092 27.9359 101.985 27.9962 101.869 28.0223C101.752 28.0483 101.63 28.039 101.519 27.9955C101.288 27.9069 101.076 27.7734 100.896 27.6026C100.842 27.5606 100.795 27.5091 100.758 27.4506C100.74 27.4235 100.73 27.3915 100.73 27.3588C100.73 27.326 100.74 27.2941 100.758 27.267" fill="#EB996E"/>
<path d="M102.056 26.4375C101.975 26.4375 101.961 26.9681 101.482 27.3353C101.002 27.7024 100.442 27.6221 100.434 27.7052C100.425 27.7884 100.56 27.8142 100.801 27.8257C101.113 27.834 101.418 27.7325 101.662 27.5389C101.903 27.3551 102.06 27.084 102.102 26.7846C102.15 26.5695 102.093 26.4347 102.056 26.4375Z" fill="#263238"/>
<path d="M102.463 20.9325C102.506 21.0702 103.003 21.0186 103.583 21.1046C104.163 21.1906 104.628 21.3599 104.708 21.2423C104.742 21.1849 104.665 21.0558 104.478 20.921C104.232 20.7518 103.948 20.6437 103.652 20.6055C103.355 20.5627 103.052 20.5902 102.767 20.6859C102.552 20.7662 102.443 20.8694 102.463 20.9325Z" fill="#263238"/>
<path d="M97.8395 20.0509C97.9257 20.1656 98.2673 20.0509 98.6778 20.0509C99.0883 20.0509 99.4357 20.1455 99.516 20.0308C99.5534 19.9735 99.5017 19.8616 99.3524 19.744C99.1541 19.6082 98.9182 19.538 98.6778 19.5432C98.4368 19.5396 98.2008 19.6119 98.0032 19.7498C97.8539 19.8817 97.8022 19.9964 97.8395 20.0509Z" fill="#263238"/>
<path d="M109.71 18.9061C109.136 16.8095 106.265 13.8123 104.101 13.8639L100.547 15.7827C100.632 16.3775 100.877 16.9381 101.256 17.4051C101.634 17.8722 102.132 18.2282 102.697 18.4357C103.3 18.6508 104.035 18.7225 104.373 19.2789C104.712 19.8353 104.468 20.604 104.79 21.1719C105.232 21.9606 106.544 21.9835 106.865 22.8325C107.006 23.1996 106.905 23.6298 107.052 23.997C107.25 24.4874 108.435 25.1442 108.943 25.0123C109.452 24.8803 109.495 24.0228 109.678 23.5782C109.908 23.083 109.96 22.5239 109.825 21.995C109.653 20.974 109.98 19.907 109.71 18.9061Z" fill="#263238"/>
<path d="M107.443 25.3703C107.443 25.1035 107.779 24.484 108.043 24.4496C108.749 24.3578 110.018 24.4496 109.984 26.2364C109.935 28.6801 107.489 28.1265 107.486 28.0577C107.483 27.9888 107.417 26.2938 107.443 25.3703Z" fill="#FFBE9D"/>
<path d="M108.248 27.14C108.248 27.14 108.291 27.1716 108.363 27.206C108.463 27.2513 108.577 27.2565 108.682 27.2203C108.943 27.1285 109.167 26.7241 109.187 26.2825C109.197 26.0735 109.161 25.8647 109.081 25.6715C109.059 25.5949 109.02 25.5246 108.965 25.4666C108.911 25.4086 108.843 25.3648 108.768 25.3388C108.719 25.3242 108.666 25.3274 108.619 25.3478C108.573 25.3683 108.535 25.4048 108.512 25.4507C108.478 25.5167 108.492 25.5654 108.481 25.5712C108.469 25.5769 108.429 25.5281 108.449 25.4278C108.465 25.3675 108.5 25.3142 108.549 25.2757C108.618 25.2265 108.704 25.206 108.788 25.2184C108.887 25.241 108.979 25.2883 109.056 25.356C109.132 25.4237 109.19 25.5096 109.224 25.6056C109.325 25.8195 109.371 26.055 109.359 26.2911C109.333 26.7844 109.072 27.2404 108.716 27.3351C108.65 27.3522 108.581 27.3546 108.514 27.3422C108.447 27.3299 108.384 27.3029 108.328 27.2633C108.254 27.2003 108.239 27.1458 108.248 27.14Z" fill="#EB996E"/>
<path d="M111.713 22.2935C111.799 22.0612 111.846 21.8158 111.851 21.5679C111.942 20.3637 111.623 19.1638 110.946 18.1635C110.82 17.9466 110.658 17.7526 110.467 17.5898C110.418 17.6185 111.184 18.4818 111.529 19.8184C111.873 21.1549 111.658 22.2907 111.713 22.2935Z" fill="#C7183A"/>
<path d="M101.302 15.0788C101.015 16.0568 99.4189 17.2298 98.7185 17.9469C97.3578 19.3379 97.1052 19.5415 96.8324 23.9699C96.2646 22.5486 96.0138 21.0208 96.0975 19.4928C96.2152 18.2108 96.7934 17.0147 97.7252 16.1256C98.1987 15.685 98.7687 15.3609 99.3897 15.1792C100.011 14.9975 100.666 14.9631 101.302 15.0788Z" fill="#263238"/>
<path d="M110.956 18.9588C110.818 18.9984 110.677 19.0243 110.534 19.0362C110.399 19.0563 110.232 19.0793 110.034 19.0907C109.836 19.1022 109.618 19.1252 109.371 19.1223C108.795 19.1335 108.22 19.1019 107.649 19.0276C106.946 18.9327 106.251 18.7802 105.573 18.5716C104.898 18.3544 104.242 18.084 103.61 17.7628C103.096 17.495 102.603 17.1902 102.134 16.8508C101.93 16.7131 101.761 16.5639 101.609 16.4464C101.457 16.3288 101.322 16.2112 101.23 16.1165C101.12 16.0237 101.018 15.922 100.926 15.8125C101.047 15.8892 101.161 15.9765 101.267 16.0735C101.37 16.1624 101.5 16.2685 101.658 16.3804C101.815 16.4922 101.988 16.6356 102.194 16.7676C102.667 17.0871 103.161 17.3746 103.673 17.628C104.3 17.9404 104.949 18.2051 105.616 18.4196C106.287 18.6227 106.972 18.777 107.666 18.8814C108.237 18.9604 108.812 19.0016 109.388 19.0047C109.632 19.0047 109.853 19.0047 110.049 19.0047C110.244 19.0047 110.41 18.9904 110.545 18.976C110.681 18.9591 110.819 18.9534 110.956 18.9588Z" fill="#455A64"/>
<path d="M111.098 20.7183C111.005 20.7455 110.908 20.7618 110.811 20.7671C110.547 20.7982 110.282 20.8144 110.016 20.8158C108.253 20.8336 106.518 20.3748 104.995 19.4879C104.767 19.3553 104.545 19.2107 104.332 19.0548C104.248 19.0032 104.172 18.9405 104.105 18.8684C104.12 18.8483 104.461 19.0835 105.047 19.399C106.577 20.2243 108.281 20.6746 110.019 20.7126C110.682 20.7298 111.095 20.6925 111.098 20.7183Z" fill="#455A64"/>
<path d="M111.711 20.8164C111.747 20.9366 111.767 21.061 111.771 21.1864C111.794 21.4302 111.808 21.7801 111.806 22.2132C111.799 22.7212 111.766 23.2285 111.708 23.7333C111.642 24.3534 111.518 24.966 111.338 25.5631C110.978 26.6585 110.245 27.5926 109.265 28.2018C108.969 28.378 108.656 28.5222 108.329 28.632C108.212 28.678 108.089 28.7107 107.965 28.7295C108.074 28.6682 108.19 28.6173 108.309 28.5775C108.622 28.448 108.923 28.2926 109.21 28.1129C109.632 27.843 110.006 27.5047 110.316 27.1119C110.705 26.6403 111.003 26.1005 111.194 25.5201C111.372 24.931 111.498 24.3273 111.57 23.7161C111.642 23.1424 111.679 22.6405 111.699 22.2103C111.72 21.7801 111.72 21.4302 111.699 21.1921C111.694 21.0668 111.698 20.9412 111.711 20.8164Z" fill="#455A64"/>
<path d="M78.1068 34.9297L85.2032 42.1C86.1362 41.8848 97.5875 35.0473 97.5875 35.0473L99.3989 43.8466C99.3989 43.8466 87.6778 49.2387 84.454 48.5847C83.9258 48.4786 83.0617 48.4098 82.5162 47.7243C79.9268 44.4002 75.0466 37.4249 75.0466 37.4249L78.1068 34.9297Z" fill="#FFBE9D"/>
<path d="M87.4177 100.72L90.92 108.306L96.5724 105.696L92.9496 96.3086L87.4177 100.72Z" fill="#FFBE9D"/>
<path d="M90.2631 107.796L92.3099 111.696C92.3099 111.696 87.0622 117.109 87.556 118.33L99.8713 112.431L96.4868 104.609L90.2631 107.796Z" fill="#455A64"/>
<path d="M95.8532 109.342C95.9886 109.325 96.1256 109.356 96.2397 109.431C96.3539 109.505 96.4377 109.618 96.4762 109.749C96.5022 109.884 96.4752 110.023 96.4009 110.139C96.3266 110.254 96.2106 110.336 96.0771 110.368C95.933 110.394 95.7846 110.363 95.6624 110.282C95.5402 110.202 95.4534 110.078 95.4198 109.935C95.4075 109.792 95.4512 109.65 95.5416 109.538C95.632 109.426 95.7622 109.354 95.9049 109.336" fill="#E0E0E0"/>
<g opacity="0.6">
<path d="M99.8716 112.418L99.3578 111.445L87.7428 117.468C87.7428 117.468 87.3094 117.97 87.5562 118.329L99.8716 112.418Z" fill="white"/>
</g>
<path d="M92.0734 111.734C92.105 111.794 92.4179 111.676 92.8083 111.734C93.1987 111.791 93.4743 111.963 93.5173 111.911C93.5604 111.86 93.3049 111.559 92.8341 111.504C92.3633 111.45 92.0332 111.679 92.0734 111.734Z" fill="#263238"/>
<path d="M91.0362 112.887C91.0505 112.953 91.3606 112.93 91.6878 113.087C92.0151 113.245 92.2017 113.483 92.262 113.452C92.3223 113.42 92.196 113.062 91.7883 112.878C91.3807 112.694 91.0104 112.829 91.0362 112.887Z" fill="#263238"/>
<path d="M91.0443 114.777C91.1046 114.777 91.0443 114.424 90.7314 114.169C90.4185 113.914 90.0769 113.92 90.074 113.98C90.0711 114.04 90.3324 114.135 90.585 114.35C90.8376 114.565 90.9811 114.8 91.0443 114.777Z" fill="#263238"/>
<path d="M91.4894 110.228C91.5411 110.271 91.7765 110.056 92.1267 109.915C92.4769 109.775 92.7927 109.755 92.8013 109.689C92.8099 109.623 92.4511 109.531 92.0377 109.689C91.6243 109.846 91.4349 110.194 91.4894 110.228Z" fill="#263238"/>
<path d="M87.1379 104.849L78.4138 81.15C78.4138 81.15 78.6205 77.2121 79.3468 75.9674C80.0731 74.7226 102.069 67.4663 102.069 67.4663C102.069 67.4663 107.672 66.1183 111.407 67.4663C115.142 68.8143 118.937 70.4778 118.564 73.0935C118.504 73.4933 118.407 73.8869 118.277 74.2694C117.648 76.1113 116.47 77.7163 114.9 78.8682C113.33 80.02 111.445 80.6633 109.498 80.7112L106.576 81.0439L91.7483 83.8719C91.5937 83.9034 91.4473 83.9665 91.3183 84.0571C91.1892 84.1477 91.0801 84.2639 90.998 84.3984C90.9158 84.533 90.8623 84.683 90.8408 84.8391C90.8192 84.9953 90.8301 85.1542 90.8727 85.3059L95.6611 101.25C95.6611 101.25 90.4306 103.799 87.1379 104.849Z" fill="#263238"/>
<path d="M79.433 88.4508L79.2263 96.8027L85.45 96.9548L86.3486 86.9336L79.433 88.4508Z" fill="#FFBE9D"/>
<path d="M79.2279 95.6953L78.9695 100.462C78.9695 100.462 71.8788 103.009 71.7927 104.311L85.4516 104.449L85.8707 95.9391L79.2279 95.6953Z" fill="#455A64"/>
<path d="M78.9046 97.7689C78.884 97.6889 78.884 97.605 78.9046 97.5251C78.9506 97.299 79.0489 97.0869 79.1917 96.9056C79.2364 96.8372 79.2916 96.7762 79.3553 96.7249C79.3976 96.6904 79.4476 96.6667 79.5011 96.6557C79.5546 96.6447 79.61 96.6468 79.6625 96.6618C79.6927 96.671 79.7205 96.6869 79.7439 96.7082C79.7672 96.7295 79.7855 96.7558 79.7974 96.7851C79.8177 96.8387 79.8177 96.8979 79.7974 96.9515C79.7577 97.039 79.7096 97.1226 79.6538 97.201C79.5476 97.3616 79.4586 97.5222 79.3237 97.7029C79.28 97.7558 79.2238 97.7969 79.1601 97.8224C79.0964 97.848 79.0273 97.8572 78.9591 97.8492C78.8322 97.832 78.7111 97.7848 78.606 97.7115C78.4171 97.5882 78.2428 97.4439 78.0864 97.2813C78.0137 97.2062 77.9456 97.1267 77.8826 97.0432C77.8102 96.9603 77.7573 96.8624 77.7276 96.7564C77.7155 96.6977 77.7248 96.6365 77.7537 96.584C77.7826 96.5314 77.8293 96.4909 77.8855 96.4696C77.9403 96.455 77.9978 96.4531 78.0535 96.464C78.1093 96.475 78.1617 96.4985 78.207 96.5327C78.3376 96.6337 78.4543 96.7514 78.5544 96.8826C78.6952 97.0622 78.8093 97.2612 78.8931 97.4735C78.9289 97.548 78.9494 97.6289 78.9534 97.7115C78.8143 97.4414 78.6499 97.185 78.4625 96.9457C78.3643 96.8278 78.2526 96.7219 78.1295 96.6302C78.1025 96.6083 78.071 96.5928 78.0372 96.5849C78.0034 96.5769 77.9682 96.5767 77.9343 96.5843C77.9059 96.5964 77.8832 96.6189 77.871 96.6472C77.8587 96.6755 77.8577 96.7074 77.8683 96.7363C77.899 96.8178 77.9447 96.8927 78.0032 96.9572C78.0652 97.0361 78.1313 97.1118 78.2013 97.1838C78.3512 97.3347 78.5167 97.4693 78.695 97.5853C78.7804 97.6455 78.8787 97.6848 78.9821 97.7C79.0238 97.7062 79.0664 97.7009 79.1053 97.6847C79.1443 97.6686 79.1781 97.6421 79.2031 97.6083C79.318 97.462 79.427 97.2784 79.5304 97.1264C79.5829 97.0571 79.6291 96.9832 79.6682 96.9056C79.6969 96.8339 79.6682 96.7908 79.6251 96.7708C79.5017 96.7249 79.3811 96.8511 79.2979 96.9572C79.1124 97.1979 78.9785 97.4742 78.9046 97.7689Z" fill="#263238"/>
<path d="M83.2013 99.9085C83.3301 99.9528 83.439 100.041 83.5084 100.159C83.5779 100.276 83.6033 100.414 83.5802 100.548C83.5431 100.68 83.4572 100.793 83.3399 100.863C83.2226 100.934 83.0827 100.958 82.9486 100.929C82.8078 100.889 82.688 100.795 82.6138 100.669C82.5396 100.543 82.5166 100.393 82.5496 100.25C82.6012 100.115 82.7033 100.006 82.8341 99.9458C82.9648 99.8853 83.1141 99.8781 83.2501 99.9257" fill="#E0E0E0"/>
<g opacity="0.6">
<path d="M85.4406 104.443L85.4147 103.336L72.33 103.623C72.33 103.623 71.7185 103.881 71.7817 104.311L85.4406 104.443Z" fill="white"/>
</g>
<path d="M78.7501 100.387C78.7501 100.453 79.0831 100.487 79.4104 100.705C79.7377 100.923 79.907 101.204 79.9702 101.178C80.0333 101.152 79.9357 100.768 79.5367 100.51C79.1377 100.252 78.7358 100.326 78.7501 100.387Z" fill="#263238"/>
<path d="M77.3089 100.964C77.2945 101.03 77.5816 101.145 77.8055 101.429C78.0294 101.713 78.0926 102.002 78.1586 102.002C78.2246 102.002 78.2706 101.624 77.9864 101.277C77.7022 100.93 77.3117 100.901 77.3089 100.964Z" fill="#263238"/>
<path d="M76.4845 102.671C76.5448 102.685 76.6424 102.352 76.4845 101.985C76.3266 101.618 76.0079 101.472 75.9792 101.526C75.9505 101.581 76.14 101.779 76.2663 102.083C76.3926 102.387 76.4127 102.662 76.4845 102.671Z" fill="#263238"/>
<path d="M78.8848 98.7807C78.9135 98.8409 79.2206 98.752 79.5967 98.7807C79.9728 98.8094 80.2656 98.9327 80.3 98.8753C80.3345 98.818 80.056 98.5885 79.6111 98.5512C79.1661 98.514 78.8532 98.7262 78.8848 98.7807Z" fill="#263238"/>
<path d="M83.0702 65.2737C83.0702 65.2737 79.3382 64.9869 78.9249 69.0165C78.5115 73.0462 76.5623 91.7979 76.5623 91.7979L86.8165 92.6583L88.1657 73.3761L102.069 67.4678C102.069 67.4678 85.5591 64.7517 83.0702 65.2737Z" fill="#263238"/>
<path d="M98.4366 59.8242C98.4366 59.8242 96.1744 66.1627 96.605 66.8683C97.0357 67.5738 102.857 70.485 102.857 70.485L117.421 76.072C117.421 76.072 118.916 73.6944 118.916 70.049C118.916 66.4037 113.852 59.8242 113.852 59.8242H98.4366Z" fill="#263238"/>
<path d="M102.756 67.1406C102.734 67.1544 102.711 67.1659 102.687 67.175L102.48 67.2726L101.674 67.6311L98.6481 68.9475L88.1958 73.4419L88.2417 73.3759C88.1097 75.2803 87.9547 77.3396 87.8197 79.4677C87.4666 84.441 87.1394 89.0271 86.881 92.661V92.727H86.815L80.4678 92.1706L78.7196 92.0071L78.2631 91.9612C78.21 91.9577 78.1572 91.95 78.1052 91.9383C78.1578 91.9338 78.2106 91.9338 78.2631 91.9383L78.7224 91.9669L80.4736 92.096L86.8179 92.5865L86.749 92.6467C86.9987 89.0185 87.3231 84.4296 87.6561 79.4534C87.8054 77.3253 87.9432 75.266 88.0838 73.3644V73.3071L88.1269 73.287L98.6021 68.8472L101.654 67.5708L102.472 67.2353L102.684 67.1521L102.756 67.1406Z" fill="#455A64"/>
<path d="M114.34 67.7743C114.201 67.7485 114.065 67.7111 113.932 67.6625L112.836 67.3097C111.639 66.9034 110.411 66.5936 109.164 66.3833C107.92 66.1779 106.648 66.1935 105.409 66.4292C104.459 66.6271 103.914 66.8967 103.902 66.8652C104.021 66.7874 104.148 66.7239 104.281 66.6759C104.637 66.5239 105.006 66.4039 105.383 66.3174C106.635 66.0448 107.927 66.0127 109.19 66.2227C110.445 66.4328 111.677 66.7602 112.87 67.2007C113.33 67.3613 113.7 67.5019 113.952 67.6023C114.087 67.6462 114.217 67.7039 114.34 67.7743Z" fill="#455A64"/>
<path d="M112.282 64.4247C111.858 64.4006 111.432 64.4006 111.007 64.4247C110.617 64.4505 110.146 64.5107 109.63 64.571C109.113 64.6312 108.542 64.7029 107.953 64.8148C106.941 64.9756 105.971 65.3354 105.1 65.8731C104.75 66.1133 104.418 66.3799 104.109 66.6704C104.163 66.5643 104.234 66.4675 104.319 66.3836C104.534 66.153 104.774 65.9462 105.034 65.767C105.905 65.191 106.89 64.8076 107.921 64.6427C108.519 64.5308 109.093 64.4648 109.612 64.4104C110.132 64.3559 110.603 64.31 111.002 64.2985C111.317 64.2839 111.633 64.2983 111.946 64.3415C112.062 64.3517 112.175 64.3798 112.282 64.4247Z" fill="#455A64"/>
<path d="M91.1242 109.441C91.069 109.368 91.0299 109.284 91.0094 109.195C90.9395 108.953 90.9199 108.701 90.952 108.452C90.9603 108.365 90.9796 108.281 91.0094 108.199C91.0298 108.148 91.0632 108.102 91.1065 108.068C91.1498 108.033 91.2015 108.01 91.2563 108.001C91.2897 107.998 91.3235 108.001 91.3553 108.012C91.387 108.023 91.416 108.041 91.44 108.065C91.4817 108.112 91.5078 108.171 91.5147 108.234C91.5234 108.338 91.5234 108.442 91.5147 108.546C91.4974 108.753 91.4974 108.954 91.4659 109.195C91.4548 109.264 91.4253 109.33 91.3803 109.384C91.3354 109.439 91.2767 109.48 91.2104 109.504C91.0845 109.542 90.9511 109.547 90.8228 109.519C90.5906 109.48 90.364 109.412 90.1482 109.318C90.045 109.275 89.9444 109.226 89.8468 109.172C89.743 109.122 89.6502 109.051 89.5741 108.965C89.5311 108.914 89.5076 108.849 89.5076 108.782C89.5076 108.714 89.5311 108.65 89.5741 108.598C89.6175 108.558 89.6702 108.53 89.7274 108.516C89.7846 108.502 89.8444 108.502 89.9013 108.518C90.071 108.564 90.234 108.631 90.3865 108.718C90.6061 108.836 90.8073 108.984 90.9836 109.16C91.0518 109.22 91.1091 109.29 91.153 109.369C90.8979 109.161 90.624 108.977 90.3348 108.819C90.1899 108.748 90.0379 108.692 89.8812 108.652C89.8009 108.652 89.7147 108.652 89.6832 108.693C89.6642 108.72 89.6555 108.753 89.6586 108.786C89.6618 108.819 89.6766 108.85 89.7004 108.873C89.7657 108.941 89.8437 108.996 89.93 109.034C90.0226 109.086 90.1185 109.132 90.2171 109.172C90.4236 109.258 90.6394 109.321 90.8601 109.358C90.9601 109.383 91.0645 109.383 91.1644 109.358C91.205 109.344 91.2407 109.319 91.2676 109.285C91.2945 109.252 91.3115 109.211 91.3166 109.169C91.3453 108.971 91.3539 108.739 91.374 108.541C91.3856 108.445 91.3904 108.35 91.3884 108.254C91.3884 108.171 91.3424 108.133 91.2821 108.136C91.1501 108.136 91.1013 108.325 91.0783 108.469C91.031 108.793 91.0466 109.123 91.1242 109.441Z" fill="#263238"/>
<path d="M98.0806 34.8359C97.0541 35.2333 96.1984 35.9757 95.6606 36.9354C94.7534 38.5444 94.9974 39.336 95.2328 40.2853C95.4682 41.2347 95.8902 43.119 95.9132 42.9986C95.9361 42.8781 98.0806 34.8359 98.0806 34.8359Z" fill="#FFBE9D"/>
<path d="M113.435 37.6961C113.435 37.6961 112.246 34.828 112 34.5641L107.613 33.457L104.872 34.7993C104.081 35.1998 103.195 35.3754 102.311 35.307C101.329 35.2152 100.468 34.8194 100.034 34.0938L98.312 34.5584C98.312 34.5584 95.5906 42.764 95.6451 45.0356C95.6996 47.3071 96.647 53.7604 96.5379 55.0338C96.4288 56.3072 96.891 59.8207 98.4412 59.8207H113.857C113.857 59.8207 117.336 58.857 117.488 56.7661C117.641 54.6753 113.435 37.6961 113.435 37.6961Z" fill="#C7183A"/>
<path d="M108.522 50.15C108.447 50.2345 108.36 50.3079 108.264 50.368C108.013 50.5478 107.746 50.7033 107.466 50.8326C107.049 51.0261 106.606 51.1584 106.151 51.2256C105.591 51.3064 105.02 51.2821 104.469 51.1539C103.473 50.8994 102.567 50.3743 101.851 49.6367C101.634 49.4191 101.434 49.1862 101.251 48.9397C101.179 48.8522 101.118 48.7558 101.07 48.6529C101.093 48.6357 101.371 49.0286 101.931 49.5535C102.653 50.2474 103.544 50.7416 104.515 50.9875C105.49 51.209 106.511 51.1145 107.429 50.7179C108.126 50.4254 108.505 50.1214 108.522 50.15Z" fill="#263238"/>
<g opacity="0.3">
<path d="M101.324 49.0118C101.431 50.1897 101.999 51.2775 102.906 52.0377C103.361 52.4077 103.897 52.6655 104.47 52.7901C105.043 52.9147 105.637 52.9025 106.205 52.7547C106.769 52.5936 107.277 52.2803 107.675 51.8492C108.073 51.4182 108.344 50.886 108.458 50.3111C107.682 50.7098 106.854 50.9993 105.998 51.1715C105.074 51.2951 104.134 51.1487 103.291 50.7502C102.449 50.3517 101.74 49.7181 101.25 48.9258L101.373 49.0577" fill="black"/>
</g>
<g opacity="0.3">
<path d="M114.295 51.5079C112.668 48.353 110.945 45.0833 108.097 42.9609C108.729 45.1178 109.295 47.1455 109.992 49.2708C110.19 49.8759 110.503 50.5815 111.14 50.6819C111.373 50.7192 111.611 50.6618 111.841 50.7077C112.237 50.7851 112.507 51.1379 112.719 51.4792C112.892 51.8439 113.163 52.1529 113.503 52.3712C113.865 52.549 114.416 52.3712 114.45 51.9811C114.444 51.812 114.39 51.648 114.295 51.5079Z" fill="black"/>
</g>
<path d="M118.918 45.4861L111.152 49.1228C111.152 49.1228 107.708 42.2394 107.441 41.2843C107.174 40.3292 106.579 38.703 107.461 36.6953C107.855 35.8426 108.543 35.1603 109.4 34.7732C110.257 34.3861 111.224 34.3201 112.126 34.5873C115.55 35.8091 118.918 45.4861 118.918 45.4861Z" fill="#C7183A"/>
<path d="M96.4028 45.4815C96.0411 45.4815 91.8757 47.6584 91.8757 47.6584L89.1169 39.665C92.6967 37.7262 96.6755 34.99 98.7453 34.4336L96.9454 40.6746L96.4028 45.4815Z" fill="#C7183A"/>
<path d="M111.912 48.6376C113.382 51.0525 114.409 52.4407 114.409 52.4407L101.219 60.4714L102.754 64.0393L118.79 57.4427C119.329 57.2286 119.81 56.8898 120.193 56.454C120.576 56.0182 120.85 55.498 120.992 54.9359C121.124 54.4079 121.111 53.854 120.955 53.3327L118.228 45.8125L111.912 48.6376Z" fill="#FFBE9D"/>
<path d="M117.622 53.672C117.117 53.3587 116.589 53.0845 116.043 52.8517C115.121 52.5046 114.306 52.496 114.32 52.4444C114.928 52.4011 115.538 52.4882 116.11 52.6999C116.681 52.9117 117.2 53.2431 117.633 53.672H117.622Z" fill="#EB996E"/>
<path d="M96.8802 38.3711C96.7917 38.4845 96.7166 38.6077 96.6563 38.7382C96.4848 39.0806 96.3417 39.4365 96.2285 39.8023C95.8707 40.99 95.652 42.2153 95.5769 43.4534C95.4824 44.6817 95.4968 45.916 95.6199 47.1418C95.6566 47.5147 95.7141 47.8852 95.7922 48.2517C95.8128 48.3893 95.8494 48.5241 95.9013 48.6532C95.9047 48.5154 95.8912 48.3777 95.8611 48.2431C95.8266 47.9821 95.7807 47.6035 95.7491 47.136C95.6612 45.9129 95.6612 44.6851 95.7491 43.462C95.8273 42.2341 96.0263 41.017 96.3433 39.8281C96.4459 39.4646 96.5696 39.1074 96.7137 38.7583C96.7832 38.6357 96.839 38.5059 96.8802 38.3711Z" fill="#263238"/>
<path d="M90.9841 62.9124L94.2826 61.3407L100.702 60.8301L101.227 60.4688L102.763 64.0367C102.763 64.0367 101.08 64.8397 100.199 64.9114L94.7993 64.748L91.9774 65.0348L90.9841 62.9124Z" fill="#FFBE9D"/>
<path d="M118.917 45.4823C118.864 45.494 118.813 45.5123 118.765 45.5368L118.334 45.7175L116.764 46.4145L111.596 48.7634L110.968 49.0503L111.065 49.0847C110.17 47.2405 109.386 45.5885 108.829 44.3953C108.559 43.8217 108.341 43.337 108.18 42.9871L108.005 42.6056C107.987 42.5595 107.963 42.516 107.933 42.4766C107.944 42.5245 107.958 42.5715 107.976 42.6171C108.011 42.706 108.06 42.8379 108.129 43.0072C108.263 43.3485 108.47 43.836 108.737 44.4412C109.268 45.6458 110.038 47.3093 110.933 49.1535L110.965 49.2195L111.031 49.1879L111.66 48.9011L116.795 46.5149L118.345 45.7749L118.765 45.5655C118.818 45.5436 118.869 45.5157 118.917 45.4823Z" fill="#263238"/>
<path d="M111.775 34.6056C111.775 34.6343 111.411 34.6228 110.848 34.7576C110.117 34.9297 109.442 35.2868 108.889 35.7946C108.336 36.3024 107.923 36.9439 107.69 37.6572C107.504 38.2051 107.484 38.5693 107.455 38.5664C107.442 38.4819 107.442 38.3958 107.455 38.3112C107.478 38.0791 107.522 37.8497 107.587 37.6257C107.802 36.8796 108.22 36.2074 108.793 35.6831C109.367 35.1589 110.074 34.8029 110.837 34.6543C111.058 34.6101 111.283 34.5871 111.508 34.5855C111.598 34.5771 111.688 34.5839 111.775 34.6056Z" fill="#263238"/>
<path d="M116.236 39.6016C116.216 39.7202 116.181 39.8358 116.132 39.9457C116.028 40.2569 115.879 40.5515 115.69 40.8205L115.487 41.0758L115.375 41.2134L115.243 41.3368L114.955 41.592L114.622 41.8186C114.112 42.1291 113.56 42.3657 112.983 42.5213C111.766 42.8626 110.638 43.0232 109.857 43.267C109.435 43.399 109.021 43.5551 108.617 43.7345C108.71 43.6584 108.812 43.5939 108.921 43.5423C109.042 43.4715 109.169 43.4111 109.3 43.3616L109.544 43.2584L109.831 43.1666C110.615 42.8798 111.746 42.7135 112.949 42.3779C113.513 42.226 114.054 41.9983 114.556 41.701L114.884 41.4859L115.171 41.245C115.214 41.2048 115.26 41.1704 115.3 41.1303L115.409 41.0012L115.616 40.7603C115.806 40.5008 115.965 40.2197 116.089 39.9228C116.127 39.8111 116.176 39.7034 116.236 39.6016Z" fill="white"/>
<path d="M115.216 37.7716C115.105 37.7842 114.996 37.8102 114.892 37.849C114.618 37.9799 114.393 38.1924 114.246 38.457C114.142 38.6205 114.039 38.807 113.901 38.9991C113.751 39.1999 113.576 39.3802 113.379 39.5355C112.92 39.8775 112.401 40.1296 111.849 40.2783C111.274 40.4532 110.7 40.5651 110.209 40.677C109.766 40.7773 109.332 40.9184 108.915 41.0986C108.537 41.2771 108.184 41.5058 107.867 41.7783C107.867 41.7783 107.881 41.7496 107.919 41.7066C107.973 41.6415 108.031 41.5802 108.094 41.5231C108.326 41.312 108.588 41.1362 108.872 41.0011C109.29 40.8038 109.728 40.6509 110.178 40.545C110.68 40.4131 111.24 40.307 111.806 40.1349C112.34 39.9898 112.843 39.7498 113.293 39.4265C113.483 39.2822 113.654 39.1134 113.801 38.9245C113.936 38.7467 114.045 38.5603 114.16 38.3997C114.323 38.1243 114.573 37.9112 114.871 37.7945C114.953 37.7648 115.04 37.7512 115.127 37.7544C115.184 37.7572 115.216 37.7658 115.216 37.7716Z" fill="white"/>
<path d="M108.948 44.6758C108.911 44.7037 108.871 44.7268 108.828 44.7446L108.463 44.9138C108.147 45.0572 107.685 45.2609 107.105 45.4875C106.425 45.7565 105.726 45.9732 105.013 46.1357C104.135 46.3425 103.227 46.3958 102.331 46.2934C101.445 46.1477 100.578 45.9004 99.7476 45.5563C99.075 45.2896 98.3751 45.0973 97.6606 44.9827C97.1791 44.9112 96.6889 44.9219 96.2109 45.0142C95.8722 45.0859 95.6942 45.1662 95.6913 45.1519C95.6884 45.1375 95.7315 45.1261 95.8147 45.0859C95.9386 45.0335 96.0663 44.9904 96.1965 44.9569C96.6794 44.8408 97.1794 44.8136 97.6721 44.8766C98.3983 44.9786 99.1102 45.1644 99.7935 45.4301C100.616 45.7617 101.473 46.0022 102.348 46.1471C103.228 46.2464 104.118 46.1979 104.981 46.0037C105.689 45.8485 106.385 45.6443 107.065 45.3928C107.639 45.1806 108.116 44.9941 108.437 44.8651L108.81 44.7217C108.854 44.699 108.9 44.6835 108.948 44.6758Z" fill="white"/>
<path d="M96.2107 42.0371C96.2107 42.0371 96.2423 42.0056 96.3112 41.9568C96.4138 41.8896 96.5236 41.8338 96.6384 41.7905C97.0659 41.6298 97.5278 41.5823 97.9791 41.6528C98.6438 41.7544 99.2825 41.9843 99.8594 42.3297C100.546 42.7557 101.262 43.1333 102.001 43.4597C102.76 43.7288 103.564 43.8495 104.369 43.8153C105.028 43.7908 105.684 43.7121 106.33 43.5802C106.884 43.474 107.332 43.3679 107.639 43.2934C107.797 43.2493 107.958 43.2177 108.121 43.1987C107.969 43.2608 107.813 43.3116 107.653 43.3507C107.349 43.4396 106.907 43.5601 106.353 43.6805C105.702 43.8288 105.039 43.919 104.372 43.9501C103.549 43.9931 102.726 43.8732 101.949 43.5974C101.203 43.2692 100.482 42.8857 99.7934 42.4501C99.2326 42.1071 98.6123 41.8726 97.9647 41.7589C97.5288 41.6808 97.0804 41.7103 96.6585 41.845C96.3628 41.9396 96.2193 42.0371 96.2107 42.0371Z" fill="white"/>
<path d="M94.7271 46.1194C94.7271 46.1194 94.6956 46.1194 94.6381 46.1194C94.5545 46.1029 94.4728 46.0779 94.3941 46.0449C94.0998 45.9174 93.8408 45.7206 93.6391 45.4713C93.3372 45.1121 93.1177 44.6911 92.9961 44.238C92.8626 43.6866 92.7932 43.1217 92.7894 42.5544C92.7849 41.9965 92.7408 41.4397 92.6574 40.888C92.5774 40.4426 92.4179 40.0151 92.1866 39.6261C91.9648 39.2709 91.6592 38.9755 91.2966 38.7656C91.2966 38.7656 91.3282 38.7656 91.3828 38.7914C91.4625 38.8218 91.5393 38.8593 91.6124 38.9033C91.8773 39.0772 92.1015 39.3061 92.2698 39.5744C92.5227 39.9678 92.6981 40.4059 92.7865 40.8651C92.8801 41.4234 92.929 41.9883 92.9329 42.5544C92.9364 43.1112 92.9999 43.6661 93.1224 44.2093C93.2351 44.6461 93.4363 45.0551 93.7138 45.411C93.9033 45.6491 94.141 45.8446 94.4114 45.9846C94.6094 46.0793 94.73 46.1051 94.7271 46.1194Z" fill="white"/>
<path d="M95.5178 44.0815C95.361 43.7786 95.223 43.4663 95.1044 43.1465L94.1428 40.8922C93.7581 40.0116 93.4021 39.2172 93.1294 38.6522C92.8567 38.0872 92.6672 37.7458 92.6844 37.7344C92.7511 37.7989 92.8073 37.8734 92.8509 37.9552C92.9457 38.1044 93.0749 38.3252 93.2241 38.6034C93.5112 39.1598 93.8959 39.9485 94.2806 40.8319C94.6652 41.7153 94.9839 42.5241 95.2021 43.1264C95.3111 43.4132 95.3944 43.6627 95.4489 43.832C95.4826 43.9118 95.5058 43.9957 95.5178 44.0815Z" fill="white"/>
<path d="M72.4683 50.2461L90.9787 50.3981C91.5787 50.3981 92.1528 50.6849 92.2418 51.2786L94.2656 64.7587H103.799C103.947 64.7587 104.089 64.8173 104.193 64.9217C104.298 65.026 104.356 65.1676 104.356 65.3151C104.356 65.4627 104.298 65.6042 104.193 65.7086C104.089 65.8129 103.947 65.8715 103.799 65.8715H73.3611L71.2798 51.6457C71.253 51.4737 71.2636 51.2979 71.3109 51.1303C71.3581 50.9627 71.441 50.8072 71.5537 50.6744C71.6665 50.5416 71.8065 50.4346 71.9643 50.3607C72.1221 50.2868 72.294 50.2477 72.4683 50.2461Z" fill="#E0E0E0"/>
<path d="M72.4614 50.247C72.3649 50.243 72.2682 50.2526 72.1744 50.2756C71.8906 50.3422 71.6401 50.508 71.4682 50.7431C71.3413 50.9167 71.2621 51.1204 71.2385 51.334C71.2343 51.5891 71.2574 51.8438 71.3074 52.094L71.5744 53.9726C71.982 56.7977 72.5677 60.8561 73.2968 65.8781V65.9269H73.3485L102.888 65.9441H103.683C103.829 65.9578 103.975 65.9299 104.105 65.8638C104.203 65.809 104.285 65.7291 104.342 65.6323C104.399 65.5355 104.429 65.4253 104.429 65.3131C104.429 65.2009 104.399 65.0907 104.342 64.9939C104.285 64.8971 104.203 64.8172 104.105 64.7625C103.977 64.698 103.833 64.6702 103.689 64.6821H94.2789L94.3507 64.7452C93.6215 59.9182 92.9411 55.4153 92.3412 51.3741C92.3229 51.1045 92.2004 50.8525 91.9995 50.6714C91.7977 50.5022 91.5517 50.3937 91.2905 50.3588C91.0425 50.3347 90.7932 50.326 90.5441 50.333H89.8178L87.0303 50.3129L82.0784 50.2842L75.0279 50.247H72.4614C72.4614 50.247 72.516 50.247 72.6279 50.247H73.1131L74.9992 50.2728L82.0496 50.3502L87.0016 50.399L89.7891 50.4277H90.5154C90.7587 50.4218 91.0022 50.4304 91.2445 50.4535C91.4827 50.486 91.7067 50.5855 91.8905 50.7403C92.0642 50.9068 92.167 51.1338 92.1775 51.3741C92.7833 55.4124 93.455 59.9182 94.187 64.7452V64.8083H103.66C103.779 64.7958 103.898 64.8166 104.005 64.8686C104.105 64.9249 104.182 65.0149 104.222 65.1225C104.262 65.2302 104.262 65.3486 104.223 65.4565C104.184 65.5637 104.107 65.6533 104.008 65.7089C103.9 65.7632 103.778 65.7851 103.658 65.772H102.891L73.3514 65.7892L73.4059 65.838C72.6653 60.8331 72.0596 56.7633 71.6404 53.9382C71.5342 53.2355 71.4395 52.6074 71.3534 52.0653C71.2993 51.8186 71.2743 51.5664 71.2787 51.3139C71.2976 51.1073 71.3709 50.9094 71.4911 50.7403C71.656 50.5064 71.8995 50.3395 72.1772 50.2699C72.2716 50.2576 72.3664 50.25 72.4614 50.247Z" fill="#263238"/>
<path d="M81.6947 59.0479C82.3352 59.0479 82.8545 58.5291 82.8545 57.8892C82.8545 57.2492 82.3352 56.7305 81.6947 56.7305C81.0542 56.7305 80.5349 57.2492 80.5349 57.8892C80.5349 58.5291 81.0542 59.0479 81.6947 59.0479Z" fill="white"/>
<path d="M93.5227 65.7467C93.494 65.7467 92.9055 62.3193 92.2051 58.0831C91.5046 53.8469 90.9592 50.4052 90.985 50.4023C91.0108 50.3995 91.5994 53.8297 92.2998 58.0659C93.0003 62.3021 93.5486 65.7438 93.5227 65.7467Z" fill="#263238"/>
<path d="M0.980469 124.93C0.980469 124.89 28.7489 124.855 62.988 124.855C97.227 124.855 124.995 124.878 124.995 124.93C124.995 124.982 97.2327 125.005 62.988 125.005C28.7432 125.005 0.980469 124.959 0.980469 124.93Z" fill="#263238"/>
</svg>
