<svg width="125" height="125" viewBox="0 0 125 125" fill="none" xmlns="http://www.w3.org/2000/svg">
<path d="M36.6215 9.9319L34.1172 9.94531L34.1846 22.2788L36.689 22.2654L36.6215 9.9319Z" fill="#E0E0E0"/>
<path d="M18.9103 9.96527L12.4258 10L12.463 16.8086L18.9475 16.7739L18.9103 9.96527Z" fill="#EBEBEB"/>
<path d="M25.3673 9.93012L18.8828 9.96484L18.92 16.7735L25.4045 16.7387L25.3673 9.93012Z" fill="#F5F5F5"/>
<path d="M12.4337 11.8842C16.7409 11.9202 21.0621 11.8842 25.3694 11.8261C25.3879 11.8261 25.4057 11.8188 25.4188 11.8059C25.4319 11.7929 25.4392 11.7753 25.4392 11.7569C25.4392 11.7386 25.4319 11.721 25.4188 11.708C25.4057 11.6951 25.3879 11.6878 25.3694 11.6878C21.0621 11.6656 16.7409 11.6878 12.4337 11.768C12.4181 11.768 12.4032 11.7741 12.3922 11.785C12.3812 11.7959 12.375 11.8107 12.375 11.8261C12.375 11.8415 12.3812 11.8563 12.3922 11.8672C12.4032 11.8781 12.4181 11.8842 12.4337 11.8842Z" fill="#E0E0E0"/>
<path d="M20.1639 16.6596L8.38281 16.7227L8.41313 22.2697L20.1942 22.2066L20.1639 16.6596Z" fill="#EBEBEB"/>
<path d="M31.8866 16.5971L20.1055 16.6602L20.1358 22.2072L31.9169 22.1441L31.8866 16.5971Z" fill="#F5F5F5"/>
<path d="M8.38682 18.2654C16.2131 18.354 24.0673 18.2655 31.8907 18.1493C31.9065 18.1461 31.9207 18.1376 31.9309 18.1252C31.9411 18.1129 31.9467 18.0974 31.9467 18.0815C31.9467 18.0655 31.9411 18.05 31.9309 18.0377C31.9207 18.0253 31.9065 18.0169 31.8907 18.0137C24.0645 17.9722 16.2103 17.9777 8.38682 18.1493C8.37125 18.1493 8.35632 18.1554 8.34532 18.1663C8.33431 18.1772 8.32812 18.1919 8.32812 18.2074C8.32812 18.2228 8.33431 18.2375 8.34532 18.2484C8.35632 18.2593 8.37125 18.2654 8.38682 18.2654Z" fill="#E0E0E0"/>
<path d="M49.6253 22.2734H3.98438V24.2599H49.6253V22.2734Z" fill="#E0E0E0"/>
<path d="M13.3141 23.2266H11.4609V30.0104H13.3141V23.2266Z" fill="#E0E0E0"/>
<path d="M40.9664 23.2266H39.1133V30.0104H40.9664V23.2266Z" fill="#E0E0E0"/>
<path d="M39.0669 5.33034L36.5625 5.34375L36.6552 22.3058L39.1596 22.2924L39.0669 5.33034Z" fill="#EBEBEB"/>
<path d="M42.9766 8.49088L39.0859 8.51172L39.1611 22.2562L43.0518 22.2354L42.9766 8.49088Z" fill="#F5F5F5"/>
<path d="M42.9483 11.1411C42.2986 11.2111 41.6447 11.2342 40.9917 11.2103C40.3387 11.2341 39.6848 11.211 39.0352 11.1411C39.685 11.0748 40.3388 11.0526 40.9917 11.0747C41.6447 11.0525 42.2984 11.0747 42.9483 11.1411Z" fill="#E0E0E0"/>
<path d="M42.9483 10.5562C42.2984 10.6226 41.6447 10.6448 40.9917 10.6226C40.3388 10.6446 39.685 10.6225 39.0352 10.5562C39.6849 10.4882 40.3388 10.466 40.9917 10.4898C41.6447 10.4659 42.2985 10.4881 42.9483 10.5562Z" fill="#E0E0E0"/>
<path d="M42.9483 20.1685C42.2984 20.2349 41.6447 20.2571 40.9917 20.2349C40.3388 20.257 39.685 20.2348 39.0352 20.1685C39.685 20.1022 40.3388 20.08 40.9917 20.1021C41.6447 20.0799 42.2984 20.1021 42.9483 20.1685Z" fill="#E0E0E0"/>
<path d="M42.9483 19.5904C42.2985 19.6584 41.6447 19.6806 40.9917 19.6568C40.3388 19.6805 39.6849 19.6583 39.0352 19.5904C39.685 19.524 40.3388 19.5019 40.9917 19.524C41.6447 19.5018 42.2984 19.5239 42.9483 19.5904Z" fill="#E0E0E0"/>
<path d="M41.0671 18.3351C41.0279 18.3351 41 16.9518 41 15.2365C41 13.5212 41.0279 12.1406 41.0671 12.1406C41.1062 12.1406 41.1342 13.5239 41.1342 15.2365C41.1342 16.9491 41.1034 18.3351 41.0671 18.3351Z" fill="#E0E0E0"/>
<path d="M47.2228 11.8711H42.9883V22.246H47.2228V11.8711Z" fill="#EBEBEB"/>
<path d="M38.493 8.23382C38.4913 8.37475 38.4476 8.51203 38.3672 8.62838C38.2868 8.74472 38.1735 8.83491 38.0414 8.88759C37.9093 8.94026 37.7645 8.95305 37.6251 8.92435C37.4857 8.89566 37.358 8.82675 37.2581 8.72633C37.1582 8.62591 37.0905 8.49845 37.0637 8.36004C37.0369 8.22163 37.052 8.07845 37.1073 7.94856C37.1625 7.81866 37.2554 7.70786 37.3741 7.63012C37.4929 7.55238 37.6323 7.51119 37.7747 7.51172C37.8699 7.51171 37.9643 7.53046 38.0522 7.56689C38.1401 7.60331 38.2197 7.65667 38.2866 7.72388C38.3534 7.79108 38.4061 7.87077 38.4416 7.95832C38.477 8.04587 38.4945 8.13952 38.493 8.23382Z" fill="#E0E0E0"/>
<path d="M37.9952 10.1914H37.5508V20.2814H37.9952V10.1914Z" fill="#E0E0E0"/>
<path d="M8.86328 92.6738L8.86328 124.59H68.3818V92.6738H8.86328Z" fill="#EBEBEB"/>
<path d="M68.3779 92.6758C68.3779 92.6758 68.3304 92.7173 68.2298 92.792L67.7826 93.1212L66.0552 94.3883L59.6936 98.9837L38.6634 114.092L38.6187 114.123L38.5767 114.092C30.3648 108.188 22.9242 102.846 17.5465 98.9727C14.8604 97.036 12.6886 95.4646 11.1821 94.3773L9.45752 93.1212C9.26187 92.9801 9.11373 92.8695 9.01031 92.792L8.85938 92.6758C8.85938 92.6758 8.91528 92.709 9.01869 92.7809L9.47429 93.0991L11.2156 94.333L17.6052 98.8897L38.6634 113.976H38.5795L59.6321 98.8924L66.0273 94.333L67.7686 93.0991L68.2242 92.7809L68.3779 92.6758Z" fill="#E0E0E0"/>
<path d="M101.701 103.62C100.708 103.008 99.5866 102.629 98.4228 102.513C97.8889 102.458 97.3047 102.474 96.8743 102.79C96.8247 102.817 96.7836 102.857 96.7556 102.906C96.7275 102.955 96.7134 103.01 96.715 103.066C96.7389 103.147 96.7929 103.215 96.8659 103.257C97.5618 103.748 98.3802 104.042 99.2326 104.106C100.085 104.17 100.939 104.002 101.701 103.62Z" fill="#E0E0E0"/>
<path d="M101.623 103.529C100.865 102.977 100.157 102.361 99.5075 101.687C98.8526 101.007 98.3915 100.168 98.1714 99.2548C98.1281 99.1199 98.1149 98.9773 98.1327 98.8368C98.1506 98.6964 98.1991 98.5615 98.2748 98.4414C99.9519 99.7473 101.291 101.435 101.629 103.529" fill="#E0E0E0"/>
<path d="M101.686 103.607C101.53 102.695 101.543 101.762 101.725 100.855C101.915 99.9416 102.444 99.1322 103.207 98.5859C103.486 99.2582 103.372 100.036 103.168 100.741C102.847 101.829 102.352 102.858 101.7 103.79" fill="#E0E0E0"/>
<path d="M103.341 106.559C102.347 106.716 101.428 107.177 100.711 107.876C99.9573 108.554 99.4325 109.446 99.207 110.429C100.194 110.368 101.029 109.682 101.636 108.91C102.242 108.138 102.662 107.295 103.313 106.572" fill="#E0E0E0"/>
<path d="M103.706 107.008C103.31 106.014 103.171 104.939 103.301 103.879C103.432 102.819 103.827 101.808 104.452 100.938C105.011 102.952 104.816 105.229 103.706 107.008Z" fill="#E0E0E0"/>
<path d="M105.893 109.598C104.976 109.543 104.064 109.756 103.269 110.21C102.474 110.664 101.831 111.339 101.421 112.152C101.365 112.263 101.314 112.401 101.39 112.501C101.429 112.537 101.476 112.564 101.527 112.579C101.579 112.594 101.633 112.597 101.686 112.586C102.569 112.528 103.363 112.003 104 111.405C104.638 110.807 105.208 110.113 105.923 109.596" fill="#E0E0E0"/>
<path d="M105.813 109.448C105.343 107.948 105.314 106.347 105.729 104.831C105.894 104.236 106.168 103.611 106.724 103.331C106.747 103.317 106.772 103.308 106.799 103.303C106.825 103.299 106.852 103.3 106.878 103.306C106.922 103.331 106.956 103.37 106.973 103.417C107.16 103.832 107.24 104.286 107.208 104.739C107.176 105.192 107.106 105.64 106.998 106.081C106.822 106.911 106.719 107.783 106.277 108.488C106.173 108.659 106.08 108.835 105.998 109.017C105.914 109.196 105.911 109.26 105.833 109.404" fill="#E0E0E0"/>
<path d="M111.606 110.301C111.413 109.458 111.407 108.584 111.589 107.739C111.771 106.894 112.137 106.098 112.66 105.407C112.736 105.31 112.836 105.205 112.959 105.216C113.149 105.235 113.2 105.492 113.191 105.672C113.112 107.332 112.563 108.936 111.606 110.301Z" fill="#E0E0E0"/>
<path d="M112.125 110.653C113.137 110.889 114.188 110.905 115.207 110.7C116.226 110.494 117.187 110.073 118.025 109.464C117.038 108.973 115.909 108.836 114.831 109.076C113.769 109.268 112.81 109.827 112.125 110.653Z" fill="#E0E0E0"/>
<path d="M112.562 109.577C113.148 108.684 113.939 107.942 114.87 107.409C115.802 106.876 116.847 106.569 117.921 106.512C117.776 106.932 117.545 107.319 117.244 107.649C116.943 107.979 116.577 108.244 116.168 108.429C115.35 108.794 114.485 109.044 113.597 109.173C113.256 109.24 112.786 109.312 112.562 109.577Z" fill="#E0E0E0"/>
<path d="M111.719 104.367C112.054 103.358 112.283 102.317 112.404 101.262C112.521 100.199 112.303 99.1263 111.778 98.1914C111.25 99.1532 110.966 100.227 110.95 101.322C110.934 102.416 111.186 103.498 111.686 104.474" fill="#E0E0E0"/>
<path d="M115.223 102.616C116.436 100.436 118.909 98.6927 121.411 98.4492C120.447 100.829 117.814 102.668 115.223 102.616Z" fill="#E0E0E0"/>
<path d="M114.441 103.046C116.25 103.323 117.796 104.46 119.473 105.155C119.827 105.323 120.218 105.397 120.61 105.37C120.792 105.368 120.969 105.31 121.118 105.205C121.266 105.1 121.378 104.953 121.439 104.783C121.5 104.613 121.506 104.428 121.458 104.255C121.41 104.081 121.309 103.925 121.169 103.81C120.926 103.591 120.641 103.421 120.331 103.312C118.489 102.554 116.515 102.535 114.578 102.994" fill="#E0E0E0"/>
<path d="M113.398 104.299C113.807 104.415 113.957 104.625 114.271 104.899C115.377 105.826 116.685 106.488 118.091 106.836C118.237 106.872 118.43 106.885 118.502 106.755C118.575 106.625 118.485 106.504 118.402 106.401C117.789 105.688 116.992 105.153 116.096 104.852C115.215 104.525 114.449 104.135 113.398 104.218" fill="#E0E0E0"/>
<path d="M112.219 96.7221C112.96 97.3983 113.836 97.9135 114.791 98.2347C115.745 98.5558 116.757 98.6758 117.761 98.5868C117.853 98.5883 117.943 98.5569 118.013 98.4982C118.153 98.3488 117.985 98.1164 117.823 97.9892C116.193 96.7331 114.22 96.2102 112.219 96.7221Z" fill="#E0E0E0"/>
<path d="M113.616 96.2167C114.597 95.5029 115.735 95.0286 116.936 94.8325C118.138 94.6363 119.37 94.7239 120.531 95.0879C119.625 95.9174 118.465 96.422 117.235 96.521C116.015 96.6316 114.785 96.5286 113.602 96.2167" fill="#E0E0E0"/>
<path d="M113.058 92.7233C112.898 91.1131 113.002 89.8432 112.89 88.2275C112.89 88.0975 112.854 87.9508 112.731 87.8955C112.56 87.8291 112.417 88.0366 112.362 88.2081C112.125 88.9583 112.065 89.7521 112.186 90.5289C112.306 91.3056 112.604 92.0448 113.058 92.6901" fill="#E0E0E0"/>
<path d="M112.945 92.9079C114.007 92.2282 114.922 91.3471 115.637 90.3155C116.171 89.5934 116.618 88.7302 116.498 87.8477C116.123 87.8573 115.756 87.9477 115.42 88.1125C115.085 88.2774 114.789 88.5127 114.555 88.8021C114.091 89.3851 113.753 90.0567 113.563 90.7748C113.348 91.483 113.197 92.2107 112.945 92.9079Z" fill="#E0E0E0"/>
<path d="M115.595 92.1724C118.019 91.2805 120.264 89.969 122.225 88.2991C121.431 87.9837 120.525 88.1719 119.734 88.4873C117.934 89.168 116.448 90.4793 115.559 92.1724" fill="#E0E0E0"/>
<path d="M113.688 93.79C114.908 93.9629 116.147 93.9685 117.369 93.8066C118.555 93.5641 119.709 93.1853 120.807 92.6778C120.904 92.6502 120.987 92.5869 121.039 92.5008C121.055 92.4495 121.055 92.3948 121.04 92.3432C121.025 92.2916 120.996 92.2454 120.955 92.2103C120.873 92.1456 120.777 92.0994 120.675 92.0747C119.444 91.78 118.151 91.8561 116.963 92.2933C115.826 92.6779 114.733 93.1796 113.701 93.79" fill="#E0E0E0"/>
<path d="M106.699 96.7716C106.305 95.938 106.096 95.0308 106.086 94.1108C106.076 93.1908 106.265 92.2793 106.64 91.4375C107.149 92.2039 107.199 93.1777 107.118 94.0907C107.037 95.0037 106.743 95.9388 106.727 96.8574" fill="#E0E0E0"/>
<path d="M103.36 95.1062C102.314 95.0916 101.276 95.2935 100.313 95.699C99.3507 96.1044 98.4843 96.7044 97.7695 97.4606C98.8274 97.5898 99.8999 97.3968 100.844 96.9073C101.775 96.4176 102.654 95.8355 103.466 95.1698" fill="#E0E0E0"/>
<path d="M101.117 94.3663C100.097 94.2861 99.1129 94.1588 98.1346 94.4576C97.639 94.5944 97.1792 94.8356 96.7865 95.1646C96.3938 95.4936 96.0776 95.9027 95.8594 96.3639C96.8213 96.4409 97.7865 96.2613 98.6545 95.8437C99.5169 95.4242 100.34 94.9298 101.114 94.3663" fill="#E0E0E0"/>
<path d="M104.442 94.3966C103.523 93.8018 102.581 93.1959 101.513 92.9497C100.445 92.7034 99.2072 92.886 98.4609 93.6828C99.3274 94.1864 100.376 94.2362 101.379 94.2362C102.382 94.2362 103.615 94.2223 104.557 94.5543" fill="#E0E0E0"/>
<path d="M104.45 94.451C102.879 92.9266 102.286 90.1876 102.915 88.1016C104.154 89.9784 104.696 92.2225 104.45 94.451Z" fill="#E0E0E0"/>
<path d="M108.758 90.1281C109.054 89.4475 109.261 88.7447 109.526 88.042C109.767 87.3347 110.139 86.678 110.622 86.1054C111.113 85.5342 111.81 85.1766 112.565 85.1094C112.324 86.1619 111.864 87.1529 111.213 88.0191C110.563 88.8852 109.737 89.6073 108.789 90.1391" fill="#E0E0E0"/>
<path d="M107.978 91.0277C107.488 90.361 106.924 89.4535 106.259 88.9555C105.937 88.6925 105.561 88.5021 105.158 88.3974C104.754 88.2928 104.332 88.2765 103.922 88.3496C104.342 89.0769 104.927 89.6975 105.631 90.1623C106.334 90.6271 107.138 90.9234 107.978 91.0277Z" fill="#E0E0E0"/>
<path d="M108.132 90.1811C107.781 89.3823 107.521 88.5471 107.358 87.6911C107.197 86.8302 107.336 85.9408 107.752 85.168C108.613 86.7782 108.89 88.5101 108.177 90.1894" fill="#E0E0E0"/>
<path d="M108.77 85.1847C109.256 83.5884 110.726 82.4181 112.328 81.8647C112.526 81.7845 112.74 81.7522 112.954 81.7707C113.06 81.7827 113.16 81.8253 113.241 81.8932C113.323 81.9611 113.382 82.0513 113.412 82.1525C113.471 82.4291 113.244 82.6671 113.032 82.8469C111.785 83.901 110.335 84.6935 108.77 85.1764" fill="#E0E0E0"/>
<path d="M108.795 83.8696C108.81 82.839 108.966 81.8153 109.259 80.8263C109.597 79.8496 110.251 78.9339 111.198 78.5078C111.361 79.5481 110.897 80.5828 110.338 81.4764C109.779 82.3701 109.105 83.2166 108.77 84.2154" fill="#E0E0E0"/>
<path d="M108.755 84.5797C108.35 83.4177 108.311 81.9375 107.607 80.9249C107.115 80.2139 106.327 79.7325 105.902 78.9883C105.643 79.7107 105.678 80.5042 106 81.2016C106.321 81.8875 106.762 82.5121 107.302 83.047C107.825 83.6003 108.269 84.0125 108.755 84.5935" fill="#E0E0E0"/>
<path d="M108.768 118.866C108.735 118.866 108.71 111.1 108.707 101.525C108.704 91.9496 108.729 84.1836 108.76 84.1836C108.79 84.1836 108.818 91.9468 108.818 101.525C108.818 111.103 108.79 118.866 108.768 118.866Z" fill="#E0E0E0"/>
<path d="M115.62 95.6055C115.526 95.6521 115.428 95.6892 115.327 95.7161L114.513 95.9928C113.828 96.2224 112.889 96.5461 111.869 96.9694C110.849 97.3927 109.913 97.7469 109.354 98.2144C109.137 98.3929 108.965 98.6182 108.85 98.8729C108.772 99.0555 108.758 99.1661 108.75 99.1634C108.741 99.1606 108.75 99.1357 108.75 99.0831C108.761 99.0057 108.781 98.9297 108.809 98.8563C108.91 98.5853 109.078 98.3437 109.298 98.1535C109.626 97.8799 109.992 97.6544 110.385 97.484C110.821 97.2848 111.302 97.0746 111.816 96.8671C112.839 96.4521 113.787 96.1284 114.477 95.9153C114.824 95.8102 115.106 95.73 115.302 95.6774C115.405 95.6425 115.512 95.6184 115.62 95.6055Z" fill="#E0E0E0"/>
<path d="M117.87 90.1406C117.847 90.1734 117.82 90.2032 117.789 90.2292L117.535 90.4616L116.595 91.3081L113.468 94.0748C112.246 95.151 111.192 96.1802 110.46 96.9521C110.094 97.3394 109.806 97.6604 109.622 97.8845L109.392 98.139C109.369 98.1713 109.34 98.2002 109.309 98.2248C109.327 98.1889 109.349 98.1554 109.376 98.1252C109.423 98.0643 109.493 97.9702 109.588 97.8485C109.773 97.6161 110.055 97.2952 110.413 96.894C111.357 95.8736 112.356 94.9031 113.403 93.9863C114.63 92.9128 115.743 91.95 116.553 91.2528L117.518 90.4228L117.783 90.2043C117.81 90.18 117.839 90.1587 117.87 90.1406Z" fill="#E0E0E0"/>
<path d="M112.144 95.1541C112.11 95.1402 112.364 94.5565 112.619 93.8178C112.873 93.0791 112.996 92.4593 113.03 92.4649C113.003 92.9389 112.902 93.4058 112.728 93.8482C112.619 94.1667 112.492 94.4789 112.348 94.7833C112.297 94.9157 112.229 95.0405 112.144 95.1541Z" fill="#E0E0E0"/>
<path d="M108.774 99.8564C108.704 99.7912 108.641 99.7189 108.587 99.6406L108.103 99.0291C107.698 98.5118 107.139 97.7952 106.513 97.015C105.887 96.2348 105.308 95.5293 104.889 95.0203L104.397 94.4171C104.333 94.3461 104.276 94.2692 104.227 94.1875C104.302 94.2465 104.371 94.3143 104.431 94.3895C104.556 94.525 104.735 94.7215 104.95 94.9705C105.387 95.4657 105.973 96.1601 106.602 96.9431C107.231 97.726 107.779 98.4509 108.168 98.9821C108.363 99.2588 108.517 99.4635 108.62 99.6157C108.679 99.6909 108.731 99.7715 108.774 99.8564Z" fill="#E0E0E0"/>
<path d="M107.273 97.9426C106.971 97.6095 106.756 97.2089 106.644 96.7751C106.527 96.3947 106.478 95.9965 106.502 95.5993H106.558C106.535 95.6906 106.519 95.7376 106.51 95.7376C106.502 95.7376 106.51 95.685 106.51 95.5938H106.558C106.583 95.9816 106.651 96.3656 106.759 96.7391C106.901 97.1519 107.073 97.5541 107.273 97.9426Z" fill="#E0E0E0"/>
<path d="M105.334 95.5283C105.2 95.4242 105.052 95.3386 104.895 95.2738C104.499 95.1588 104.083 95.1267 103.673 95.1797C103.258 95.2094 102.847 95.2751 102.443 95.3761C102.278 95.4275 102.109 95.4673 101.938 95.4951C102.089 95.4057 102.253 95.3395 102.424 95.2987C102.827 95.1746 103.244 95.0967 103.665 95.0663C104.09 95.0098 104.523 95.0563 104.925 95.2018C105.097 95.2588 105.241 95.3747 105.334 95.5283Z" fill="#E0E0E0"/>
<path d="M104.878 94.9328C104.878 94.9494 104.624 94.8304 104.207 94.6893C103.116 94.3183 101.947 94.2307 100.811 94.4348C100.378 94.5095 100.115 94.5925 100.11 94.5731C100.104 94.5538 100.168 94.5399 100.286 94.4984C100.452 94.4399 100.622 94.3928 100.795 94.3573C101.941 94.1074 103.137 94.1969 104.232 94.6146C104.397 94.6779 104.557 94.75 104.713 94.8304C104.817 94.8996 104.878 94.9328 104.878 94.9328Z" fill="#E0E0E0"/>
<path d="M108.767 92.4721C108.401 91.3569 108.11 90.2192 107.895 89.0664C108.092 89.6195 108.255 90.1841 108.384 90.7568C108.548 91.32 108.676 91.893 108.767 92.4721Z" fill="#E0E0E0"/>
<path d="M108.796 92.4678C108.639 92.1181 108.457 91.7798 108.251 91.4552C108.021 91.1495 107.752 90.8751 107.449 90.6391C107.449 90.6252 107.583 90.6723 107.759 90.7968C107.986 90.9613 108.184 91.1624 108.344 91.3916C108.587 91.7048 108.744 92.0759 108.796 92.4678Z" fill="#E0E0E0"/>
<path d="M108.77 114.724C108.756 114.724 108.734 114.536 108.645 114.207C108.515 113.743 108.34 113.292 108.122 112.862C107.361 111.458 106.421 110.157 105.327 108.989C104.706 108.289 104.103 107.625 103.591 106.991C103.133 106.433 102.718 105.841 102.35 105.221C102.104 104.801 101.895 104.361 101.724 103.906C101.668 103.743 101.623 103.63 101.601 103.53C101.584 103.487 101.573 103.441 101.57 103.395C101.57 103.395 101.637 103.574 101.766 103.89C101.95 104.335 102.169 104.766 102.42 105.179C102.793 105.791 103.212 106.374 103.672 106.925C104.187 107.553 104.79 108.211 105.411 108.917C106.51 110.092 107.442 111.41 108.181 112.834C108.395 113.271 108.561 113.729 108.675 114.201C108.705 114.33 108.727 114.46 108.743 114.591C108.755 114.635 108.764 114.679 108.77 114.724Z" fill="#E0E0E0"/>
<path d="M114.962 107.798C114.857 107.864 114.749 107.924 114.638 107.978C114.345 108.142 114.065 108.327 113.799 108.531C113.405 108.835 113.036 109.169 112.695 109.53C112.306 109.937 111.907 110.407 111.499 110.913C110.682 111.929 109.919 112.825 109.461 113.541C109.229 113.896 109.061 114.194 108.95 114.405C108.897 114.516 108.838 114.624 108.773 114.728C108.773 114.728 108.773 114.695 108.801 114.637C108.829 114.579 108.86 114.493 108.91 114.385C109.054 114.08 109.216 113.784 109.394 113.497C110.015 112.576 110.687 111.69 111.409 110.844C111.817 110.338 112.223 109.865 112.619 109.461C112.968 109.1 113.347 108.769 113.751 108.47C114.026 108.271 114.317 108.095 114.621 107.945C114.73 107.892 114.816 107.859 114.875 107.834C114.934 107.809 114.959 107.792 114.962 107.798Z" fill="#E0E0E0"/>
<path d="M115.083 110.044C114.857 110.093 114.628 110.125 114.398 110.141C113.846 110.198 113.301 110.304 112.769 110.459C112.244 110.629 111.751 110.886 111.312 111.217C110.977 111.472 110.818 111.685 110.804 111.674C110.79 111.663 110.829 111.61 110.904 111.516C111.011 111.384 111.131 111.262 111.262 111.153C111.697 110.796 112.197 110.524 112.735 110.351C113.274 110.197 113.829 110.104 114.39 110.074C114.619 110.042 114.851 110.032 115.083 110.044Z" fill="#E0E0E0"/>
<path d="M110.999 111.428C110.965 111.405 111.278 110.938 111.513 110.321C111.748 109.704 111.792 109.131 111.832 109.137C111.852 109.258 111.852 109.381 111.832 109.502C111.797 109.794 111.73 110.082 111.63 110.36C111.526 110.635 111.393 110.9 111.233 111.148C111.171 111.253 111.092 111.348 110.999 111.428Z" fill="#E0E0E0"/>
<path d="M116.971 101.766C116.937 101.791 116.9 101.81 116.86 101.824L116.538 101.97C116.396 102.028 116.225 102.106 116.032 102.206C115.839 102.305 115.613 102.407 115.375 102.549L115.001 102.759C114.872 102.831 114.744 102.919 114.607 103.005C114.327 103.171 114.048 103.373 113.768 103.583C113.14 104.051 112.549 104.566 111.999 105.122C111.457 105.686 110.957 106.289 110.504 106.925C110.302 107.224 110.107 107.506 109.945 107.783C109.864 107.921 109.78 108.06 109.707 108.184C109.634 108.309 109.573 108.439 109.509 108.561C109.374 108.798 109.279 109.025 109.187 109.222C109.095 109.418 109.019 109.587 108.964 109.728C108.908 109.869 108.866 109.969 108.829 110.055C108.815 110.093 108.796 110.13 108.773 110.165C108.78 110.124 108.791 110.084 108.807 110.046L108.924 109.714C108.983 109.538 109.051 109.365 109.128 109.197C109.218 108.998 109.307 108.765 109.436 108.525C109.5 108.403 109.564 108.276 109.632 108.143C109.699 108.01 109.782 107.866 109.864 107.736C110.017 107.459 110.213 107.169 110.423 106.867C111.315 105.574 112.423 104.44 113.698 103.514C113.997 103.307 114.277 103.102 114.556 102.939C114.696 102.856 114.836 102.77 114.959 102.698L115.339 102.49C115.577 102.355 115.809 102.258 116.004 102.164C116.2 102.07 116.376 101.998 116.521 101.943L116.851 101.818C116.89 101.797 116.93 101.779 116.971 101.766Z" fill="#E0E0E0"/>
<path d="M112.066 105.018C112.112 104.858 112.211 104.718 112.346 104.619C112.648 104.36 113.033 104.214 113.433 104.207C113.825 104.205 114.214 104.28 114.576 104.428C114.73 104.476 114.875 104.546 115.007 104.636C114.85 104.605 114.697 104.561 114.548 104.503C114.189 104.381 113.811 104.318 113.43 104.318C113.055 104.326 112.691 104.453 112.393 104.68C112.274 104.783 112.165 104.896 112.066 105.018Z" fill="#E0E0E0"/>
<path d="M111.332 105.765C111.663 105.141 111.749 104.417 111.572 103.734C111.638 103.82 111.682 103.919 111.701 104.025C111.832 104.525 111.77 105.056 111.525 105.513C111.43 105.685 111.343 105.773 111.332 105.765Z" fill="#E0E0E0"/>
<path d="M103.352 115.836C103.522 118.805 104.425 121.82 105.814 124.872H111.868C113.193 121.851 114.034 118.838 114.183 115.836H103.352Z" fill="#E0E0E0"/>
<path d="M113.192 120.64C113.192 120.671 111.202 120.695 108.748 120.695C106.294 120.695 104.32 120.668 104.32 120.64C104.32 120.612 106.308 120.582 108.762 120.582C111.216 120.582 113.192 120.607 113.192 120.64Z" fill="#FAFAFA"/>
<path d="M113.055 121.712C113.055 121.742 111.188 121.767 108.887 121.767C106.587 121.767 104.723 121.742 104.723 121.712C104.723 121.681 106.587 121.656 108.887 121.656C111.188 121.656 113.055 121.681 113.055 121.712Z" fill="#FAFAFA"/>
<path d="M105.907 117.785C105.982 118.706 105.982 119.631 105.907 120.552C105.833 119.631 105.833 118.706 105.907 117.785Z" fill="#FAFAFA"/>
<path d="M109.141 117.785C109.215 118.735 109.215 119.69 109.141 120.64C109.067 119.69 109.067 118.735 109.141 117.785Z" fill="#FAFAFA"/>
<path d="M112.183 117.758C112.257 118.726 112.257 119.698 112.183 120.666C112.106 119.698 112.106 118.726 112.183 117.758Z" fill="#FAFAFA"/>
<path d="M113.985 117.786C113.985 117.816 111.651 117.844 108.773 117.844C105.894 117.844 103.562 117.816 103.562 117.786C103.562 117.755 105.894 117.73 108.773 117.73C111.651 117.73 113.985 117.755 113.985 117.786Z" fill="#FAFAFA"/>
<path d="M124.993 124.814C124.993 124.853 97.0783 124.886 62.6625 124.886C28.2466 124.886 0.332031 124.858 0.332031 124.814C0.332031 124.77 28.241 124.742 62.6764 124.742C97.1119 124.742 124.993 124.781 124.993 124.814Z" fill="#263238"/>
<path d="M90.3411 13.8789H22.5547V106.462H90.3411V13.8789Z" fill="white"/>
<path d="M90.3356 106.459C90.3356 105.878 90.3105 68.6334 90.2713 13.876L90.3356 13.9396H22.5576L22.6303 13.8677C22.6303 48.4812 22.6303 80.5189 22.6303 106.451L22.5688 106.39L90.3552 106.451L22.5688 106.509H22.5101V106.451C22.5101 80.5189 22.5101 48.4812 22.4961 13.8677V13.793H22.5772H90.3552H90.4223V13.8732C90.3692 68.6334 90.3356 105.881 90.3356 106.459Z" fill="#263238"/>
<path d="M89.9385 77.6501C89.9385 77.6916 74.9456 77.722 56.4533 77.722C37.961 77.722 22.9766 77.6916 22.9766 77.6501C22.9766 77.6086 37.9694 77.5781 56.4673 77.5781C74.9652 77.5781 89.9385 77.6113 89.9385 77.6501Z" fill="#263238"/>
<path d="M44.1451 28.7822C44.8905 25.6265 42.9103 22.4701 39.7221 21.7323C36.534 20.9945 33.3452 22.9545 32.5997 26.1103C31.8543 29.266 33.8345 32.4224 37.0227 33.1602C40.2109 33.8981 43.3997 31.938 44.1451 28.7822Z" fill="#C7183A"/>
<path d="M38.1576 30.5012C37.5418 30.5168 36.9448 30.2899 36.4978 29.8703C36.0508 29.4507 35.7903 28.8726 35.7734 28.263V24.9375L38.1576 25.43L40.5419 24.9375V28.2575C40.5342 28.5598 40.4665 28.8577 40.3426 29.1341C40.2186 29.4104 40.0408 29.66 39.8194 29.8683C39.598 30.0767 39.3373 30.2398 39.0522 30.3484C38.767 30.457 38.4631 30.509 38.1576 30.5012Z" fill="white"/>
<path d="M63.5117 24.6211H49.4552C48.9644 24.6211 48.5664 25.015 48.5664 25.5009V25.5894C48.5664 26.0753 48.9644 26.4692 49.4552 26.4692H63.5117C64.0026 26.4692 64.4006 26.0753 64.4006 25.5894V25.5009C64.4006 25.015 64.0026 24.6211 63.5117 24.6211Z" fill="#C7183A"/>
<path d="M80.7218 48.6016H32.174C31.6831 48.6016 31.2852 48.9955 31.2852 49.4814V49.5699C31.2852 50.0558 31.6831 50.4497 32.174 50.4497H80.7218C81.2127 50.4497 81.6107 50.0558 81.6107 49.5699V49.4814C81.6107 48.9955 81.2127 48.6016 80.7218 48.6016Z" fill="#E0E0E0"/>
<path d="M80.7218 54.1484H32.174C31.6831 54.1484 31.2852 54.5423 31.2852 55.0282V55.1168C31.2852 55.6027 31.6831 55.9966 32.174 55.9966H80.7218C81.2127 55.9966 81.6107 55.6027 81.6107 55.1168V55.0282C81.6107 54.5423 81.2127 54.1484 80.7218 54.1484Z" fill="#E0E0E0"/>
<path d="M80.7218 74.2227H32.174C31.6831 74.2227 31.2852 74.6166 31.2852 75.1024V75.191C31.2852 75.6769 31.6831 76.0708 32.174 76.0708H80.7218C81.2127 76.0708 81.6107 75.6769 81.6107 75.191V75.1024C81.6107 74.6166 81.2127 74.2227 80.7218 74.2227Z" fill="#E0E0E0"/>
<path d="M80.7218 80.1211H32.174C31.6831 80.1211 31.2852 80.515 31.2852 81.0009V81.0894C31.2852 81.5753 31.6831 81.9692 32.174 81.9692H80.7218C81.2127 81.9692 81.6107 81.5753 81.6107 81.0894V81.0009C81.6107 80.515 81.2127 80.1211 80.7218 80.1211Z" fill="#E0E0E0"/>
<path d="M80.7218 86.0312H32.174C31.6831 86.0312 31.2852 86.4251 31.2852 86.911V86.9996C31.2852 87.4855 31.6831 87.8794 32.174 87.8794H80.7218C81.2127 87.8794 81.6107 87.4855 81.6107 86.9996V86.911C81.6107 86.4251 81.2127 86.0312 80.7218 86.0312Z" fill="#E0E0E0"/>
<path d="M80.8273 43.9453H32.2795C31.7886 43.9453 31.3906 44.3392 31.3906 44.8251V44.9136C31.3906 45.3995 31.7886 45.7934 32.2795 45.7934H80.8273C81.3182 45.7934 81.7162 45.3995 81.7162 44.9136V44.8251C81.7162 44.3392 81.3182 43.9453 80.8273 43.9453Z" fill="#E0E0E0"/>
<path d="M44.4744 38.3359H32.2795C31.7886 38.3359 31.3906 38.7298 31.3906 39.2157V39.3043C31.3906 39.7902 31.7886 40.1841 32.2795 40.1841H44.4744C44.9653 40.1841 45.3633 39.7902 45.3633 39.3043V39.2157C45.3633 38.7298 44.9653 38.3359 44.4744 38.3359Z" fill="#E0E0E0"/>
<path d="M77.7917 28.4375H49.2287C48.7378 28.4375 48.3398 28.8314 48.3398 29.3173V29.4058C48.3398 29.8917 48.7378 30.2856 49.2287 30.2856H77.7917C78.2826 30.2856 78.6805 29.8917 78.6805 29.4058V29.3173C78.6805 28.8314 78.2826 28.4375 77.7917 28.4375Z" fill="#E0E0E0"/>
<path d="M38.1563 66.319H35.5233L35.0202 67.5198H33.6758L36.1914 61.9062H37.505L40.0402 67.5198H38.665L38.1563 66.319ZM37.7426 65.3341L36.8426 63.1844L35.9454 65.3341H37.7426Z" fill="#C7183A"/>
<path d="M40.6289 61.9069H43.206C43.77 61.8961 44.3289 62.0155 44.8383 62.2555C45.2921 62.4728 45.6741 62.8135 45.9396 63.2377C46.1978 63.6876 46.3336 64.1962 46.3336 64.7137C46.3336 65.2312 46.1978 65.7398 45.9396 66.1897C45.675 66.6146 45.2928 66.9555 44.8383 67.1719C44.3289 67.4119 43.77 67.5313 43.206 67.5204H40.6289V61.9069ZM43.1445 66.4553C43.6411 66.4798 44.1276 66.311 44.5001 65.985C44.8251 65.6398 45.0058 65.1855 45.0058 64.7137C45.0058 64.2419 44.8251 63.7876 44.5001 63.4424C44.1272 63.1174 43.6407 62.9496 43.1445 62.9748H41.9454V66.4553H43.1445Z" fill="#C7183A"/>
<path d="M52.4867 67.5198V64.1528L50.8097 66.9194H50.2171L48.5569 64.2275V67.5198H47.3242V61.9062H48.4115L50.533 65.395L52.6237 61.9062H53.6998L53.7222 67.5198H52.4867Z" fill="#C7183A"/>
<path d="M55.0586 61.9062H56.3723V67.5198H55.0586V61.9062Z" fill="#C7183A"/>
<path d="M58.891 62.9659H57.0742V61.9062H62.0159V62.9659H60.2047V67.5198H58.891V62.9659Z" fill="#C7183A"/>
<path d="M63.9848 62.9659H62.168V61.9062H67.1125V62.9659H65.2957V67.5198H63.9848V62.9659Z" fill="#C7183A"/>
<path d="M72.2036 66.4767V67.5198H67.8125V61.9062H72.0974V62.9493H69.115V64.1694H71.748V65.1792H69.115V66.4767H72.2036Z" fill="#C7183A"/>
<path d="M73.25 61.907H75.8243C76.3884 61.8956 76.9474 62.015 77.4566 62.2556C77.9113 62.4727 78.2942 62.8133 78.5607 63.2378C78.8171 63.6883 78.9518 64.1967 78.9518 64.7138C78.9518 65.2309 78.8171 65.7392 78.5607 66.1898C78.2949 66.6148 77.9118 66.9556 77.4566 67.1719C76.9474 67.4126 76.3884 67.5319 75.8243 67.5205H73.25V61.907ZM75.7656 66.4554C76.263 66.4797 76.7504 66.311 77.124 65.985C77.449 65.6399 77.6297 65.1856 77.6297 64.7138C77.6297 64.2419 77.449 63.7877 77.124 63.4425C76.7501 63.1173 76.2626 62.9495 75.7656 62.9749H74.5665V66.4554H75.7656Z" fill="#C7183A"/>
<path d="M82.3005 70.8418H30.6641V58.3477H82.3005V70.8418ZM30.9436 70.5652H82.021V58.6243H30.9436V70.5652Z" fill="#C7183A"/>
<path d="M77.7954 97.4702C77.7312 97.4702 77.72 97.094 77.5159 96.4715C77.2405 95.6036 76.6896 94.8468 75.9451 94.3135C75.4074 93.9292 74.782 93.6824 74.1247 93.595C73.4674 93.5077 72.7984 93.5825 72.1773 93.8127C71.4519 94.0838 70.8223 94.5589 70.3661 95.1794C69.8744 95.8436 69.6094 96.6455 69.6094 97.4688C69.6094 98.2922 69.8744 99.0941 70.3661 99.7582C70.5937 100.076 70.8711 100.357 71.1879 100.588C71.4875 100.818 71.8213 101 72.1773 101.128C72.7981 101.36 73.4674 101.435 74.125 101.348C74.7827 101.261 75.4081 101.013 75.9451 100.627C76.6896 100.094 77.2405 99.3369 77.5159 98.469C77.7116 97.8465 77.7228 97.4702 77.7954 97.473C77.8681 97.4758 77.9184 97.8492 77.7954 98.5381C77.717 98.957 77.5707 99.3606 77.3622 99.7333C77.0858 100.235 76.7115 100.677 76.2609 101.034C75.7091 101.473 75.0594 101.775 74.3659 101.916C73.5616 102.077 72.7284 102.02 71.9537 101.753C71.093 101.452 70.3426 100.904 69.7987 100.179C69.2091 99.3968 68.8906 98.4473 68.8906 97.4716C68.8906 96.4959 69.2091 95.5464 69.7987 94.7644C70.0716 94.3928 70.404 94.0676 70.7826 93.8016C71.1389 93.5395 71.5339 93.3333 71.9537 93.1902C72.7284 92.9227 73.5616 92.8663 74.3659 93.027C75.0594 93.168 75.7091 93.4705 76.2609 93.9096C76.7115 94.2664 77.0858 94.7084 77.3622 95.2099C77.5707 95.5826 77.717 95.9862 77.7954 96.4051C77.9184 97.0912 77.829 97.4702 77.7954 97.4702Z" fill="#C7183A"/>
<path d="M59.7493 99.0416L59.6626 99.1191C59.6039 99.1689 59.5117 99.2408 59.3831 99.3293C59.0265 99.5873 58.641 99.8036 58.2343 99.974C57.5881 100.253 56.8835 100.375 56.1799 100.328C55.7405 100.294 55.3107 100.183 54.911 99.9989C54.4574 99.7976 54.0588 99.4922 53.7482 99.108C53.4091 98.6791 53.2067 98.16 53.1668 97.6168C53.113 97.0261 53.2779 96.4361 53.6308 95.9568C53.8205 95.7038 54.0713 95.5021 54.3603 95.3703C54.6616 95.2273 55.0047 95.1959 55.3274 95.2817C55.6577 95.3849 55.9338 95.6124 56.0961 95.9153C56.2675 96.2158 56.3489 96.5584 56.3309 96.903C56.2861 97.6085 55.8585 98.231 55.3638 98.7318C54.8507 99.2443 54.2795 99.6965 53.6616 100.079C53.0202 100.476 52.3346 100.798 51.6184 101.039C50.882 101.297 50.1098 101.439 49.3292 101.462C48.5302 101.502 47.7415 101.271 47.0931 100.807C46.4964 100.322 46.0836 99.6506 45.922 98.9033C45.7664 98.1899 45.7779 97.4508 45.9555 96.7425C46.1207 96.0704 46.3666 95.4202 46.6878 94.8059C46.8475 94.5068 47.0509 94.2327 47.2916 93.9925C47.5231 93.7443 47.8286 93.5756 48.1636 93.5111C48.3294 93.4842 48.4991 93.4936 48.6609 93.5385C48.8227 93.5834 48.9725 93.6628 49.1 93.7712C49.3405 93.9814 49.5102 94.2594 49.5863 94.5679C49.7012 95.1539 49.5787 95.761 49.2453 96.2584C49.1035 96.4935 48.9447 96.7182 48.7702 96.9307C48.6025 97.1409 48.4264 97.3346 48.2531 97.5227C47.9117 97.871 47.5455 98.1946 47.1574 98.491C46.8075 98.7501 46.4405 98.9858 46.0589 99.1965C45.4481 99.5332 44.8 99.7987 44.1275 99.9878C43.7034 100.107 43.2708 100.195 42.8334 100.251L42.4924 100.281H42.375C42.4123 100.27 42.4507 100.262 42.4896 100.259L42.8306 100.215C43.2641 100.152 43.6928 100.059 44.1135 99.938C44.7778 99.741 45.4173 99.4699 46.0198 99.1301C46.8191 98.6871 47.5465 98.1275 48.1776 97.4702C48.3481 97.282 48.5214 97.0911 48.6835 96.8809C48.8546 96.6722 49.0097 96.4512 49.1475 96.2196C49.4625 95.7469 49.5789 95.1713 49.4717 94.615C49.3991 94.3309 49.2412 94.0753 49.0189 93.8818C48.905 93.7846 48.7707 93.7135 48.6257 93.6738C48.4807 93.6341 48.3286 93.6267 48.1804 93.6522C47.8721 93.7147 47.5915 93.8715 47.3782 94.1004C47.1484 94.333 46.9544 94.5977 46.8024 94.8861C46.4863 95.4912 46.246 96.1323 46.0869 96.7951C45.9149 97.4825 45.9034 98.1997 46.0533 98.8922C46.207 99.6076 46.6011 100.25 47.1714 100.715C47.7897 101.158 48.542 101.378 49.304 101.341C50.0663 101.315 50.8203 101.175 51.5401 100.926C52.2448 100.688 52.9199 100.371 53.5526 99.9823C54.1613 99.606 54.7241 99.1613 55.2296 98.657C55.7132 98.1674 56.1184 97.5725 56.1604 96.9196C56.2023 96.2667 55.8501 95.5999 55.2548 95.4256C54.9613 95.3447 54.648 95.3733 54.3743 95.5058C54.1018 95.6289 53.8659 95.8195 53.6895 96.0592C53.3515 96.5166 53.1926 97.0799 53.2423 97.6445C53.2801 98.1675 53.4747 98.6675 53.8013 99.0803C54.0988 99.4546 54.4821 99.7533 54.9193 99.9518C55.3081 100.134 55.7264 100.246 56.1548 100.284C56.8469 100.336 57.5416 100.224 58.1812 99.9574C58.5876 99.794 58.9747 99.5871 59.3356 99.3404L59.6151 99.144C59.6539 99.1029 59.6992 99.0683 59.7493 99.0416Z" fill="#263238"/>
<path d="M73.5212 99.9663C73.0321 99.9782 72.5582 99.7976 72.2034 99.4641C71.8487 99.1306 71.6421 98.6715 71.6289 98.1874V95.5508L73.5212 95.9409L75.4163 95.5508V98.1874C75.4024 98.6717 75.1951 99.1309 74.8399 99.4643C74.4847 99.7977 74.0106 99.9783 73.5212 99.9663Z" fill="#C7183A"/>
<path d="M89.9385 45.0212C89.9385 45.0599 74.9456 45.0931 56.4533 45.0931C37.961 45.0931 22.9766 45.0599 22.9766 45.0212C22.9766 44.9824 37.9694 44.9492 56.4673 44.9492C74.9652 44.9492 89.9385 44.9797 89.9385 45.0212Z" fill="#263238"/>
<path d="M13.5397 115.668C13.5397 115.668 12.1617 106.284 12.2763 100.817C12.3909 95.3501 12.2763 89.2109 12.2763 89.2109H12.9164C12.9164 89.2109 12.4859 100.053 12.9555 106.591C13.4251 113.129 14.6577 115.668 14.6577 115.668H13.5397Z" fill="#263238"/>
<path d="M17.6451 78.646C17.5439 78.3166 17.3417 78.0266 17.0665 77.816C16.6613 77.5642 16.133 77.6693 15.669 77.816C13.7488 78.4883 12.0354 82.0323 11.2695 83.9026L13.8187 92.4073C18.4361 88.1771 19.2327 82.6299 17.6451 78.646Z" fill="#455A64"/>
<path d="M16.9173 78.1523C16.9096 78.1905 16.8974 78.2276 16.881 78.263C16.8475 78.3432 16.8055 78.4456 16.7552 78.5729C16.6434 78.8495 16.4757 79.2286 16.2996 79.7127C15.9251 80.6783 15.4471 82.0284 15.0195 83.5501C14.5918 85.0717 14.3095 86.4716 14.1194 87.4925C14.0272 88.0016 13.9601 88.4166 13.9154 88.7016C13.893 88.8344 13.8763 88.945 13.8595 89.0308C13.8563 89.0695 13.8478 89.1077 13.8344 89.1442C13.8313 89.1055 13.8313 89.0667 13.8344 89.028L13.8679 88.696C13.9014 88.4194 13.9573 87.9933 14.0384 87.4787C14.4707 84.8082 15.2038 82.194 16.2241 79.6851C16.4226 79.2037 16.5903 78.8191 16.7133 78.5563L16.8558 78.2547C16.8717 78.2181 16.8924 78.1837 16.9173 78.1523Z" fill="#263238"/>
<path d="M12.6996 94.441C10.307 93.1351 8.89827 90.6756 8.7669 87.9753C8.67746 86.0885 9.26163 84.2348 9.92686 82.4642C9.9696 82.3021 10.0685 82.1601 10.2064 82.063C10.3149 82.0247 10.4314 82.014 10.5452 82.0319C10.659 82.0497 10.7664 82.0956 10.8576 82.1654C12.5962 83.142 13.6527 85.0095 14.2117 86.9102C14.6128 88.1698 14.746 89.498 14.603 90.8111C14.3859 92.1913 13.723 93.4648 12.7136 94.441" fill="#455A64"/>
<path d="M12.7055 94.4374C12.6989 94.3998 12.6989 94.3615 12.7055 94.3239V93.9975C12.7055 93.7208 12.7055 93.3058 12.6692 92.7995C12.6026 91.4822 12.4542 90.1701 12.2248 88.8709C11.962 87.3464 11.6378 85.9825 11.403 84.9976C11.2856 84.5134 11.1906 84.1178 11.1235 83.83L11.0508 83.5091C11.0399 83.4731 11.0334 83.436 11.0312 83.3984C11.0312 83.3984 11.048 83.4344 11.0704 83.5063L11.1654 83.819C11.2437 84.0956 11.3527 84.4885 11.4785 84.9782C11.7356 85.9604 12.0682 87.3243 12.3366 88.8515C12.5648 90.1558 12.703 91.4739 12.7502 92.7967C12.7502 93.303 12.7502 93.7153 12.7502 93.9975C12.7502 94.1303 12.7502 94.2382 12.7502 94.3239C12.7385 94.3629 12.7236 94.4008 12.7055 94.4374Z" fill="#263238"/>
<g opacity="0.3">
<path d="M12.7074 94.441C10.3148 93.1351 8.90608 90.6756 8.77471 87.9753C8.68527 86.0885 9.26944 84.2348 9.93467 82.4642C9.97742 82.3021 10.0764 82.1601 10.2142 82.063C10.3227 82.0247 10.4392 82.014 10.553 82.0319C10.6668 82.0497 10.7742 82.0956 10.8654 82.1654C12.604 83.142 13.6605 85.0095 14.2195 86.9102C14.6206 88.1698 14.7538 89.498 14.6109 90.8111C14.3937 92.1913 13.7308 93.4648 12.7214 94.441" fill="black"/>
</g>
<path d="M15.3984 108.807C17.7519 109.319 19.6889 110.959 21.9585 111.759C23.4595 112.287 25.1589 112.475 26.358 113.513C26.0785 112.794 25.3881 112.315 24.7256 111.905C22.8577 110.751 20.8644 109.809 18.7833 109.097C17.7156 108.732 16.5472 108.428 15.4683 108.727" fill="#455A64"/>
<path d="M11.999 110.883C9.05022 110.836 5.95047 108.351 3.01562 108.205C6.09022 107.222 10.4813 108.025 11.999 110.883Z" fill="#455A64"/>
<path d="M13.1445 103.882C14.6642 103.389 16.2839 103.28 17.857 103.564C19.4214 103.85 20.9592 104.264 22.455 104.8C22.304 103.79 21.4739 103.03 20.6969 102.355C20.1278 101.83 19.5101 101.359 18.8521 100.949C18.1874 100.539 17.4186 100.325 16.6356 100.332C16.1664 100.362 15.7082 100.486 15.2885 100.696C14.8687 100.905 14.496 101.197 14.1927 101.552C13.5971 102.196 13.2292 103.013 13.1445 103.882Z" fill="#455A64"/>
<path d="M7.10231 100.667C5.24917 99.1013 2.43732 99.2535 0 99.3088C3.91728 101.157 7.61228 103.436 11.0154 106.101C11.1133 104.397 9.4446 102.648 7.10231 100.667Z" fill="#455A64"/>
<g opacity="0.3">
<path d="M7.10231 100.663C5.24917 99.0974 2.43732 99.2496 0 99.3049C3.91728 101.153 7.61228 103.432 11.0154 106.097C11.1133 104.393 9.4446 102.644 7.10231 100.663Z" fill="black"/>
</g>
<path d="M13.9833 98.5025C14.8864 97.8875 15.8368 97.3435 16.8259 96.8757C17.8042 96.4358 18.7126 95.7386 19.6573 95.2323C20.8788 94.5766 21.9381 93.6664 23.059 92.853C24.1798 92.0396 25.4152 91.3092 26.7876 91.0934C25.6568 90.8934 24.4944 90.9597 23.3944 91.2871C22.2998 91.614 21.2326 92.0247 20.2024 92.5155C18.7545 93.1629 17.2843 93.8241 16.102 94.8699C14.9197 95.9157 13.8491 96.9504 13.9749 98.5163" fill="#455A64"/>
<path d="M21.903 110.879C21.8704 110.87 21.8393 110.856 21.8107 110.838C21.7408 110.802 21.6542 110.76 21.5536 110.705C21.33 110.589 21.0113 110.428 20.6116 110.218C20.4132 110.113 20.1924 110.005 19.9548 109.894C19.7172 109.783 19.4601 109.662 19.1889 109.546C18.6062 109.287 18.0021 109.077 17.3833 108.92C16.767 108.751 16.118 108.735 15.4938 108.873C15.2207 108.932 14.9526 109.012 14.6916 109.111C14.1383 109.332 13.6403 109.67 13.2326 110.102C13.0621 110.284 12.9782 110.395 12.9727 110.378C12.9849 110.347 13.0029 110.318 13.0258 110.293C13.0797 110.213 13.1385 110.138 13.2019 110.066C13.4355 109.797 13.7054 109.561 14.004 109.366C14.209 109.24 14.4251 109.132 14.6497 109.045C14.9136 108.94 15.1856 108.855 15.4631 108.793C16.1009 108.645 16.766 108.659 17.3973 108.832C18.0258 108.991 18.6385 109.206 19.2281 109.474C19.5076 109.593 19.7563 109.709 19.9911 109.831C20.2259 109.952 20.4495 110.057 20.6452 110.165C21.0421 110.373 21.3579 110.558 21.5731 110.685L21.8191 110.835C21.875 110.854 21.9058 110.874 21.903 110.879Z" fill="#263238"/>
<path d="M9.80087 109.438C9.86453 109.448 9.92654 109.467 9.98535 109.493C10.1498 109.551 10.3104 109.619 10.4661 109.698C10.9788 109.956 11.4498 110.289 11.8636 110.685C12.2794 111.083 12.6343 111.539 12.9174 112.038C13.0022 112.189 13.0778 112.346 13.1438 112.506C13.1746 112.562 13.1954 112.623 13.2053 112.686C13.1885 112.686 13.0795 112.445 12.8531 112.077C12.556 111.596 12.1992 111.153 11.791 110.76C11.3791 110.372 10.9189 110.037 10.4214 109.764C10.0496 109.554 9.79528 109.454 9.80087 109.438Z" fill="#263238"/>
<path d="M3.28125 100.52C3.32404 100.528 3.36608 100.54 3.40703 100.555L3.762 100.68L4.32102 100.885C4.53904 100.965 4.77383 101.084 5.04215 101.2C6.42377 101.833 7.71352 102.646 8.87701 103.618C9.51254 104.158 10.1102 104.741 10.6659 105.361C11.1163 105.87 11.5399 106.402 11.9348 106.955C12.2702 107.425 12.5274 107.818 12.7007 108.089L12.9019 108.402C12.9288 108.437 12.9513 108.475 12.969 108.515C12.9381 108.485 12.91 108.451 12.8852 108.416C12.8349 108.346 12.7594 108.247 12.6672 108.111C12.4827 107.848 12.2171 107.461 11.8761 107.005C11.5351 106.548 11.1019 106.003 10.5932 105.433C10.0363 104.821 9.44065 104.244 8.80993 103.707C7.65218 102.74 6.37481 101.923 5.00861 101.275C4.74588 101.153 4.51388 101.031 4.29866 100.946L3.73964 100.727L3.40982 100.578C3.36539 100.562 3.32238 100.542 3.28125 100.52Z" fill="#263238"/>
<path d="M17.5698 102.249C17.4907 102.25 17.4118 102.241 17.3351 102.221L17.0555 102.172C16.9521 102.149 16.8291 102.149 16.695 102.136C15.9953 102.076 15.293 102.213 14.6685 102.531C14.3284 102.707 14.0189 102.936 13.7518 103.209C13.5273 103.428 13.3286 103.671 13.1592 103.934C13.0057 104.178 12.8703 104.434 12.7539 104.697C12.7636 104.62 12.7833 104.543 12.8126 104.471C12.8866 104.27 12.9802 104.078 13.0921 103.895C13.2561 103.621 13.4532 103.367 13.6791 103.14C14.064 102.741 14.5373 102.436 15.0617 102.249C15.586 102.062 16.1471 101.999 16.7006 102.064C16.8375 102.083 16.9605 102.089 17.0667 102.113L17.3462 102.18C17.423 102.195 17.4979 102.218 17.5698 102.249Z" fill="#263238"/>
<path d="M20.5272 93.1562C20.4931 93.1818 20.4566 93.2041 20.4182 93.2227L20.0884 93.3997C19.8089 93.5519 19.3924 93.7788 18.8921 94.0692C18.3918 94.3597 17.8076 94.7277 17.1843 95.1759C16.504 95.6481 15.8662 96.1776 15.278 96.7584C14.9751 97.0562 14.713 97.392 14.4982 97.7572C14.3054 98.1224 14.1209 98.4765 13.9392 98.8168C13.6344 99.4176 13.3611 100.034 13.1202 100.662C12.961 101.087 12.8275 101.522 12.7205 101.962C12.6451 102.272 12.6199 102.449 12.6087 102.447C12.6044 102.404 12.6044 102.362 12.6087 102.319C12.6087 102.234 12.6367 102.112 12.6702 101.951C12.7614 101.505 12.8847 101.066 13.0392 100.637C13.2704 100.002 13.5382 99.3803 13.8414 98.7753C14.0091 98.4322 14.1908 98.0781 14.3836 97.7102C14.6007 97.3345 14.8677 96.9893 15.1774 96.6837C15.7694 96.0985 16.414 95.5679 17.1032 95.0984C17.7321 94.6585 18.3247 94.3016 18.8278 94.0139C19.3309 93.7262 19.753 93.5159 20.0437 93.372L20.3819 93.2144C20.428 93.1898 20.4768 93.1703 20.5272 93.1562Z" fill="#263238"/>
<path d="M12.2679 101.986C12.2384 101.908 12.2187 101.826 12.2093 101.743C12.1757 101.563 12.131 101.336 12.0807 101.068C11.9386 100.328 11.7519 99.5972 11.5217 98.8794C11.2854 98.1642 11.0054 97.4638 10.6831 96.7823L10.4036 96.157C10.3619 96.083 10.3299 96.004 10.3086 95.9219C10.3597 95.9902 10.4037 96.0634 10.44 96.1404C10.5182 96.2815 10.6272 96.489 10.7558 96.7491C11.1009 97.426 11.3934 98.128 11.6307 98.849C11.8635 99.5725 12.041 100.312 12.1617 101.062C12.2065 101.339 12.24 101.582 12.2568 101.743C12.2681 101.824 12.2718 101.905 12.2679 101.986Z" fill="#263238"/>
<path d="M12.0516 95.3465C11.9589 94.2424 11.6332 93.1698 11.0956 92.198C10.3692 90.8601 9.35536 89.696 8.12537 88.7878C6.89539 87.8796 5.47921 87.2494 3.97656 86.9414L10.5674 96.6606L11.4059 98.3953C11.9985 97.4574 12.127 96.4504 12.0516 95.3465Z" fill="#455A64"/>
<path d="M21.5074 114.508H6.1875V117.197H21.5074V114.508Z" fill="#C7183A"/>
<path d="M7.32812 116.664L8.63343 125.005H18.8047L20.3616 116.664H7.32812Z" fill="#C7183A"/>
<path d="M21.4998 117.197C21.4998 117.228 18.0422 117.252 13.7825 117.252C9.52282 117.252 6.0625 117.228 6.0625 117.197C6.0625 117.167 9.51723 117.145 13.7825 117.145C18.0478 117.145 21.4998 117.169 21.4998 117.197Z" fill="#263238"/>
<path d="M110.652 20.2161L109.126 14.8488L114.076 12.5967L109.232 10.3281L110.529 5.89313L106.124 7.54482L103.975 3.36719L101.803 8.08432L97.1885 6.09787L98.6643 10.9008L93.7812 12.8485L98.2646 15.8365L96.4841 20.0169L101.907 19.2865L103.544 24.3743L105.258 19.1537L110.652 20.2161Z" fill="white"/>
<path d="M110.653 20.2165L105.253 19.1846L105.289 19.1624L103.587 24.3831L103.545 24.5159L103.503 24.3831L101.856 19.298L101.915 19.334L96.4843 20.0754H96.3837L96.4228 19.9814C96.9819 18.6589 97.5828 17.2507 98.2005 15.801L98.2229 15.8729L93.7452 12.9015L93.6445 12.8351L93.7563 12.7909L98.6393 10.8542L98.6002 10.9344C98.1949 9.61751 97.7617 8.22036 97.3313 6.8066L97.1244 6.12324L97.0825 5.98767L97.2139 6.04301L101.829 8.03223L101.742 8.06543C102.487 6.45524 103.212 4.88194 103.916 3.34553L103.972 3.22656L104.031 3.34276L106.178 7.50656L106.102 7.4789L110.507 5.81891L110.616 5.78018L110.583 5.88808C110.128 7.44846 109.695 8.92401 109.283 10.3147L109.255 10.2511L114.093 12.5557L114.18 12.5972L114.093 12.6359L109.14 14.8797L109.157 14.8409C110.113 18.2743 110.591 19.9924 110.653 20.2165C110.588 19.9924 110.094 18.2799 109.093 14.8603V14.8326H109.118L114.063 12.5668V12.647L109.216 10.3839L109.177 10.3673V10.323C109.585 8.92677 110.015 7.45123 110.468 5.89638L110.544 5.96554L106.141 7.62553L106.088 7.6449L106.063 7.5951C105.37 6.24497 104.653 4.85243 103.911 3.41746H104.031C103.325 4.95018 102.601 6.52348 101.859 8.13736L101.831 8.19546L101.773 8.17056L97.158 6.18411L97.2474 6.10387L97.457 6.77894C97.8819 8.16779 98.3207 9.56495 98.7204 10.8819L98.7372 10.94L98.6813 10.9621L93.8011 12.8988V12.7881L98.2732 15.7788L98.3151 15.8065L98.2956 15.8535L96.5123 20.0312L96.4843 19.9565L101.907 19.2316H101.952L101.965 19.2731C102.558 21.124 103.109 22.8421 103.595 24.3665H103.511C104.176 22.3552 104.761 20.59 105.236 19.1486V19.1209H105.267L110.653 20.2165Z" fill="#263238"/>
<path d="M103.074 15.6413C103.076 15.5177 103.102 15.3956 103.152 15.2824C103.203 15.1692 103.276 15.0673 103.367 14.9828C103.458 14.8982 103.565 14.8328 103.683 14.7905C103.8 14.7482 103.925 14.7299 104.05 14.7366C104.291 14.7344 104.524 14.8273 104.696 14.9949C104.869 15.1625 104.967 15.391 104.969 15.6302C104.972 15.8694 104.878 16.0997 104.708 16.2704C104.539 16.4411 104.308 16.5383 104.066 16.5405C103.941 16.5479 103.816 16.5304 103.697 16.4889C103.579 16.4474 103.47 16.3828 103.378 16.2989C103.285 16.2151 103.211 16.1136 103.159 16.0006C103.106 15.8877 103.078 15.7655 103.074 15.6413ZM103.208 9.55469H104.857L104.625 13.7738H103.521L103.208 9.55469Z" fill="#C7183A"/>
<path d="M113.865 83.6112C113.865 83.6112 114.175 84.6819 110.933 85.1882C107.69 85.6945 100.834 86.068 97.4658 86.0182C94.0977 85.9684 91.7387 85.6613 90.1818 83.5116C88.8038 81.6082 88.9799 80.1142 90.7576 79.6743C92.5353 79.2344 103.12 82.4658 105.217 81.3177C107.313 80.1695 113.49 81.2789 113.865 83.6112Z" fill="#455A64"/>
<path d="M95.8238 66.8034C95.9244 66.9777 96.4107 72.3976 96.4107 72.3976C96.4107 72.3976 94.6023 79.3778 93.7694 83.7408C92.8806 88.3833 93.0259 95.7066 93.5458 97.0207C94.4654 99.3502 109.782 109.368 109.782 109.368L111.999 106.228L99.3791 93.1723L103.03 76.329L101.352 65.5391L95.8238 66.8034Z" fill="#FFBF9D"/>
<path d="M108.944 62.8438C108.944 62.8438 112.67 68.6537 112.897 71.697C113.157 75.183 110.842 79.1116 109.699 81.5435C108.648 83.7762 103.642 91.7552 103.642 91.7552C107.723 91.2378 111.513 91.8216 116.052 93.0694C116.052 93.0694 117.81 94.8704 116.86 96.6881C116.86 96.6881 102.015 97.8944 100.173 97.781C98.3315 97.6675 96.6237 96.1376 96.6852 92.8259C96.7467 89.5142 99.6312 78.7022 99.6312 78.7022L99.2315 76.7793L98.6725 74.3364L97.2247 65.4831L103.905 62.8603L108.944 62.8438Z" fill="#FFBF9D"/>
<path d="M108.947 62.842H108.612L107.636 62.8558L103.902 62.8918L97.2273 65.5284L97.2553 65.4786C97.56 67.3184 97.8954 69.3519 98.2615 71.5818C98.3547 72.1351 98.4479 72.7014 98.541 73.2805C98.5885 73.5572 98.6361 73.8587 98.6864 74.1548C98.7367 74.4508 98.8149 74.7358 98.8764 75.0318C99.0134 75.6239 99.1559 76.2215 99.2957 76.8301C99.4355 77.4388 99.5501 78.0668 99.6814 78.6976V78.7253C99.1224 80.8252 98.5802 83.0412 98.0491 85.3652C97.7891 86.5217 97.5264 87.703 97.2972 88.9121C97.0422 90.1359 96.863 91.3739 96.7606 92.6194C96.7262 93.2549 96.7703 93.8923 96.8919 94.5173C97.0108 95.1497 97.2611 95.7508 97.627 96.2824C97.8117 96.5483 98.0317 96.7884 98.2811 96.9962C98.5365 97.1975 98.8187 97.3632 99.1196 97.4887C99.4264 97.6099 99.7493 97.6863 100.078 97.7155C100.413 97.7335 100.748 97.7335 101.082 97.7155C103.79 97.6132 106.563 97.4029 109.383 97.2037L116.846 96.6282L116.787 96.667C116.933 96.3783 117.023 96.0647 117.05 95.7429C117.07 95.4212 117.035 95.0985 116.947 94.7884C116.756 94.1726 116.43 93.6059 115.994 93.1284L116.024 93.145C113.956 92.5529 111.845 92.1145 109.71 91.8336C107.695 91.5846 105.657 91.5846 103.642 91.8336L103.505 91.8502L103.578 91.734C104.841 89.7172 106.043 87.7694 107.164 85.8992C108.269 84.1404 109.276 82.3238 110.183 80.4572C111.042 78.8463 111.766 77.1676 112.346 75.4385C112.846 73.8338 113.053 72.2403 112.74 70.868C112.43 69.6505 111.991 68.4689 111.429 67.3433C110.957 66.3473 110.51 65.5201 110.141 64.8533C109.772 64.1865 109.47 63.683 109.269 63.3455L109.037 62.9609L108.961 62.8281C108.961 62.8281 108.992 62.8696 109.048 62.9554L109.285 63.3344C109.495 63.6692 109.8 64.1644 110.177 64.8339C110.554 65.5035 111.015 66.3224 111.485 67.3239C112.051 68.4544 112.492 69.6416 112.802 70.8652C113.126 72.2486 112.919 73.8643 112.424 75.48C111.846 77.2148 111.125 78.8998 110.269 80.5181C109.37 82.3825 108.373 84.199 107.281 85.96C106.163 87.8303 104.97 89.7771 103.701 91.8004L103.636 91.7008C105.662 91.4504 107.712 91.4504 109.738 91.7008C111.88 91.9769 113.998 92.4106 116.075 92.9984H116.094V93.0122C116.549 93.5055 116.888 94.0922 117.086 94.7303C117.179 95.0558 117.216 95.3943 117.195 95.7318C117.165 96.0736 117.07 96.4066 116.916 96.714L116.899 96.7472H116.857L109.392 97.3254C106.574 97.5246 103.801 97.7349 101.087 97.8373C100.747 97.8552 100.405 97.8552 100.064 97.8373C99.7215 97.8083 99.3851 97.7281 99.0665 97.5993C98.7509 97.4697 98.4554 97.2964 98.1888 97.0847C97.9297 96.869 97.7012 96.6196 97.5096 96.3433C97.1348 95.7947 96.8771 95.1762 96.7522 94.5256C96.6303 93.8876 96.5862 93.2374 96.6208 92.5889C96.7255 91.337 96.9065 90.0925 97.1631 88.8623C97.395 87.6505 97.6578 86.4691 97.9205 85.3099C98.4544 82.9942 99.0078 80.7809 99.564 78.6699V78.6976C99.4355 78.0668 99.3078 77.4443 99.1811 76.8301C99.0544 76.2159 98.9165 75.6165 98.7674 75.0318C98.7059 74.733 98.6193 74.4453 98.5774 74.1492C98.5354 73.8532 98.4823 73.5655 98.4348 73.2777C98.3416 72.7004 98.2485 72.1333 98.1553 71.5763C97.7975 69.3629 97.4649 67.3073 97.1658 65.4703V65.4343L97.1994 65.4205L103.891 62.842H107.636H108.609H108.947Z" fill="#FF9A6C"/>
<path d="M82.9922 26.7423C82.9922 26.7423 84.4261 37.3663 85.8236 40.2076C86.5419 41.6712 92.9762 49.8521 92.9762 49.8521L96.5008 44.8888L89.7731 37.6291L85.9494 26.5625L82.9922 26.7423Z" fill="#FFBF9D"/>
<path d="M83.1027 23.8474C83.0887 23.7727 82.9042 22.9067 83.1027 22.6633C83.1718 22.5911 83.2573 22.5364 83.3521 22.5036C83.4469 22.4709 83.5483 22.4611 83.6477 22.4751C83.733 22.2671 83.8866 22.0937 84.0838 21.9827C84.301 21.914 84.5345 21.914 84.7518 21.9827L85.0006 21.8194C85.0819 21.749 85.1813 21.7022 85.2879 21.6841C85.3944 21.6661 85.5039 21.6775 85.6043 21.7171C85.7808 21.8531 85.9957 21.9314 86.2192 21.9412C86.5434 21.9412 86.9571 22.821 87.1863 23.2443C87.4155 23.6676 87.7286 24.2264 87.3065 24.86C86.8579 25.4998 86.3697 26.1115 85.8447 26.6915L83.1698 26.9682C83.1698 26.9682 82.8064 26.6472 82.7589 25.701C82.7451 25.0665 82.8621 24.4357 83.1027 23.8474Z" fill="#FFBF9D"/>
<path d="M83.6307 22.4805C83.7065 22.6394 83.7664 22.8052 83.8096 22.9757C83.9046 23.2828 84.0304 23.7116 84.1618 24.1875C84.1758 24.2456 84.1925 24.3037 84.2093 24.3618C84.2261 24.4199 84.2093 24.3784 84.2093 24.4171C84.2092 24.4409 84.2045 24.4643 84.1953 24.4863C84.1766 24.5209 84.1486 24.5496 84.1143 24.5693C84.0068 24.6262 83.8867 24.6557 83.7649 24.6551C83.6502 24.6635 83.5364 24.6289 83.4462 24.5582C83.3728 24.5001 83.3111 24.4288 83.2646 24.348C83.195 24.2372 83.1422 24.117 83.108 23.9911C83.0829 23.9053 83.0773 23.8527 83.0857 23.8527C83.0941 23.8527 83.1528 24.0464 83.3288 24.3065C83.3712 24.3819 83.4332 24.4448 83.5084 24.4886C83.5836 24.5324 83.6693 24.5555 83.7565 24.5555C83.8603 24.5514 83.9622 24.5259 84.0556 24.4808C84.0721 24.4706 84.0856 24.4563 84.0947 24.4393C84.0947 24.4199 84.0947 24.4393 84.0947 24.3895L84.0444 24.2152C83.913 23.7393 83.8012 23.3077 83.7229 22.9951C83.6745 22.8271 83.6436 22.6547 83.6307 22.4805Z" fill="#FF9A6C"/>
<path d="M84.7467 21.9805C84.7967 22.1196 84.8277 22.2648 84.8389 22.4121C84.8809 22.6887 84.9312 23.0512 84.9815 23.4634C84.9815 23.4634 84.9815 23.4938 84.9955 23.5077C85.0512 23.7115 85.0512 23.9263 84.9955 24.1302C84.9708 24.2167 84.9238 24.2953 84.8592 24.3584C84.7945 24.4215 84.7143 24.4668 84.6265 24.4898C84.5116 24.5158 84.3917 24.5101 84.2799 24.4732C84.2017 24.4483 84.1653 24.4207 84.1681 24.4151C84.1709 24.4096 84.2128 24.4151 84.2911 24.4317C84.3953 24.4502 84.5025 24.4445 84.6042 24.4151C84.676 24.3922 84.7407 24.3514 84.7921 24.2967C84.8434 24.2419 84.8798 24.1751 84.8976 24.1025C84.9359 23.9192 84.9292 23.7294 84.8781 23.5492V23.5104C84.8278 23.0982 84.7886 22.7247 84.7663 22.4536C84.7395 22.2973 84.7329 22.1383 84.7467 21.9805Z" fill="#FF9A6C"/>
<path d="M85.5865 21.7148C85.5912 21.9335 85.5752 22.1521 85.5389 22.3678V22.3512C85.6479 22.6859 85.7905 23.1397 85.9386 23.6377C85.9722 23.7483 86.0029 23.8562 86.0337 23.9614V23.9835V24.0029C85.9717 24.1091 85.8902 24.203 85.7933 24.2795C85.7027 24.3556 85.5879 24.3978 85.4691 24.3985C85.4152 24.3967 85.3623 24.3834 85.314 24.3596C85.2658 24.3357 85.2233 24.3018 85.1896 24.2602C85.1334 24.1948 85.0898 24.1198 85.061 24.0388C85.0155 23.9289 84.9845 23.8136 84.9688 23.6958C84.9688 23.6128 84.9688 23.5657 84.9688 23.5657C84.9688 23.5657 85.0079 23.7456 85.1281 24.0112C85.1896 24.1329 85.293 24.31 85.4747 24.3017C85.5756 24.2867 85.6713 24.2473 85.7532 24.187C85.8351 24.1267 85.9007 24.0473 85.9442 23.9558V23.9973C85.9107 23.8922 85.8799 23.7843 85.8464 23.6736C85.6983 23.1756 85.5669 22.7191 85.4747 22.3816V22.3622C85.4933 22.1437 85.5307 21.9271 85.5865 21.7148Z" fill="#FF9A6C"/>
<path d="M85.834 26.6902C85.834 26.6902 87.2874 24.9251 87.2958 24.8587C87.3042 24.7923 86.9604 22.781 86.6278 22.3964C86.2952 22.0118 85.8424 21.5664 85.8424 21.5664C85.8424 21.5664 85.3197 21.6549 85.5209 22.4351C85.7222 23.2153 85.9905 24.0094 85.9905 24.0094L85.4986 24.6208C85.4986 24.6208 83.7796 24.9555 83.7656 26.5574" fill="#FFBF9D"/>
<path d="M83.7673 26.5553C83.7599 26.4882 83.7599 26.4205 83.7673 26.3533C83.7692 26.2721 83.7805 26.1914 83.8008 26.1126C83.8222 26.0047 83.854 25.8991 83.8958 25.7973C84.0169 25.5202 84.2028 25.2755 84.4381 25.0835C84.7471 24.8383 85.1069 24.6636 85.4918 24.5716L85.4639 24.5882L85.953 23.974V24.0211C85.8272 23.6531 85.7043 23.2575 85.5869 22.8425C85.5181 22.6302 85.4667 22.4128 85.4331 22.1923C85.4206 22.0717 85.4349 21.9499 85.4751 21.8354C85.519 21.7168 85.6056 21.6183 85.7182 21.5588C85.7568 21.5374 85.7982 21.5216 85.8412 21.5117H85.872L85.8915 21.5339L86.3192 21.9876L86.5288 22.2117C86.6021 22.2829 86.6685 22.3607 86.7273 22.4441C86.8259 22.6184 86.902 22.8043 86.9537 22.9974C87.0124 23.18 87.0571 23.3598 87.099 23.5369C87.1829 23.891 87.2499 24.2286 87.3058 24.5467C87.3058 24.627 87.3282 24.7044 87.3422 24.7819V24.8428C87.3422 24.8428 87.3422 24.8677 87.3422 24.8815L87.3226 24.9175C87.2975 24.9562 87.2751 24.9839 87.2527 25.0143L86.9732 25.3518C86.6266 25.7779 86.3415 26.1182 86.1347 26.3506L85.9027 26.6272C85.878 26.6605 85.8489 26.6903 85.8161 26.7158C85.8362 26.6797 85.8596 26.6454 85.8859 26.6134L86.1012 26.3367L86.9033 25.3159L87.1633 24.9756L87.2276 24.887H87.2639C87.236 24.887 87.2443 24.887 87.2443 24.887V24.8317C87.2443 24.757 87.2192 24.6795 87.208 24.5993C87.1493 24.2839 87.0794 23.9491 86.9928 23.5978C86.9481 23.4235 86.9033 23.2436 86.8447 23.0666C86.7933 22.8847 86.7211 22.7093 86.6294 22.5437C86.5708 22.4661 86.5063 22.3931 86.4366 22.3251L86.2297 22.1038L85.8049 21.6528H85.8524C85.821 21.6605 85.7909 21.6726 85.763 21.6888C85.6754 21.745 85.6071 21.826 85.5667 21.9213C85.5263 22.0165 85.5158 22.1215 85.5366 22.2227C85.5687 22.4364 85.6173 22.6473 85.6819 22.8535C85.7993 23.2658 85.9195 23.6614 86.0397 24.0294V24.0543L86.0229 24.0736C85.8524 24.2867 85.6875 24.4914 85.5282 24.6851H85.5114C85.1386 24.7695 84.7886 24.9327 84.4856 25.1637C84.2563 25.3453 84.0719 25.5761 83.9461 25.8388C83.8552 26.0689 83.7951 26.3098 83.7673 26.5553Z" fill="#FF9A6C"/>
<path d="M109.035 109.969L108.594 109.64C109.934 108.473 110.852 106.904 111.207 105.172L114.343 106.801L109.066 116.056C108.2 115.538 109.035 109.969 109.035 109.969Z" fill="#455A64"/>
<path d="M114.34 106.801L113.574 106.402L108.8 115.447C108.8 115.447 108.747 115.953 109.079 116.058L114.34 106.801Z" fill="#E0E0E0"/>
<path d="M109.101 109.84C109.149 109.863 109.3 109.647 109.574 109.5C109.847 109.354 110.11 109.337 110.116 109.284C110.121 109.232 109.817 109.163 109.487 109.345C109.157 109.528 109.065 109.827 109.101 109.84Z" fill="#263238"/>
<path d="M111.979 107.305C112.012 107.323 112.049 107.334 112.087 107.338C112.124 107.341 112.162 107.337 112.198 107.326C112.234 107.315 112.268 107.296 112.296 107.272C112.325 107.247 112.348 107.217 112.365 107.183C112.398 107.119 112.404 107.044 112.382 106.976C112.36 106.907 112.312 106.849 112.248 106.815C112.214 106.797 112.178 106.786 112.14 106.783C112.102 106.779 112.064 106.783 112.028 106.794C111.992 106.806 111.959 106.824 111.93 106.849C111.902 106.873 111.878 106.903 111.862 106.937C111.829 107.001 111.823 107.076 111.845 107.145C111.867 107.213 111.915 107.271 111.979 107.305Z" fill="#E0E0E0"/>
<path d="M109.108 109.757C109.108 109.757 109.172 109.707 109.264 109.594C109.401 109.436 109.492 109.245 109.53 109.041C109.538 108.972 109.538 108.902 109.53 108.833C109.524 108.753 109.5 108.675 109.457 108.606C109.428 108.562 109.385 108.529 109.334 108.511C109.284 108.493 109.229 108.491 109.178 108.507C109.128 108.521 109.082 108.545 109.042 108.577C109.002 108.609 108.969 108.649 108.946 108.695C108.856 108.87 108.817 109.066 108.834 109.262C108.851 109.457 108.923 109.644 109.041 109.801L109.144 109.699C109.077 109.654 109.006 109.615 108.932 109.583C108.73 109.501 108.511 109.473 108.295 109.501C108.08 109.53 107.875 109.613 107.702 109.743C107.654 109.774 107.615 109.816 107.587 109.865C107.574 109.893 107.566 109.924 107.566 109.955C107.566 109.986 107.574 110.017 107.587 110.045C107.637 110.133 107.719 110.198 107.817 110.228C107.976 110.275 108.144 110.279 108.306 110.241C108.53 110.181 108.737 110.071 108.912 109.92C109.038 109.824 109.105 109.766 109.1 109.757C109.021 109.785 108.947 109.825 108.882 109.876C108.703 110.006 108.501 110.1 108.286 110.153C108.146 110.181 108 110.171 107.864 110.125C107.798 110.106 107.742 110.063 107.708 110.003C107.682 109.954 107.708 109.909 107.783 109.857C107.938 109.745 108.118 109.675 108.308 109.652C108.498 109.629 108.691 109.655 108.868 109.727C108.934 109.754 108.997 109.788 109.055 109.829C109.072 109.84 109.092 109.844 109.112 109.841C109.132 109.837 109.149 109.826 109.161 109.81C109.17 109.798 109.174 109.783 109.174 109.768C109.174 109.753 109.17 109.739 109.161 109.727C109.058 109.589 108.994 109.427 108.977 109.256C108.96 109.085 108.989 108.913 109.063 108.758C109.125 108.626 109.29 108.581 109.343 108.678C109.401 108.79 109.425 108.916 109.413 109.041C109.385 109.234 109.312 109.417 109.2 109.577C109.161 109.633 109.13 109.693 109.108 109.757Z" fill="#263238"/>
<path d="M108.902 110.828C109.079 110.696 109.266 110.58 109.461 110.479C109.671 110.411 109.886 110.362 110.104 110.332C109.993 110.292 109.874 110.275 109.756 110.283C109.637 110.291 109.522 110.323 109.417 110.377C109.304 110.412 109.199 110.47 109.111 110.548C109.022 110.625 108.951 110.721 108.902 110.828Z" fill="#263238"/>
<path d="M108.844 111.645C108.866 111.667 109.079 111.504 109.383 111.396C109.688 111.288 109.956 111.272 109.956 111.238C109.751 111.183 109.533 111.202 109.341 111.291C109.137 111.345 108.96 111.471 108.844 111.645Z" fill="#263238"/>
<path d="M95.9806 67.0532C96.2601 71.0151 95.6396 73.5161 93.2918 75.9646C92.5399 76.7476 91.6455 77.3867 90.8628 78.142C90.0802 78.8972 89.3898 79.8019 89.2109 80.8809C89.4904 80.4576 90.1529 80.4466 90.6085 80.7039C91.0641 80.9612 91.3464 81.4011 91.665 81.8105C93.3896 83.963 96.2182 85.0973 98.9909 85.0918C101.764 85.0862 104.467 84.0183 106.722 82.4247C107.306 82.0125 107.899 81.5505 108.606 81.4536C109.473 81.3319 110.311 81.7856 111.021 82.2836C111.731 82.7816 112.419 83.3709 113.277 83.5784C113.368 83.6137 113.467 83.6259 113.565 83.6138C113.663 83.6017 113.756 83.5658 113.836 83.5092C113.893 83.4362 113.933 83.3522 113.956 83.2626C113.978 83.1731 113.981 83.0799 113.964 82.9891C113.869 80.9381 113.776 78.8862 113.685 76.8333C113.539 73.6766 113.358 70.3787 111.748 67.6481L108.329 62.3555C108.329 62.3555 105.548 62.5685 103.558 63.2408C101.568 63.9131 95.9806 67.0532 95.9806 67.0532Z" fill="#263238"/>
<g opacity="0.3">
<path d="M96.1476 70.0389L95.9883 68.224L103.686 63.8748L109.905 63.8555L111.716 68.3789C111.716 68.3789 106.526 66.4229 105.008 66.5585C103.49 66.6941 96.2957 71.3503 96.2957 71.3503L96.1476 70.0389Z" fill="black"/>
</g>
<path d="M119.151 61.3253C119.151 61.3253 119.466 51.0693 119.12 48.9418C118.684 46.2553 114.941 44.8914 112.92 44.4515C110.9 44.0116 107.414 44.7005 107.414 44.7005C107.414 44.7005 107.886 62.3379 108.007 62.4651C108.127 62.5924 110.695 66.7258 110.695 66.7258C110.695 66.7258 118.083 66.3495 118.776 65.1377C119.469 63.9259 119.151 61.3253 119.151 61.3253Z" fill="#455A64"/>
<path d="M98.4042 45.2873C98.2198 45.4588 93.0321 52.1071 93.4234 54.4698C93.8147 56.8325 94.0691 57.6099 94.2927 59.3059C94.8321 63.4088 94.1501 65.6194 94.3374 67.4481C94.5247 69.2769 95.4554 69.9824 95.6427 69.869C95.83 69.7555 101.121 66.1533 103.952 64.8088C109.076 62.3741 110.155 67.3734 111.346 67.2379C112.536 67.1023 112.743 66.5794 112.743 66.5794C112.743 66.5794 111.027 66.4023 110.823 65.5142C110.619 64.6262 108.209 56.2986 108.209 56.2986L109.453 45.2569L106.04 44.0312L100.028 44.7063L98.4042 45.2873Z" fill="#C7183A"/>
<path d="M100.352 45.1334C100.091 44.9075 99.7533 44.787 99.4068 44.7958C98.7919 44.7958 96.9219 44.3421 96.9219 44.3421L94.8592 42.707C93.143 43.1442 89.2047 47.0368 90.2529 48.2127L92.9669 50.9295L93.5427 53.5855L97.8974 48.351L100.352 45.1334Z" fill="#C7183A"/>
<path d="M93.4949 53.9528C93.4949 53.9528 92.0973 50.9731 93.1511 48.295C94.2048 45.6169 96.3095 43.138 99.4232 42.6953V43.3233C99.4232 43.3233 94.5989 47.003 94.1126 49.3519C93.6262 51.7007 93.7324 51.7505 93.7324 51.7505L93.4949 53.9528Z" fill="#455A64"/>
<path d="M94.8297 48.5039C94.7683 48.5823 94.7167 48.6678 94.6759 48.7584C94.55 48.9961 94.4362 49.2399 94.3349 49.4888C93.9937 50.3119 93.7471 51.1703 93.5998 52.048C93.4515 52.9252 93.4046 53.8163 93.4601 54.704C93.4824 55.0443 93.5132 55.3182 93.5439 55.5063C93.5518 55.6053 93.5725 55.7029 93.6054 55.7968C93.6278 55.7968 93.5775 55.3763 93.5551 54.6901C93.5321 53.8095 93.592 52.9287 93.734 52.059C93.8829 51.191 94.114 50.3388 94.4244 49.5137C94.6648 48.8912 94.8492 48.5122 94.8297 48.5039Z" fill="#263238"/>
<path d="M106.728 61.0733C106.728 61.0733 106.689 61.0733 106.608 61.0456C106.49 61.0302 106.37 61.0228 106.251 61.0235C105.807 61.0347 105.37 61.1286 104.962 61.3001C104.361 61.5555 103.805 61.9049 103.316 62.3349C102.757 62.8052 102.198 63.3668 101.552 63.9146C100.5 64.8864 99.3276 65.723 98.0637 66.4046C97.6771 66.6019 97.2796 66.7774 96.873 66.9303C96.7203 66.9755 96.5709 67.0309 96.4258 67.0963C96.4668 67.0957 96.5075 67.0882 96.546 67.0741C96.627 67.0548 96.7416 67.0243 96.8898 66.9801C97.3067 66.8453 97.7138 66.6826 98.1084 66.4931C99.3933 65.832 100.583 65.0029 101.644 64.0281C102.279 63.4747 102.846 62.9214 103.397 62.4428C103.875 62.0161 104.416 61.6643 105.001 61.3997C105.396 61.2265 105.819 61.1235 106.251 61.0954C106.547 61.0594 106.728 61.0843 106.728 61.0733Z" fill="#263238"/>
<path d="M116.874 48.4102C116.804 49.2103 116.557 49.9855 116.153 50.6816C115.708 51.4645 112.659 54.6296 112.203 54.3889C111.748 54.1482 114.288 48.8086 114.288 48.8086L116.874 48.4102Z" fill="#263238"/>
<path d="M114.336 49.5938C114.509 49.7182 123.475 55.4839 123.682 57.2601C123.816 58.3862 122.961 59.6726 121.745 60.4888C120.068 61.6204 115.999 64.1795 115.999 64.1795L113.763 62.0907C113.763 62.0907 117.955 58.6158 118.45 57.8107L111.062 53.4781L114.336 49.5938Z" fill="#FFBF9D"/>
<path d="M120.238 56.7713C120.129 56.7328 120.012 56.7242 119.899 56.7464C119.623 56.7757 119.357 56.8645 119.12 57.0065C118.881 57.1446 118.677 57.3337 118.521 57.5598C118.404 57.7341 118.368 57.8614 118.382 57.8669C118.594 57.5622 118.869 57.3058 119.189 57.115C119.509 56.9241 119.867 56.8032 120.238 56.7603V56.7713Z" fill="#FF9A6C"/>
<path d="M107.859 44.6797C107.859 44.6797 109.816 45.0504 111.021 45.6342C112.225 46.2179 116.874 48.4008 116.874 48.4008C115.838 48.8624 114.925 49.5557 114.207 50.426C113.117 51.8093 112.203 54.3795 112.203 54.3795L108.505 52.4125L107.859 44.6797Z" fill="#C7183A"/>
<path d="M107.7 43.0133C107.7 43.0133 105.744 42.7145 105.442 44.6069C105.14 46.4993 105.537 49.9023 105.948 51.5429C106.359 53.1835 108.651 55.5434 108.651 55.5434L108.749 53.0535C107.904 51.3417 107.506 49.4482 107.589 47.5451C107.74 44.4132 107.868 43.7492 108.385 43.5362C108.902 43.3232 110.079 45.2183 110.079 45.2183L110.663 45.4231C110.663 45.4231 109.956 42.9054 107.7 43.0133Z" fill="#455A64"/>
<path d="M110.459 65.1333L107.074 56.7504L112.295 52.2656L113.542 52.3099L117.911 61.4426L111.896 66.2012L110.853 66.1376L110.459 65.1333Z" fill="#263238"/>
<path d="M112.215 65.7612C112.179 65.6432 112.134 65.5284 112.078 65.4181C111.972 65.1774 111.832 64.8648 111.667 64.5023C111.318 63.7305 110.829 62.6625 110.331 61.4756C109.834 60.2887 109.381 59.2042 109.065 58.4323L108.685 57.5027C108.645 57.3864 108.593 57.2743 108.531 57.168C108.555 57.2889 108.589 57.4075 108.635 57.5221C108.71 57.7462 108.828 58.0754 108.973 58.4655C109.269 59.2595 109.697 60.3496 110.206 61.5393C110.714 62.7289 111.209 63.7913 111.581 64.5549C111.765 64.9367 111.919 65.2438 112.031 65.4513C112.081 65.5606 112.143 65.6645 112.215 65.7612Z" fill="#455A64"/>
<path d="M113.758 62.0897C113.758 62.0897 112.36 61.2376 112.145 61.0605C111.93 60.8834 110.641 60.9471 110.401 60.7036C110.161 60.4601 109.632 60.6123 109.806 61.2127C109.979 61.813 110.857 62.3498 111.525 62.2889C111.525 62.2889 109.495 63.343 109.484 63.639C109.468 63.7827 109.504 63.9273 109.586 64.0469C109.668 64.1665 109.791 64.2534 109.931 64.2919C109.931 64.2919 109.247 64.8812 110.152 65.3792C110.152 65.3792 109.856 65.8772 110.711 66.2092C110.711 66.2092 110.504 66.5661 111.15 66.7626C111.796 66.959 112.43 67.2633 112.875 66.8207C113.319 66.378 115.723 64.3722 115.723 64.3722L118.356 62.4632L117.308 58.9883L113.758 62.0897Z" fill="#FFBF9D"/>
<path d="M111.265 63.9336C111.032 63.9691 110.804 64.0332 110.586 64.1245C110.355 64.1722 110.131 64.2475 109.918 64.3486C110.402 64.3658 110.877 64.2194 111.265 63.9336Z" fill="#FF9A6C"/>
<path d="M111.743 65.301C111.489 65.2481 111.227 65.2397 110.969 65.2761C110.709 65.2667 110.45 65.3042 110.203 65.3867C110.458 65.4381 110.72 65.4465 110.977 65.4116C111.237 65.421 111.497 65.3835 111.743 65.301Z" fill="#FF9A6C"/>
<path d="M111.918 66.2211C111.73 66.1388 111.526 66.0991 111.32 66.1049C111.118 66.0689 110.91 66.0755 110.711 66.1243C111.101 66.2465 111.514 66.2796 111.918 66.2211Z" fill="#FF9A6C"/>
<path d="M111.895 63.5708C111.915 63.5348 111.783 63.4325 111.744 63.2471C111.705 63.0617 111.772 62.9151 111.744 62.893C111.716 62.8708 111.686 62.9096 111.646 62.9787C111.602 63.0718 111.59 63.177 111.613 63.2775C111.636 63.3791 111.693 63.4698 111.775 63.5348C111.836 63.5791 111.89 63.5846 111.895 63.5708Z" fill="#FF9A6C"/>
<path d="M112.306 64.6091C112.331 64.5787 112.228 64.4597 112.194 64.2771C112.161 64.0945 112.211 63.9507 112.178 63.9313C112.144 63.9119 112.015 64.0696 112.06 64.3048C112.105 64.54 112.289 64.6423 112.306 64.6091Z" fill="#FF9A6C"/>
<path d="M112.674 65.8854C112.691 65.8494 112.562 65.7554 112.509 65.5783C112.456 65.4012 112.509 65.2546 112.464 65.2352C112.42 65.2159 112.409 65.2574 112.381 65.3293C112.348 65.4234 112.347 65.5254 112.378 65.6201C112.409 65.7148 112.469 65.7972 112.551 65.855C112.615 65.8854 112.666 65.8854 112.674 65.8854Z" fill="#FF9A6C"/>
<path d="M110.655 45.4937C110.625 45.257 110.55 45.0281 110.434 44.8186C110.19 44.2912 109.827 43.8265 109.372 43.4602C109.231 43.356 109.064 43.2919 108.888 43.2749C108.721 43.2649 108.555 43.3075 108.413 43.3966C108.187 43.5483 108.021 43.7718 107.941 44.0301C107.887 44.1966 107.85 44.3681 107.832 44.542C107.822 44.6052 107.822 44.6696 107.832 44.7329C107.86 44.7329 107.888 44.4562 108.039 44.0633C108.124 43.8346 108.283 43.64 108.492 43.51C108.61 43.4375 108.749 43.4036 108.888 43.4132C109.04 43.4311 109.183 43.4884 109.305 43.5792C109.547 43.767 109.763 43.9867 109.945 44.2321C110.1 44.4327 110.239 44.6455 110.359 44.8684C110.552 45.2447 110.635 45.502 110.655 45.4937Z" fill="#263238"/>
<path d="M108.638 43.5391C108.615 43.5723 108.993 43.8517 109.322 44.311C109.652 44.7702 109.8 45.2129 109.84 45.2018C109.78 44.8527 109.641 44.5217 109.433 44.234C109.225 43.9462 108.953 43.7095 108.638 43.5418V43.5391Z" fill="#263238"/>
<path d="M109.798 54.5432C109.829 54.5156 109.376 53.9899 108.959 53.2761C108.543 52.5623 108.297 51.9122 108.258 51.926C108.51 52.9274 109.047 53.8359 109.806 54.5432H109.798Z" fill="#263238"/>
<path d="M107.434 56.6918L112.468 52.2734L113.323 52.3011L108.317 56.7222L107.434 56.6918Z" fill="white"/>
<path d="M117.446 97.4239L116.901 97.4543C117.091 95.6726 116.854 94.411 115.965 92.9419C116.973 92.3247 118.1 91.9215 119.274 91.7578L121.51 101.911C120.501 102.066 117.446 97.4239 117.446 97.4239Z" fill="#455A64"/>
<path d="M119.264 91.7539L118.426 91.9365L120.877 101.62C120.877 101.62 121.173 102.026 121.484 101.896L119.264 91.7539Z" fill="#E0E0E0"/>
<path d="M117.4 97.2838C117.451 97.27 117.417 97.0071 117.526 96.7305C117.635 96.4538 117.806 96.2712 117.783 96.2297C117.761 96.1882 117.481 96.3293 117.358 96.6696C117.236 97.0099 117.356 97.3059 117.4 97.2838Z" fill="#263238"/>
<path d="M117.856 93.6079C117.928 93.5902 117.989 93.5455 118.027 93.4833C118.065 93.4212 118.077 93.3467 118.06 93.2759C118.042 93.207 117.997 93.1479 117.936 93.1108C117.874 93.0737 117.801 93.0615 117.73 93.0767C117.66 93.0944 117.599 93.1387 117.561 93.2002C117.523 93.2617 117.51 93.3356 117.526 93.4059C117.544 93.4753 117.589 93.5351 117.65 93.5727C117.712 93.6104 117.786 93.623 117.856 93.6079Z" fill="#E0E0E0"/>
<path d="M117.35 97.2162C117.363 97.1439 117.363 97.0699 117.35 96.9976C117.346 96.7929 117.286 96.5929 117.176 96.4194C117.138 96.362 117.092 96.31 117.039 96.2645C116.983 96.2065 116.913 96.1636 116.835 96.14C116.784 96.1243 116.73 96.1253 116.679 96.1427C116.629 96.1602 116.586 96.1931 116.556 96.2368C116.504 96.3193 116.487 96.4186 116.508 96.5135C116.56 96.7014 116.663 96.8719 116.805 97.0064C116.947 97.141 117.124 97.2346 117.316 97.2771V97.1387C117.237 97.1453 117.159 97.1611 117.084 97.1858C116.882 97.2483 116.701 97.3631 116.56 97.5183C116.418 97.6735 116.321 97.8634 116.279 98.0683C116.266 98.122 116.266 98.1779 116.279 98.2316C116.288 98.2612 116.302 98.2887 116.323 98.3121C116.343 98.3355 116.368 98.3543 116.396 98.3671C116.486 98.402 116.586 98.402 116.676 98.3671C116.825 98.3054 116.954 98.2039 117.048 98.0739C117.173 97.8884 117.254 97.6776 117.285 97.4569C117.306 97.3793 117.317 97.2993 117.316 97.219C117.274 97.2879 117.244 97.3638 117.229 97.4431C117.181 97.6475 117.091 97.8403 116.967 98.0102C116.881 98.12 116.767 98.2051 116.637 98.2564C116.573 98.2805 116.502 98.2805 116.438 98.2564C116.388 98.2343 116.38 98.1873 116.399 98.1015C116.44 97.9212 116.527 97.7546 116.653 97.6186C116.779 97.4826 116.94 97.382 117.118 97.3269C117.184 97.3051 117.252 97.2912 117.322 97.2854C117.34 97.2833 117.358 97.274 117.37 97.2595C117.382 97.2451 117.388 97.2265 117.386 97.2079C117.385 97.1927 117.379 97.1782 117.369 97.1667C117.359 97.1552 117.345 97.1473 117.33 97.1443C117.163 97.1068 117.01 97.0264 116.885 96.9113C116.759 96.7961 116.667 96.6503 116.617 96.4886C116.575 96.3502 116.668 96.2119 116.779 96.2479C116.891 96.2975 116.988 96.3758 117.059 96.4747C117.166 96.633 117.234 96.814 117.257 97.0032C117.324 97.1498 117.338 97.219 117.35 97.2162Z" fill="#263238"/>
<path d="M117.914 98.1306C117.953 97.9235 118.012 97.7206 118.091 97.5247C118.202 97.3443 118.329 97.1739 118.471 97.0156C118.362 97.0547 118.263 97.1161 118.18 97.1957C118.097 97.2754 118.033 97.3714 117.99 97.4777C117.931 97.5747 117.893 97.6833 117.88 97.796C117.867 97.9086 117.879 98.0228 117.914 98.1306Z" fill="#263238"/>
<path d="M118.406 98.7771C118.44 98.7771 118.487 98.5281 118.641 98.257C118.794 97.9859 118.982 97.8088 118.959 97.7839C118.937 97.759 118.702 97.9112 118.54 98.2044C118.426 98.3727 118.379 98.5764 118.406 98.7771Z" fill="#263238"/>
<path d="M108.311 35.4526C108.349 34.7264 108.5 34.0105 108.761 33.3306L108.012 29.4324C108.129 27.8526 109.924 28.2648 110.527 28.6937C111.121 29.1481 111.562 29.769 111.793 30.4754C111.958 30.9291 112.132 31.4742 112.598 31.6208C112.895 31.672 113.199 31.655 113.487 31.571C113.904 31.5049 114.332 31.5383 114.733 31.6685C115.134 31.7988 115.499 32.022 115.795 32.3197C116.092 32.6174 116.312 32.981 116.439 33.3801C116.565 33.7792 116.592 34.2023 116.52 34.6143C117.28 34.2519 118.253 34.6586 118.711 35.3613C119.17 36.064 119.198 36.9687 119.016 37.7849C118.784 38.839 118.177 39.8571 117.238 40.3883C116.299 40.9195 114.971 40.8586 114.217 40.0812C114.122 40.3678 113.933 40.6147 113.679 40.7822C113.426 40.9497 113.123 41.0283 112.819 41.0052C112.515 40.9726 112.223 40.8697 111.966 40.7049C111.709 40.5401 111.495 40.3179 111.341 40.0563C111.036 39.53 110.868 38.9365 110.854 38.3299C110.488 38.3695 110.118 38.3137 109.78 38.1681C109.442 38.0226 109.149 37.7922 108.929 37.4999C108.493 36.9072 108.275 36.1848 108.311 35.4526Z" fill="#263238"/>
<path d="M110.096 31.7682C110.043 30.9991 109.576 30.3185 109.031 29.768C108.816 29.5207 108.543 29.3306 108.235 29.2146C108.081 29.1612 107.914 29.1535 107.756 29.1923C107.598 29.2311 107.454 29.3148 107.343 29.4332L107.31 29.9699C107.117 30.7999 107.673 31.6133 107.869 32.4599C107.955 32.8223 108.006 33.2512 108.327 33.4476C108.502 33.5413 108.706 33.5679 108.9 33.5223C109.671 33.3757 110.149 32.5346 110.096 31.7682Z" fill="#455A64"/>
<path d="M109.607 35.6905C109.888 35.3958 110.056 35.0123 110.08 34.6075C110.104 34.2027 109.983 33.8025 109.738 33.4772C110.104 33.1258 110.068 32.5089 109.8 32.08C109.495 31.6719 109.103 31.3363 108.651 31.0979C108.576 30.5102 108.277 29.973 107.815 29.5968C107.353 29.2206 106.763 29.0341 106.166 29.0754C105.68 28.1265 104.419 27.8249 103.354 27.9909C103.099 28.0501 102.836 28.0725 102.574 28.0573C102.385 28.0199 102.198 27.97 102.015 27.9079C100.992 27.6313 99.863 28.2289 99.332 29.1391C99.2566 29.2892 99.1627 29.4296 99.0524 29.5568C98.881 29.6926 98.6932 29.8069 98.4934 29.8971C98.2858 30.0188 98.1072 30.1834 97.9697 30.3796C97.8322 30.5758 97.7392 30.7991 97.6968 31.0342C97.6297 31.4326 97.6968 31.8642 97.4844 32.2156C97.3754 32.3871 97.2049 32.5172 97.1099 32.697C96.8443 33.2226 97.3894 33.8645 97.1993 34.4206C97.1602 34.534 97.0931 34.6364 97.0456 34.7471C96.9486 34.9756 96.9386 35.2312 97.0176 35.4664C97.1036 35.6351 97.1576 35.8179 97.1769 36.0059C97.1481 36.1468 97.1011 36.2835 97.0372 36.4126C96.9226 36.7446 97.4956 38.1528 97.7667 38.3769L106.658 39.5942C107.004 39.5619 107.331 39.4239 107.595 39.1994C107.858 38.9749 108.044 38.6749 108.128 38.3409C108.14 38.2272 108.183 38.1189 108.254 38.0283C108.332 37.9686 108.421 37.9253 108.517 37.901C109.129 37.6714 109.299 36.8995 109.324 36.2411C109.321 36.1473 109.334 36.0536 109.364 35.9644C109.427 35.8593 109.51 35.7665 109.607 35.6905Z" fill="#263238"/>
<path d="M107.068 35.3848C107.167 34.5382 107.034 33.6807 106.684 32.902C106.334 32.1233 105.779 31.452 105.078 30.9582C104.405 30.5395 103.656 30.2573 102.872 30.1282C102.153 29.9667 101.402 30.0256 100.717 30.297C100.211 30.3495 98.2017 31.7467 97.8774 33.5035C97.5197 35.454 97.1563 37.8499 97.2178 39.3439C97.338 42.3485 99.5768 42.9903 99.5768 42.9903L99.1939 45.3143L98.7048 47.1209L105.15 44.0333L107.068 35.3848Z" fill="#FFBF9D"/>
<path d="M98.9329 36.2328C98.92 36.3309 98.9465 36.4301 99.0065 36.5092C99.0666 36.5883 99.1555 36.641 99.2543 36.6561C99.3025 36.6661 99.3522 36.6664 99.4004 36.6569C99.4487 36.6475 99.4946 36.6285 99.5353 36.6012C99.576 36.5738 99.6107 36.5386 99.6373 36.4976C99.664 36.4567 99.682 36.4108 99.6903 36.3628C99.7032 36.264 99.6764 36.1641 99.6159 36.0845C99.5553 36.0048 99.4656 35.9518 99.3661 35.9368C99.3179 35.9272 99.2683 35.9273 99.2202 35.9371C99.1721 35.9469 99.1265 35.9662 99.0861 35.9939C99.0456 36.0215 99.0112 36.0569 98.9849 36.0979C98.9586 36.139 98.9409 36.1848 98.9329 36.2328Z" fill="#263238"/>
<path d="M98.4183 34.6921C98.4602 34.7474 98.776 34.5704 99.1869 34.6174C99.5978 34.6645 99.8745 34.8941 99.9248 34.8609C99.9751 34.8277 99.9108 34.7474 99.7906 34.6368C99.6272 34.4942 99.4231 34.4053 99.2065 34.3823C98.9931 34.3569 98.777 34.3985 98.5888 34.5012C98.4462 34.5842 98.3987 34.6672 98.4183 34.6921Z" fill="#263238"/>
<path d="M100.435 38.1916C100.226 38.1011 100.008 38.0352 99.7835 37.9952C99.6773 37.9731 99.5822 37.9399 99.5739 37.868C99.5764 37.7589 99.6136 37.6534 99.6801 37.5664L100.085 36.8139C100.644 35.7376 101.072 34.8468 101.027 34.8246C100.983 34.8025 100.491 35.6546 99.926 36.7336L99.5319 37.4945C99.4516 37.6123 99.415 37.7541 99.4285 37.8956C99.4395 37.9342 99.4593 37.9698 99.4865 37.9995C99.5136 38.0293 99.5474 38.0524 99.585 38.0671C99.641 38.0888 99.6991 38.1045 99.7583 38.1142C99.9794 38.1693 100.207 38.1954 100.435 38.1916Z" fill="#263238"/>
<path d="M99.5773 42.9693C100.977 43.1546 102.401 42.9516 103.692 42.3828C103.692 42.3828 102.386 44.3776 99.4375 43.7523L99.5773 42.9693Z" fill="#FF9A6C"/>
<path d="M98.7632 33.1863C98.8191 33.2942 99.1434 33.2638 99.5067 33.3385C99.8701 33.4132 100.164 33.5432 100.256 33.463C100.298 33.4243 100.256 33.3219 100.152 33.2057C99.9964 33.0627 99.8025 32.9668 99.5934 32.929C99.3819 32.8854 99.1621 32.9047 98.9617 32.9844C98.7996 33.0508 98.7381 33.1338 98.7632 33.1863Z" fill="#263238"/>
<path d="M103.451 36.8372C103.436 36.9354 103.383 37.0239 103.303 37.0842C103.223 37.1446 103.123 37.172 103.023 37.1609C102.975 37.1567 102.927 37.143 102.883 37.1206C102.84 37.0981 102.801 37.0673 102.77 37.03C102.738 36.9927 102.715 36.9497 102.7 36.9033C102.686 36.8569 102.681 36.8081 102.685 36.7597C102.7 36.6615 102.754 36.573 102.833 36.5127C102.913 36.4523 103.013 36.4249 103.113 36.436C103.162 36.4402 103.209 36.4539 103.253 36.4764C103.296 36.4988 103.335 36.5296 103.366 36.5669C103.398 36.6042 103.422 36.6473 103.436 36.6937C103.451 36.74 103.456 36.7888 103.451 36.8372Z" fill="#263238"/>
<path d="M104.03 35.5154C103.974 35.5569 103.72 35.3024 103.312 35.2388C102.904 35.1751 102.568 35.3328 102.532 35.2775C102.496 35.2222 102.577 35.1696 102.722 35.0949C102.919 35.002 103.139 34.9711 103.354 35.0064C103.565 35.0368 103.761 35.1338 103.913 35.283C104.03 35.402 104.044 35.4961 104.03 35.5154Z" fill="#263238"/>
<path d="M104.313 34.1671C104.218 34.2446 103.916 34.1007 103.538 34.0371C103.161 33.9734 102.826 33.99 102.767 33.8849C102.742 33.8323 102.809 33.7466 102.963 33.6829C103.172 33.6084 103.397 33.5901 103.615 33.6299C103.834 33.6698 104.038 33.7664 104.206 33.9098C104.313 34.026 104.343 34.1256 104.313 34.1671Z" fill="#263238"/>
<path d="M106.239 38.1167C106.265 37.8982 106.583 37.4085 106.798 37.4002C107.394 37.378 108.445 37.5496 108.277 39.0214C108.051 41.0328 106.259 40.33 106.061 40.3356C105.708 40.3411 106.147 38.8748 106.239 38.1167Z" fill="#FFBF9D"/>
<path d="M106.718 39.6599C106.718 39.6599 106.751 39.6903 106.807 39.7235C106.888 39.7682 106.983 39.7801 107.073 39.7567C107.213 39.6892 107.333 39.5856 107.42 39.4566C107.506 39.3277 107.556 39.1781 107.565 39.0236C107.588 38.852 107.574 38.6773 107.523 38.5117C107.511 38.4466 107.483 38.3854 107.441 38.3334C107.4 38.2813 107.346 38.24 107.285 38.2129C107.246 38.1982 107.203 38.1973 107.163 38.2105C107.124 38.2236 107.09 38.2499 107.067 38.2849C107.034 38.3402 107.042 38.3817 107.031 38.3845C107.02 38.3872 106.989 38.3457 107.031 38.2627C107.047 38.2146 107.08 38.1735 107.123 38.1465C107.184 38.1117 107.256 38.1009 107.324 38.1161C107.406 38.1417 107.48 38.1877 107.539 38.2497C107.598 38.3117 107.639 38.3877 107.66 38.4702C107.728 38.6531 107.748 38.8502 107.718 39.0429C107.66 39.4469 107.408 39.8038 107.106 39.8563C107.05 39.8653 106.992 39.8621 106.937 39.8468C106.882 39.8315 106.831 39.8045 106.788 39.7678C106.715 39.7097 106.709 39.6627 106.718 39.6599Z" fill="#FF9A6C"/>
<path d="M97.4102 33.459C97.6223 33.3822 97.808 33.2473 97.9456 33.07C98.0832 32.8926 98.167 32.6802 98.1872 32.4575C98.4499 32.5709 98.7686 32.2555 98.953 32.0425C99.1375 31.8295 99.3499 31.7326 99.3695 31.4504C99.3692 31.3943 99.3836 31.339 99.4114 31.29C99.4743 31.2267 99.5594 31.1901 99.649 31.1876C99.8734 31.1435 100.083 31.0444 100.259 30.8994C100.435 30.7544 100.571 30.5682 100.655 30.3576C101.071 30.5979 101.541 30.732 102.022 30.7477C102.112 30.9094 102.241 31.0464 102.397 31.1462C102.554 31.246 102.733 31.3055 102.919 31.3193C103.105 31.333 103.291 31.3006 103.461 31.2249C103.631 31.1493 103.779 31.0328 103.892 30.8861C103.947 31.0149 104.029 31.1308 104.133 31.2261C104.236 31.3215 104.359 31.3941 104.493 31.4394C104.764 31.5263 105.046 31.5748 105.331 31.5832C105.249 31.8479 105.266 32.1328 105.378 32.3865C105.489 32.6402 105.689 32.846 105.941 32.9666C106.011 32.997 106.092 33.0302 106.117 33.0994C106.127 33.1779 106.106 33.2574 106.058 33.3207C106.006 33.4319 105.977 33.5524 105.972 33.6751C105.968 33.7977 105.989 33.9199 106.033 34.0345C106.077 34.1491 106.144 34.2537 106.23 34.3421C106.316 34.4305 106.419 34.5009 106.533 34.5491C106.448 34.6079 106.377 34.685 106.326 34.7749C106.275 34.8647 106.245 34.9648 106.239 35.0676C106.233 35.1704 106.25 35.2733 106.29 35.3685C106.33 35.4636 106.391 35.5486 106.469 35.617C106.536 35.6696 106.626 35.7332 106.606 35.8162C106.595 35.8475 106.576 35.8752 106.55 35.8964C106.359 36.0637 106.22 36.2817 106.15 36.5245C106.12 36.6462 106.138 36.7748 106.201 36.8835C106.264 36.9922 106.367 37.0727 106.489 37.1082C106.411 37.1524 106.344 37.2113 106.29 37.2817C106.237 37.352 106.198 37.4322 106.176 37.5177C106.153 37.692 106.31 37.8912 106.483 37.8497C106.556 37.8303 107.601 37.7529 107.643 37.6975C108.308 36.992 107.69 36.0541 107.746 35.0914C107.783 34.1215 107.591 33.1564 107.187 32.2721C107.033 31.8965 106.83 31.5422 106.584 31.218C106.28 30.8665 105.938 30.5492 105.563 30.2719C105.107 29.8717 104.588 29.5475 104.026 29.3118C102.961 28.9273 101.776 29.1873 100.697 29.5359C100.282 29.652 99.8851 29.8242 99.5177 30.0478C99.0967 30.3464 98.7324 30.7164 98.4415 31.1406C97.9806 31.7241 97.6465 32.3957 97.4605 33.1132" fill="#263238"/>
<path d="M97.0977 32.7074C97.1318 32.6337 97.177 32.5656 97.2318 32.5054C97.2849 32.4418 97.3548 32.3726 97.4247 32.2785C97.5028 32.1711 97.5571 32.0485 97.584 31.9189C97.6152 31.7537 97.632 31.5861 97.6343 31.4181C97.6357 31.2166 97.6658 31.0164 97.7238 30.8233C97.7946 30.6015 97.9117 30.397 98.0676 30.2229C98.1507 30.1279 98.2445 30.0425 98.3471 29.9684C98.4589 29.8928 98.5767 29.8262 98.6992 29.7692C98.8242 29.7132 98.9386 29.6364 99.0374 29.5423C99.133 29.4353 99.2138 29.3162 99.2778 29.1882C99.5964 28.6221 100.109 28.1875 100.723 27.9626C100.889 27.9048 101.06 27.864 101.234 27.8408C101.414 27.8187 101.597 27.8187 101.777 27.8408C101.871 27.8539 101.964 27.8724 102.056 27.8962L102.319 27.9764C102.493 28.0347 102.678 28.0564 102.861 28.04C103.048 28.04 103.233 27.9847 103.42 27.9598C103.615 27.9334 103.811 27.9223 104.007 27.9266C104.207 27.9336 104.406 27.9558 104.602 27.993C104.802 28.0336 104.997 28.0938 105.184 28.1728C105.574 28.3314 105.903 28.6072 106.126 28.9613L106.19 29.0692L106.159 29.0526C106.764 29.0126 107.361 29.2025 107.828 29.5835C108.296 29.9646 108.599 30.508 108.675 31.1027L108.661 31.0806C108.892 31.2202 109.114 31.3736 109.326 31.5398C109.535 31.7008 109.711 31.8988 109.846 32.1236C109.971 32.3447 110.033 32.5953 110.025 32.8484C110.021 33.0946 109.921 33.3297 109.745 33.5041V33.4709C109.985 33.7823 110.106 34.1674 110.086 34.5582C110.08 34.909 109.963 35.2492 109.754 35.5321C109.704 35.596 109.651 35.657 109.594 35.7147C109.538 35.7663 109.484 35.8208 109.432 35.8779C109.385 35.9316 109.352 35.9964 109.337 36.0661C109.324 36.1344 109.317 36.2039 109.318 36.2736C109.309 36.5306 109.27 36.7859 109.203 37.0344C109.148 37.2353 109.053 37.4233 108.924 37.5877C108.827 37.7048 108.706 37.7993 108.569 37.8644C108.454 37.9197 108.359 37.9363 108.303 37.9667C108.273 37.9795 108.246 37.9972 108.222 38.0193C108.243 37.9931 108.27 37.9722 108.3 37.9584C108.356 37.9252 108.451 37.9059 108.56 37.8505C108.695 37.7851 108.814 37.6906 108.907 37.5739C109.028 37.4073 109.116 37.2195 109.167 37.0205C109.231 36.7745 109.266 36.522 109.273 36.268C109.273 36.1956 109.279 36.1234 109.293 36.0522C109.309 35.9763 109.344 35.9057 109.396 35.8475C109.446 35.7882 109.5 35.7327 109.558 35.6815C109.614 35.6254 109.665 35.5653 109.712 35.5017C109.915 35.2245 110.026 34.8921 110.031 34.5499C110.047 34.1705 109.928 33.7975 109.695 33.4958L109.681 33.4792L109.698 33.4626C109.862 33.2958 109.955 33.073 109.958 32.8401C109.964 32.5962 109.904 32.3551 109.782 32.143C109.648 31.9297 109.477 31.7422 109.276 31.5896C109.065 31.4264 108.845 31.2758 108.616 31.1387H108.602V31.1248C108.526 30.5458 108.23 30.0173 107.774 29.6467C107.318 29.2762 106.737 29.0914 106.148 29.1301H106.129V29.1107L106.067 29.0083C105.852 28.665 105.533 28.3971 105.156 28.242C104.975 28.1666 104.788 28.1073 104.597 28.0649C104.403 28.0273 104.207 28.0061 104.01 28.0013C103.817 27.9962 103.623 28.0063 103.431 28.0317C103.244 28.0566 103.054 28.0981 102.872 28.112C102.779 28.1211 102.686 28.1211 102.593 28.112C102.498 28.0967 102.405 28.0755 102.313 28.0483L102.051 27.9653C101.964 27.946 101.877 27.9238 101.788 27.9128C101.613 27.892 101.437 27.892 101.262 27.9128C101.092 27.9356 100.924 27.9764 100.762 28.0345C100.453 28.1443 100.169 28.3114 99.9235 28.5269C99.6895 28.7256 99.4928 28.9635 99.3421 29.2297C99.2763 29.3613 99.1936 29.4841 99.0961 29.5949C98.9925 29.691 98.8735 29.7695 98.744 29.8273C98.6233 29.8823 98.5073 29.9471 98.3974 30.0209C98.2954 30.0926 98.2016 30.1752 98.1179 30.2672C97.9646 30.4369 97.8494 30.6368 97.7797 30.8537C97.7219 31.0441 97.6908 31.2415 97.6874 31.4402C97.6824 31.6085 97.6628 31.776 97.6287 31.941C97.5991 32.0738 97.542 32.1991 97.461 32.309C97.3883 32.403 97.3185 32.4722 97.2654 32.5331C97.2246 32.5773 97.1873 32.6245 97.1536 32.6742C97.136 32.6869 97.1173 32.698 97.0977 32.7074Z" fill="#455A64"/>
<path d="M105.261 28.5361C105.261 28.5361 105.21 28.5001 105.118 28.442C104.987 28.3572 104.843 28.2954 104.691 28.2594C104.467 28.2059 104.232 28.2116 104.011 28.276C103.742 28.3597 103.506 28.5252 103.338 28.7491C103.288 28.8155 103.245 28.8869 103.209 28.9621C103.193 28.9959 103.185 29.0328 103.185 29.07C103.185 29.1073 103.193 29.1441 103.209 29.1779L103.251 29.2499L103.173 29.2194C102.969 29.1364 102.74 29.1364 102.536 29.2194C102.373 29.2867 102.236 29.4028 102.144 29.5514C102.084 29.6501 102.044 29.7589 102.024 29.8723C102.024 29.9526 102.024 29.9968 102.01 29.9968C101.996 29.9968 102.01 29.9968 102.01 29.9636C102.007 29.9324 102.007 29.9009 102.01 29.8696C102.021 29.7509 102.057 29.6359 102.116 29.5321C102.207 29.3709 102.35 29.2443 102.522 29.1724C102.629 29.1277 102.745 29.1047 102.861 29.1047C102.978 29.1047 103.093 29.1277 103.201 29.1724L103.162 29.2139C103.141 29.1707 103.13 29.1235 103.13 29.0756C103.13 29.0276 103.141 28.9804 103.162 28.9372C103.199 28.8566 103.244 28.7797 103.296 28.7076C103.473 28.4737 103.722 28.3029 104.006 28.2207C104.236 28.1556 104.48 28.1556 104.71 28.2207C104.865 28.2621 105.01 28.3305 105.141 28.4226C105.185 28.4586 105.219 28.4863 105.238 28.5056C105.258 28.525 105.264 28.5361 105.261 28.5361Z" fill="#455A64"/>
<path d="M108.276 31.2344C108.276 31.2344 108.25 31.262 108.194 31.298C108.117 31.3502 108.033 31.3938 107.946 31.428C107.813 31.4832 107.67 31.5078 107.526 31.5C107.343 31.4928 107.17 31.4177 107.04 31.2897H107.088L107.018 31.3644L106.94 31.4363C106.777 31.5654 106.585 31.652 106.38 31.6881C106.219 31.7199 106.053 31.7199 105.891 31.6881C105.782 31.6664 105.677 31.6291 105.578 31.5774C105.542 31.5592 105.51 31.5359 105.48 31.5083C105.613 31.5705 105.753 31.616 105.897 31.6438C106.053 31.6738 106.213 31.6738 106.369 31.6438C106.559 31.6049 106.736 31.5214 106.886 31.4004L106.962 31.334L107.029 31.262L107.051 31.2371L107.074 31.262C107.194 31.3791 107.353 31.4498 107.521 31.4612C107.657 31.4695 107.793 31.4497 107.921 31.4031C108.042 31.3533 108.16 31.2969 108.276 31.2344Z" fill="#455A64"/>
<path d="M109.118 33.2404C109.118 33.2404 109.118 33.2542 109.118 33.2763C109.104 33.3106 109.084 33.3424 109.059 33.3704C108.968 33.4706 108.843 33.5329 108.707 33.5447C108.512 33.5549 108.318 33.5098 108.148 33.4147C108.044 33.3646 107.942 33.3092 107.843 33.2487C107.731 33.1875 107.643 33.0898 107.595 32.972V32.9388L107.639 32.9582C107.44 33.0825 107.222 33.1758 106.994 33.2348C106.805 33.288 106.604 33.288 106.415 33.2348C106.289 33.1979 106.175 33.1282 106.085 33.0329C106.06 33.0088 106.038 32.9807 106.021 32.9499C106.008 32.9314 106.002 32.9204 106.004 32.9167C106.004 32.9167 106.035 32.9554 106.102 33.0163C106.195 33.1 106.308 33.1606 106.429 33.1933C106.612 33.2434 106.805 33.2434 106.988 33.1933C107.21 33.1313 107.422 33.0381 107.617 32.9167L107.651 32.8945V32.936V32.9665C107.693 33.0738 107.772 33.163 107.874 33.2182C107.97 33.2783 108.069 33.3328 108.17 33.3815C108.334 33.4781 108.522 33.527 108.713 33.5226C108.841 33.5145 108.962 33.4615 109.054 33.3732C109.08 33.3314 109.102 33.2868 109.118 33.2404Z" fill="#455A64"/>
<path d="M101.658 39.3072C101.655 39.2123 101.635 39.1185 101.599 39.0306C101.581 38.9886 101.552 38.9517 101.516 38.9232C101.48 38.8947 101.437 38.8755 101.392 38.8673C101.325 38.8655 101.259 38.8807 101.199 38.9116L100.397 39.2436L100.305 39.4124C100.415 39.6605 100.576 39.8836 100.777 40.0681C100.834 40.1275 100.907 40.1697 100.987 40.1898C101.093 40.192 101.197 40.16 101.283 40.0985C101.403 40.0415 101.507 39.9571 101.588 39.8523C101.673 39.6837 101.697 39.4915 101.658 39.3072Z" fill="#FF9A6C"/>
<path d="M100.96 40.2431C101.1 40.2025 101.233 40.1409 101.354 40.0605C101.481 39.971 101.578 39.847 101.634 39.7036C101.698 39.5246 101.698 39.3293 101.634 39.1503C101.617 39.1055 101.596 39.062 101.572 39.0203C101.552 38.9814 101.525 38.9467 101.491 38.9179C101.479 38.9067 101.463 38.8986 101.447 38.8943C101.43 38.8899 101.413 38.8895 101.396 38.893C101.354 38.9037 101.313 38.9185 101.273 38.9373L100.823 39.1171C100.687 39.1794 100.545 39.2276 100.398 39.261C100.521 39.1745 100.655 39.1039 100.795 39.0507C100.918 38.9899 101.075 38.9235 101.234 38.8488C101.279 38.8251 101.327 38.8066 101.377 38.7934C101.408 38.787 101.44 38.7877 101.471 38.7953C101.502 38.803 101.531 38.8175 101.556 38.8377C101.6 38.8729 101.636 38.9173 101.662 38.9677C101.691 39.0148 101.714 39.0649 101.732 39.1171C101.806 39.3133 101.806 39.5296 101.732 39.7258C101.667 39.8836 101.555 40.0178 101.41 40.1103C101.317 40.1738 101.21 40.2154 101.097 40.2321C100.999 40.2542 100.96 40.2487 100.96 40.2431Z" fill="#263238"/>
<path d="M108.983 79.2024C108.976 79.0675 108.983 78.9321 109.003 78.7985C109.025 78.5412 109.053 78.1677 109.078 77.7084C109.214 75.3027 109.01 72.8899 108.472 70.5401C108.368 70.0891 108.279 69.7267 108.212 69.4749C108.171 69.3466 108.142 69.2152 108.125 69.082C108.182 69.2042 108.229 69.331 108.265 69.4611C108.349 69.7073 108.455 70.067 108.572 70.5152C108.869 71.6887 109.07 72.8841 109.173 74.0897C109.273 75.2957 109.273 76.5079 109.173 77.714C109.134 78.176 109.092 78.544 109.05 78.8068C109.039 78.9403 109.016 79.0726 108.983 79.2024Z" fill="#455A64"/>
<path d="M104.395 82.1508C104.395 82.1048 104.403 82.0591 104.417 82.0153C104.439 81.9129 104.47 81.7884 104.506 81.6362C104.59 81.307 104.705 80.8284 104.831 80.2335C105.496 77.1386 105.711 73.9656 105.471 70.8103C105.426 70.2044 105.378 69.7037 105.339 69.3772C105.323 69.2223 105.311 69.1006 105.3 68.9899C105.294 68.944 105.294 68.8975 105.3 68.8516C105.318 68.8938 105.328 68.9387 105.331 68.9844C105.35 69.0895 105.373 69.2168 105.398 69.3717C105.454 69.7064 105.518 70.2017 105.577 70.802C105.723 72.3824 105.744 73.9716 105.638 75.5551C105.53 77.1389 105.294 78.7116 104.934 80.2584C104.794 80.8505 104.654 81.3291 104.565 81.6418L104.448 82.0153C104.437 82.0627 104.419 82.1083 104.395 82.1508Z" fill="#455A64"/>
<path d="M98.5234 82.8176C98.5327 82.773 98.5487 82.7301 98.5709 82.6903C98.6129 82.5935 98.666 82.4773 98.7303 82.3362C98.8728 82.0291 99.0713 81.5836 99.3116 81.0303C99.9296 79.5859 100.464 78.108 100.913 76.6037C101.355 75.0969 101.709 73.5663 101.973 72.0193C102.073 71.4245 102.149 70.9431 102.196 70.6083C102.219 70.4571 102.238 70.3298 102.255 70.2266C102.259 70.1814 102.268 70.1368 102.283 70.0938C102.29 70.1386 102.29 70.1844 102.283 70.2293C102.283 70.3344 102.263 70.4617 102.252 70.6166C102.221 70.9514 102.163 71.4466 102.076 72.0359C101.606 75.1545 100.707 78.1947 99.4039 81.0718C99.1551 81.6251 98.9399 82.0623 98.7806 82.3611L98.5961 82.7041C98.5765 82.7446 98.5521 82.7827 98.5234 82.8176Z" fill="#455A64"/>
<path d="M92.293 80.6523C92.3951 80.5257 92.5073 80.4072 92.6284 80.2982C92.852 80.0796 93.1706 79.7449 93.5563 79.352C94.5584 78.2965 95.4919 77.1793 96.3514 76.0071C97.2185 74.8328 98.0101 73.6057 98.7217 72.333C99.0012 71.8433 99.2024 71.4449 99.3422 71.1655C99.4092 71.018 99.4887 70.8764 99.5798 70.7422C99.5284 70.8955 99.4668 71.0452 99.3953 71.1904C99.2695 71.4671 99.0711 71.8848 98.8111 72.38C97.4518 74.9685 95.7099 77.3416 93.643 79.4212C93.2461 79.8196 92.9163 80.1322 92.6787 80.3397C92.5574 80.4524 92.4285 80.5569 92.293 80.6523Z" fill="#455A64"/>
</svg>
